<ttFont>
    <TTGlyph name=".notdef" xMin="68" yMin="0" xMax="612" yMax="1365">
      <contour>
        <pt x="68" y="0" on="1"/>
        <pt x="68" y="1365" on="1"/>
        <pt x="612" y="1365" on="1"/>
        <pt x="612" y="0" on="1"/>
      </contour>
      <contour>
        <pt x="136" y="68" on="1"/>
        <pt x="544" y="68" on="1"/>
        <pt x="544" y="1297" on="1"/>
        <pt x="136" y="1297" on="1"/>
      </contour>
    </TTGlyph>
    <TTGlyph name="A" xMin="-13" yMin="0" xMax="1208" yMax="1153">
      <contour>
        <pt x="878" y="1153" on="1"/>
        <pt x="878" y="1035" on="1"/>
        <pt x="777" y="1035" on="1"/>
        <pt x="846" y="831" on="0"/>
        <pt x="925" y="589" on="0"/>
        <pt x="938" y="551" on="1"/>
        <pt x="976" y="436" on="0"/>
        <pt x="1044" y="216" on="0"/>
        <pt x="1071" y="117" on="1"/>
        <pt x="1208" y="117" on="1"/>
        <pt x="1208" y="0" on="1"/>
        <pt x="755" y="0" on="1"/>
        <pt x="755" y="117" on="1"/>
        <pt x="905" y="117" on="1"/>
        <pt x="820" y="424" on="1"/>
        <pt x="375" y="424" on="1"/>
        <pt x="291" y="117" on="1"/>
        <pt x="440" y="117" on="1"/>
        <pt x="440" y="0" on="1"/>
        <pt x="-13" y="0" on="1"/>
        <pt x="-13" y="117" on="1"/>
        <pt x="125" y="117" on="1"/>
        <pt x="154" y="224" on="0"/>
        <pt x="225" y="456" on="0"/>
        <pt x="302" y="693" on="0"/>
        <pt x="381" y="926" on="0"/>
        <pt x="418" y="1035" on="1"/>
        <pt x="318" y="1035" on="1"/>
        <pt x="318" y="1153" on="1"/>
      </contour>
      <contour>
        <pt x="790" y="545" on="1"/>
        <pt x="770" y="611" on="0"/>
        <pt x="699" y="852" on="0"/>
        <pt x="635" y="1035" on="1"/>
        <pt x="561" y="1035" on="1"/>
        <pt x="497" y="852" on="0"/>
        <pt x="424" y="611" on="0"/>
        <pt x="405" y="545" on="1"/>
      </contour>
    </TTGlyph>
    <TTGlyph name="AE" xMin="-23" yMin="0" xMax="1735" yMax="1153">
      <contour>
        <pt x="1563" y="832" on="1"/>
        <pt x="1431" y="832" on="1"/>
        <pt x="1386" y="1026" on="1"/>
        <pt x="870" y="1026" on="1"/>
        <pt x="958" y="655" on="1"/>
        <pt x="1320" y="655" on="1"/>
        <pt x="1296" y="769" on="1"/>
        <pt x="1393" y="769" on="1"/>
        <pt x="1478" y="410" on="1"/>
        <pt x="1380" y="410" on="1"/>
        <pt x="1341" y="548" on="1"/>
        <pt x="982" y="548" on="1"/>
        <pt x="1086" y="125" on="1"/>
        <pt x="1577" y="125" on="1"/>
        <pt x="1528" y="328" on="1"/>
        <pt x="1657" y="328" on="1"/>
        <pt x="1735" y="0" on="1"/>
        <pt x="744" y="0" on="1"/>
        <pt x="756" y="125" on="1"/>
        <pt x="925" y="125" on="1"/>
        <pt x="854" y="424" on="1"/>
        <pt x="393" y="424" on="1"/>
        <pt x="291" y="125" on="1"/>
        <pt x="441" y="125" on="1"/>
        <pt x="430" y="0" on="1"/>
        <pt x="-23" y="0" on="1"/>
        <pt x="-12" y="125" on="1"/>
        <pt x="125" y="125" on="1"/>
        <pt x="496" y="1035" on="1"/>
        <pt x="394" y="1035" on="1"/>
        <pt x="410" y="1153" on="1"/>
        <pt x="1487" y="1153" on="1"/>
      </contour>
      <contour>
        <pt x="825" y="545" on="1"/>
        <pt x="710" y="1026" on="1"/>
        <pt x="634" y="1026" on="1"/>
        <pt x="442" y="545" on="1"/>
      </contour>
    </TTGlyph>
    <TTGlyph name="Aacute" xMin="-13" yMin="0" xMax="1208" yMax="1519">
      <component glyphName="A" x="0" y="0" flags="0x204"/>
      <component glyphName="acute" x="280" y="348" flags="0x4"/>
    </TTGlyph>
    <TTGlyph name="Acircumflex" xMin="-13" yMin="0" xMax="1208" yMax="1519">
      <component glyphName="A" x="0" y="0" flags="0x204"/>
      <component glyphName="circumflex" x="301" y="348" flags="0x4"/>
    </TTGlyph>
    <TTGlyph name="Adieresis" xMin="-13" yMin="0" xMax="1208" yMax="1449">
      <component glyphName="A" x="0" y="0" flags="0x204"/>
      <component glyphName="dieresis" x="307" y="348" flags="0x4"/>
    </TTGlyph>
    <TTGlyph name="Agrave" xMin="-13" yMin="0" xMax="1208" yMax="1519">
      <component glyphName="A" x="0" y="0" flags="0x204"/>
      <component glyphName="grave" x="340" y="348" flags="0x4"/>
    </TTGlyph>
    <TTGlyph name="Aring" xMin="-13" yMin="0" xMax="1208" yMax="1549">
      <component glyphName="A" x="0" y="0" flags="0x204"/>
      <component glyphName="ring" x="315" y="348" flags="0x4"/>
    </TTGlyph>
    <TTGlyph name="Atilde" xMin="-13" yMin="0" xMax="1208" yMax="1537">
      <component glyphName="A" x="0" y="0" flags="0x204"/>
      <component glyphName="tilde" x="304" y="348" flags="0x4"/>
    </TTGlyph>
    <TTGlyph name="B" xMin="66" yMin="0" xMax="982" yMax="1153">
      <contour>
        <pt x="214" y="117" on="1"/>
        <pt x="214" y="1035" on="1"/>
        <pt x="66" y="1035" on="1"/>
        <pt x="66" y="1153" on="1"/>
        <pt x="552" y="1153" on="1"/>
        <pt x="656" y="1153" on="0"/>
        <pt x="799" y="1104" on="0"/>
        <pt x="888" y="1021" on="0"/>
        <pt x="927" y="914" on="0"/>
        <pt x="927" y="857" on="1"/>
        <pt x="927" y="811" on="0"/>
        <pt x="902" y="732" on="0"/>
        <pt x="859" y="669" on="0"/>
        <pt x="801" y="622" on="0"/>
        <pt x="767" y="607" on="1"/>
        <pt x="813" y="592" on="0"/>
        <pt x="892" y="539" on="0"/>
        <pt x="949" y="467" on="0"/>
        <pt x="982" y="376" on="0"/>
        <pt x="982" y="322" on="1"/>
        <pt x="982" y="270" on="0"/>
        <pt x="945" y="157" on="0"/>
        <pt x="848" y="62" on="0"/>
        <pt x="676" y="0" on="0"/>
        <pt x="541" y="0" on="1"/>
        <pt x="66" y="0" on="1"/>
        <pt x="66" y="117" on="1"/>
      </contour>
      <contour>
        <pt x="374" y="117" on="1"/>
        <pt x="540" y="117" on="1"/>
        <pt x="616" y="117" on="0"/>
        <pt x="721" y="148" on="0"/>
        <pt x="786" y="204" on="0"/>
        <pt x="815" y="283" on="0"/>
        <pt x="815" y="332" on="1"/>
        <pt x="815" y="371" on="0"/>
        <pt x="788" y="443" on="0"/>
        <pt x="726" y="498" on="0"/>
        <pt x="622" y="532" on="0"/>
        <pt x="546" y="532" on="1"/>
        <pt x="374" y="532" on="1"/>
      </contour>
      <contour>
        <pt x="537" y="661" on="1"/>
        <pt x="600" y="661" on="0"/>
        <pt x="686" y="691" on="0"/>
        <pt x="739" y="742" on="0"/>
        <pt x="762" y="809" on="0"/>
        <pt x="762" y="847" on="1"/>
        <pt x="762" y="892" on="0"/>
        <pt x="735" y="962" on="0"/>
        <pt x="676" y="1010" on="0"/>
        <pt x="581" y="1035" on="0"/>
        <pt x="513" y="1035" on="1"/>
        <pt x="374" y="1035" on="1"/>
        <pt x="374" y="661" on="1"/>
      </contour>
    </TTGlyph>
    <TTGlyph name="C" xMin="69" yMin="-19" xMax="1188" yMax="1171">
      <contour>
        <pt x="643" y="-19" on="1"/>
        <pt x="511" y="-19" on="0"/>
        <pt x="298" y="68" on="0"/>
        <pt x="149" y="224" on="0"/>
        <pt x="69" y="443" on="0"/>
        <pt x="69" y="575" on="1"/>
        <pt x="69" y="707" on="0"/>
        <pt x="149" y="927" on="0"/>
        <pt x="303" y="1084" on="0"/>
        <pt x="527" y="1171" on="0"/>
        <pt x="670" y="1171" on="1"/>
        <pt x="785" y="1171" on="0"/>
        <pt x="964" y="1088" on="0"/>
        <pt x="1027" y="1022" on="1"/>
        <pt x="1027" y="1153" on="1"/>
        <pt x="1157" y="1153" on="1"/>
        <pt x="1157" y="804" on="1"/>
        <pt x="1032" y="804" on="1"/>
        <pt x="974" y="921" on="0"/>
        <pt x="774" y="1035" on="0"/>
        <pt x="648" y="1035" on="1"/>
        <pt x="553" y="1035" on="0"/>
        <pt x="404" y="966" on="0"/>
        <pt x="301" y="844" on="0"/>
        <pt x="246" y="677" on="0"/>
        <pt x="246" y="580" on="1"/>
        <pt x="246" y="484" on="0"/>
        <pt x="291" y="315" on="0"/>
        <pt x="389" y="189" on="0"/>
        <pt x="544" y="117" on="0"/>
        <pt x="654" y="117" on="1"/>
        <pt x="717" y="117" on="0"/>
        <pt x="839" y="143" on="0"/>
        <pt x="945" y="205" on="0"/>
        <pt x="1028" y="304" on="0"/>
        <pt x="1053" y="378" on="1"/>
        <pt x="1188" y="307" on="1"/>
        <pt x="1147" y="208" on="0"/>
        <pt x="1023" y="82" on="0"/>
        <pt x="876" y="9" on="0"/>
        <pt x="718" y="-19" on="0"/>
      </contour>
    </TTGlyph>
    <TTGlyph name="Ccedilla" xMin="69" yMin="-363" xMax="1188" yMax="1171">
      <component glyphName="C" x="0" y="0" flags="0x204"/>
      <component glyphName="cedilla" x="339" y="0" flags="0x4"/>
    </TTGlyph>
    <TTGlyph name="D" xMin="59" yMin="0" xMax="1199" yMax="1153">
      <contour>
        <pt x="59" y="117" on="1"/>
        <pt x="218" y="117" on="1"/>
        <pt x="218" y="1035" on="1"/>
        <pt x="59" y="1035" on="1"/>
        <pt x="59" y="1153" on="1"/>
        <pt x="613" y="1153" on="1"/>
        <pt x="727" y="1153" on="0"/>
        <pt x="903" y="1107" on="0"/>
        <pt x="1033" y="1026" on="0"/>
        <pt x="1122" y="917" on="0"/>
        <pt x="1176" y="791" on="0"/>
        <pt x="1199" y="654" on="0"/>
        <pt x="1199" y="587" on="1"/>
        <pt x="1199" y="454" on="0"/>
        <pt x="1132" y="238" on="0"/>
        <pt x="988" y="84" on="0"/>
        <pt x="760" y="0" on="0"/>
        <pt x="599" y="0" on="1"/>
        <pt x="59" y="0" on="1"/>
      </contour>
      <contour>
        <pt x="380" y="117" on="1"/>
        <pt x="625" y="117" on="1"/>
        <pt x="733" y="117" on="0"/>
        <pt x="888" y="190" on="0"/>
        <pt x="987" y="316" on="0"/>
        <pt x="1034" y="485" on="0"/>
        <pt x="1034" y="581" on="1"/>
        <pt x="1034" y="675" on="0"/>
        <pt x="989" y="841" on="0"/>
        <pt x="888" y="964" on="0"/>
        <pt x="726" y="1035" on="0"/>
        <pt x="609" y="1035" on="1"/>
        <pt x="380" y="1035" on="1"/>
      </contour>
    </TTGlyph>
    <TTGlyph name="E" xMin="60" yMin="0" xMax="1031" yMax="1153">
      <contour>
        <pt x="60" y="117" on="1"/>
        <pt x="216" y="117" on="1"/>
        <pt x="216" y="1035" on="1"/>
        <pt x="60" y="1035" on="1"/>
        <pt x="60" y="1153" on="1"/>
        <pt x="1031" y="1153" on="1"/>
        <pt x="1031" y="832" on="1"/>
        <pt x="900" y="832" on="1"/>
        <pt x="900" y="1035" on="1"/>
        <pt x="375" y="1035" on="1"/>
        <pt x="375" y="655" on="1"/>
        <pt x="737" y="655" on="1"/>
        <pt x="737" y="769" on="1"/>
        <pt x="837" y="769" on="1"/>
        <pt x="837" y="410" on="1"/>
        <pt x="736" y="410" on="1"/>
        <pt x="736" y="526" on="1"/>
        <pt x="377" y="526" on="1"/>
        <pt x="377" y="117" on="1"/>
        <pt x="902" y="117" on="1"/>
        <pt x="902" y="328" on="1"/>
        <pt x="1031" y="328" on="1"/>
        <pt x="1031" y="0" on="1"/>
        <pt x="60" y="0" on="1"/>
      </contour>
    </TTGlyph>
    <TTGlyph name="Eacute" xMin="60" yMin="0" xMax="1031" yMax="1519">
      <component glyphName="E" x="0" y="0" flags="0x204"/>
      <component glyphName="acute" x="241" y="348" flags="0x4"/>
    </TTGlyph>
    <TTGlyph name="Ecircumflex" xMin="60" yMin="0" xMax="1031" yMax="1519">
      <component glyphName="E" x="0" y="0" flags="0x204"/>
      <component glyphName="circumflex" x="263" y="348" flags="0x4"/>
    </TTGlyph>
    <TTGlyph name="Edieresis" xMin="60" yMin="0" xMax="1031" yMax="1449">
      <component glyphName="E" x="0" y="0" flags="0x204"/>
      <component glyphName="dieresis" x="269" y="348" flags="0x4"/>
    </TTGlyph>
    <TTGlyph name="Egrave" xMin="60" yMin="0" xMax="1031" yMax="1519">
      <component glyphName="E" x="0" y="0" flags="0x204"/>
      <component glyphName="grave" x="301" y="348" flags="0x4"/>
    </TTGlyph>
    <TTGlyph name="Eth" xMin="59" yMin="0" xMax="1199" yMax="1153">
      <contour>
        <pt x="59" y="125" on="1"/>
        <pt x="218" y="125" on="1"/>
        <pt x="218" y="506" on="1"/>
        <pt x="61" y="506" on="1"/>
        <pt x="61" y="650" on="1"/>
        <pt x="218" y="650" on="1"/>
        <pt x="218" y="1026" on="1"/>
        <pt x="59" y="1026" on="1"/>
        <pt x="59" y="1153" on="1"/>
        <pt x="613" y="1153" on="1"/>
        <pt x="727" y="1153" on="0"/>
        <pt x="903" y="1107" on="0"/>
        <pt x="1033" y="1026" on="0"/>
        <pt x="1122" y="917" on="0"/>
        <pt x="1176" y="791" on="0"/>
        <pt x="1199" y="654" on="0"/>
        <pt x="1199" y="587" on="1"/>
        <pt x="1199" y="454" on="0"/>
        <pt x="1132" y="238" on="0"/>
        <pt x="988" y="84" on="0"/>
        <pt x="760" y="0" on="0"/>
        <pt x="599" y="0" on="1"/>
        <pt x="59" y="0" on="1"/>
      </contour>
      <contour>
        <pt x="380" y="650" on="1"/>
        <pt x="578" y="650" on="1"/>
        <pt x="578" y="506" on="1"/>
        <pt x="380" y="506" on="1"/>
        <pt x="380" y="125" on="1"/>
        <pt x="605" y="125" on="1"/>
        <pt x="731" y="125" on="0"/>
        <pt x="897" y="198" on="0"/>
        <pt x="994" y="323" on="0"/>
        <pt x="1034" y="488" on="0"/>
        <pt x="1034" y="581" on="1"/>
        <pt x="1034" y="676" on="0"/>
        <pt x="989" y="839" on="0"/>
        <pt x="888" y="958" on="0"/>
        <pt x="726" y="1026" on="0"/>
        <pt x="609" y="1026" on="1"/>
        <pt x="380" y="1026" on="1"/>
      </contour>
    </TTGlyph>
    <TTGlyph name="Euro" xMin="30" yMin="-19" xMax="1058" yMax="1171">
      <contour>
        <pt x="169" y="544" on="1"/>
        <pt x="169" y="575" on="1"/>
        <pt x="169" y="596" on="0"/>
        <pt x="171" y="637" on="0"/>
        <pt x="173" y="658" on="1"/>
        <pt x="30" y="658" on="1"/>
        <pt x="30" y="771" on="1"/>
        <pt x="192" y="771" on="1"/>
        <pt x="212" y="855" on="0"/>
        <pt x="288" y="1001" on="0"/>
        <pt x="398" y="1109" on="0"/>
        <pt x="542" y="1171" on="0"/>
        <pt x="630" y="1171" on="1"/>
        <pt x="683" y="1171" on="0"/>
        <pt x="767" y="1147" on="0"/>
        <pt x="831" y="1109" on="0"/>
        <pt x="879" y="1064" on="0"/>
        <pt x="897" y="1042" on="1"/>
        <pt x="897" y="1153" on="1"/>
        <pt x="1027" y="1153" on="1"/>
        <pt x="1027" y="804" on="1"/>
        <pt x="902" y="804" on="1"/>
        <pt x="864" y="922" on="0"/>
        <pt x="736" y="1035" on="0"/>
        <pt x="648" y="1035" on="1"/>
        <pt x="595" y="1035" on="0"/>
        <pt x="506" y="997" on="0"/>
        <pt x="436" y="928" on="0"/>
        <pt x="384" y="831" on="0"/>
        <pt x="369" y="771" on="1"/>
        <pt x="618" y="771" on="1"/>
        <pt x="618" y="658" on="1"/>
        <pt x="349" y="658" on="1"/>
        <pt x="346" y="620" on="0"/>
        <pt x="346" y="580" on="1"/>
        <pt x="346" y="544" on="1"/>
        <pt x="618" y="544" on="1"/>
        <pt x="618" y="430" on="1"/>
        <pt x="357" y="430" on="1"/>
        <pt x="368" y="361" on="0"/>
        <pt x="413" y="246" on="0"/>
        <pt x="485" y="163" on="0"/>
        <pt x="586" y="117" on="0"/>
        <pt x="654" y="117" on="1"/>
        <pt x="697" y="117" on="0"/>
        <pt x="781" y="143" on="0"/>
        <pt x="853" y="205" on="0"/>
        <pt x="908" y="304" on="0"/>
        <pt x="923" y="378" on="1"/>
        <pt x="1058" y="307" on="1"/>
        <pt x="1026" y="208" on="0"/>
        <pt x="930" y="82" on="0"/>
        <pt x="818" y="9" on="0"/>
        <pt x="698" y="-19" on="0"/>
        <pt x="643" y="-19" on="1"/>
        <pt x="549" y="-19" on="0"/>
        <pt x="393" y="45" on="0"/>
        <pt x="274" y="162" on="0"/>
        <pt x="196" y="328" on="0"/>
        <pt x="180" y="430" on="1"/>
        <pt x="30" y="430" on="1"/>
        <pt x="30" y="544" on="1"/>
      </contour>
    </TTGlyph>
    <TTGlyph name="F" xMin="62" yMin="0" xMax="979" yMax="1153">
      <contour>
        <pt x="375" y="528" on="1"/>
        <pt x="375" y="117" on="1"/>
        <pt x="531" y="117" on="1"/>
        <pt x="531" y="0" on="1"/>
        <pt x="62" y="0" on="1"/>
        <pt x="62" y="117" on="1"/>
        <pt x="214" y="117" on="1"/>
        <pt x="214" y="1035" on="1"/>
        <pt x="62" y="1035" on="1"/>
        <pt x="62" y="1153" on="1"/>
        <pt x="979" y="1153" on="1"/>
        <pt x="979" y="832" on="1"/>
        <pt x="847" y="832" on="1"/>
        <pt x="847" y="1035" on="1"/>
        <pt x="374" y="1035" on="1"/>
        <pt x="374" y="657" on="1"/>
        <pt x="688" y="657" on="1"/>
        <pt x="688" y="771" on="1"/>
        <pt x="788" y="771" on="1"/>
        <pt x="788" y="412" on="1"/>
        <pt x="687" y="412" on="1"/>
        <pt x="687" y="528" on="1"/>
      </contour>
    </TTGlyph>
    <TTGlyph name="G" xMin="67" yMin="-18" xMax="1239" yMax="1171">
      <contour>
        <pt x="653" y="1171" on="1"/>
        <pt x="778" y="1171" on="0"/>
        <pt x="974" y="1088" on="0"/>
        <pt x="1040" y="1022" on="1"/>
        <pt x="1040" y="1153" on="1"/>
        <pt x="1170" y="1153" on="1"/>
        <pt x="1170" y="804" on="1"/>
        <pt x="1046" y="804" on="1"/>
        <pt x="986" y="922" on="0"/>
        <pt x="790" y="1035" on="0"/>
        <pt x="662" y="1035" on="1"/>
        <pt x="562" y="1035" on="0"/>
        <pt x="407" y="967" on="0"/>
        <pt x="300" y="845" on="0"/>
        <pt x="245" y="678" on="0"/>
        <pt x="245" y="579" on="1"/>
        <pt x="245" y="480" on="0"/>
        <pt x="300" y="311" on="0"/>
        <pt x="409" y="187" on="0"/>
        <pt x="570" y="117" on="0"/>
        <pt x="677" y="117" on="1"/>
        <pt x="776" y="117" on="0"/>
        <pt x="916" y="159" on="0"/>
        <pt x="1006" y="240" on="0"/>
        <pt x="1053" y="359" on="0"/>
        <pt x="1059" y="436" on="1"/>
        <pt x="832" y="436" on="1"/>
        <pt x="832" y="563" on="1"/>
        <pt x="1239" y="563" on="1"/>
        <pt x="1236" y="405" on="0"/>
        <pt x="1148" y="185" on="0"/>
        <pt x="997" y="45" on="0"/>
        <pt x="794" y="-18" on="0"/>
        <pt x="676" y="-18" on="1"/>
        <pt x="551" y="-18" on="0"/>
        <pt x="364" y="39" on="0"/>
        <pt x="229" y="134" on="0"/>
        <pt x="140" y="257" on="0"/>
        <pt x="88" y="390" on="0"/>
        <pt x="67" y="523" on="0"/>
        <pt x="67" y="580" on="1"/>
        <pt x="67" y="646" on="0"/>
        <pt x="93" y="785" on="0"/>
        <pt x="151" y="917" on="0"/>
        <pt x="242" y="1033" on="0"/>
        <pt x="372" y="1120" on="0"/>
        <pt x="544" y="1171" on="0"/>
      </contour>
    </TTGlyph>
    <TTGlyph name="H" xMin="72" yMin="0" xMax="1222" yMax="1153">
      <contour>
        <pt x="72" y="117" on="1"/>
        <pt x="211" y="117" on="1"/>
        <pt x="211" y="1035" on="1"/>
        <pt x="72" y="1035" on="1"/>
        <pt x="72" y="1153" on="1"/>
        <pt x="515" y="1153" on="1"/>
        <pt x="515" y="1035" on="1"/>
        <pt x="371" y="1035" on="1"/>
        <pt x="371" y="667" on="1"/>
        <pt x="922" y="667" on="1"/>
        <pt x="922" y="1035" on="1"/>
        <pt x="780" y="1035" on="1"/>
        <pt x="780" y="1153" on="1"/>
        <pt x="1222" y="1153" on="1"/>
        <pt x="1222" y="1035" on="1"/>
        <pt x="1083" y="1035" on="1"/>
        <pt x="1083" y="117" on="1"/>
        <pt x="1222" y="117" on="1"/>
        <pt x="1222" y="0" on="1"/>
        <pt x="780" y="0" on="1"/>
        <pt x="780" y="117" on="1"/>
        <pt x="923" y="117" on="1"/>
        <pt x="923" y="538" on="1"/>
        <pt x="372" y="538" on="1"/>
        <pt x="372" y="117" on="1"/>
        <pt x="515" y="117" on="1"/>
        <pt x="515" y="0" on="1"/>
        <pt x="72" y="0" on="1"/>
      </contour>
    </TTGlyph>
    <TTGlyph name="I" xMin="75" yMin="0" xMax="503" yMax="1153">
      <contour>
        <pt x="75" y="117" on="1"/>
        <pt x="209" y="117" on="1"/>
        <pt x="209" y="1035" on="1"/>
        <pt x="75" y="1035" on="1"/>
        <pt x="75" y="1153" on="1"/>
        <pt x="503" y="1153" on="1"/>
        <pt x="503" y="1035" on="1"/>
        <pt x="371" y="1035" on="1"/>
        <pt x="371" y="117" on="1"/>
        <pt x="503" y="117" on="1"/>
        <pt x="503" y="0" on="1"/>
        <pt x="75" y="0" on="1"/>
      </contour>
    </TTGlyph>
    <TTGlyph name="IJ" xMin="75" yMin="-210" xMax="1094" yMax="1153">
      <component glyphName="I" x="0" y="0" flags="0x4"/>
      <component glyphName="J" x="581" y="0" flags="0x4"/>
    </TTGlyph>
    <TTGlyph name="Iacute" xMin="75" yMin="0" xMax="503" yMax="1519">
      <component glyphName="I" x="0" y="0" flags="0x204"/>
      <component glyphName="acute" x="-26" y="348" flags="0x4"/>
    </TTGlyph>
    <TTGlyph name="Icircumflex" xMin="53" yMin="0" xMax="530" yMax="1519">
      <component glyphName="I" x="0" y="0" flags="0x204"/>
      <component glyphName="circumflex" x="-5" y="348" flags="0x4"/>
    </TTGlyph>
    <TTGlyph name="Idieresis" xMin="58" yMin="0" xMax="523" yMax="1449">
      <component glyphName="I" x="0" y="0" flags="0x204"/>
      <component glyphName="dieresis" x="0" y="348" flags="0x4"/>
    </TTGlyph>
    <TTGlyph name="Igrave" xMin="75" yMin="0" xMax="503" yMax="1519">
      <component glyphName="I" x="0" y="0" flags="0x204"/>
      <component glyphName="grave" x="32" y="348" flags="0x4"/>
    </TTGlyph>
    <TTGlyph name="Itilde" xMin="-13" yMin="0" xMax="596" yMax="1537">
      <component glyphName="I" x="0" y="0" flags="0x204"/>
      <component glyphName="tilde" x="-2" y="348" flags="0x4"/>
    </TTGlyph>
    <TTGlyph name="J" xMin="-64" yMin="-210" xMax="513" yMax="1153">
      <contour>
        <pt x="-64" y="-61" on="1"/>
        <pt x="-41" y="-63" on="0"/>
        <pt x="16" y="-65" on="0"/>
        <pt x="56" y="-65" on="1"/>
        <pt x="134" y="-65" on="0"/>
        <pt x="197" y="14" on="0"/>
        <pt x="197" y="96" on="1"/>
        <pt x="197" y="1035" on="1"/>
        <pt x="42" y="1035" on="1"/>
        <pt x="42" y="1153" on="1"/>
        <pt x="513" y="1153" on="1"/>
        <pt x="513" y="1035" on="1"/>
        <pt x="360" y="1035" on="1"/>
        <pt x="360" y="78" on="1"/>
        <pt x="360" y="-6" on="0"/>
        <pt x="310" y="-117" on="0"/>
        <pt x="230" y="-183" on="0"/>
        <pt x="131" y="-210" on="0"/>
        <pt x="83" y="-210" on="1"/>
        <pt x="46" y="-210" on="0"/>
        <pt x="-34" y="-201" on="0"/>
        <pt x="-64" y="-194" on="1"/>
      </contour>
    </TTGlyph>
    <TTGlyph name="Jcircumflex" xMin="-64" yMin="-210" xMax="517" yMax="1552">
      <component glyphName="circumflex.cap" x="-18" y="381" flags="0x4"/>
      <component glyphName="J" x="0" y="0" flags="0x4"/>
    </TTGlyph>
    <TTGlyph name="K" xMin="64" yMin="0" xMax="1121" yMax="1153">
      <contour>
        <pt x="655" y="117" on="1"/>
        <pt x="783" y="117" on="1"/>
        <pt x="375" y="587" on="1"/>
        <pt x="375" y="117" on="1"/>
        <pt x="514" y="117" on="1"/>
        <pt x="514" y="0" on="1"/>
        <pt x="64" y="0" on="1"/>
        <pt x="64" y="117" on="1"/>
        <pt x="214" y="117" on="1"/>
        <pt x="214" y="1035" on="1"/>
        <pt x="64" y="1035" on="1"/>
        <pt x="64" y="1153" on="1"/>
        <pt x="530" y="1153" on="1"/>
        <pt x="530" y="1035" on="1"/>
        <pt x="374" y="1035" on="1"/>
        <pt x="374" y="618" on="1"/>
        <pt x="795" y="1035" on="1"/>
        <pt x="659" y="1035" on="1"/>
        <pt x="659" y="1153" on="1"/>
        <pt x="1110" y="1153" on="1"/>
        <pt x="1110" y="1035" on="1"/>
        <pt x="981" y="1035" on="1"/>
        <pt x="560" y="605" on="1"/>
        <pt x="990" y="117" on="1"/>
        <pt x="1121" y="117" on="1"/>
        <pt x="1121" y="0" on="1"/>
        <pt x="655" y="0" on="1"/>
      </contour>
    </TTGlyph>
    <TTGlyph name="L" xMin="59" yMin="0" xMax="933" yMax="1153">
      <contour>
        <pt x="59" y="117" on="1"/>
        <pt x="217" y="117" on="1"/>
        <pt x="217" y="1035" on="1"/>
        <pt x="59" y="1035" on="1"/>
        <pt x="59" y="1153" on="1"/>
        <pt x="533" y="1153" on="1"/>
        <pt x="533" y="1035" on="1"/>
        <pt x="378" y="1035" on="1"/>
        <pt x="378" y="117" on="1"/>
        <pt x="788" y="117" on="1"/>
        <pt x="788" y="452" on="1"/>
        <pt x="933" y="452" on="1"/>
        <pt x="933" y="0" on="1"/>
        <pt x="59" y="0" on="1"/>
      </contour>
    </TTGlyph>
    <TTGlyph name="Lslash" xMin="59" yMin="0" xMax="933" yMax="1153">
      <contour>
        <pt x="59" y="125" on="1"/>
        <pt x="217" y="125" on="1"/>
        <pt x="217" y="512" on="1"/>
        <pt x="60" y="450" on="1"/>
        <pt x="60" y="579" on="1"/>
        <pt x="217" y="641" on="1"/>
        <pt x="217" y="1026" on="1"/>
        <pt x="59" y="1026" on="1"/>
        <pt x="59" y="1153" on="1"/>
        <pt x="533" y="1153" on="1"/>
        <pt x="533" y="1026" on="1"/>
        <pt x="378" y="1026" on="1"/>
        <pt x="378" y="705" on="1"/>
        <pt x="627" y="805" on="1"/>
        <pt x="627" y="676" on="1"/>
        <pt x="378" y="576" on="1"/>
        <pt x="378" y="125" on="1"/>
        <pt x="788" y="125" on="1"/>
        <pt x="788" y="482" on="1"/>
        <pt x="933" y="482" on="1"/>
        <pt x="933" y="0" on="1"/>
        <pt x="59" y="0" on="1"/>
      </contour>
    </TTGlyph>
    <TTGlyph name="M" xMin="65" yMin="0" xMax="1511" yMax="1153">
      <contour>
        <pt x="213" y="1035" on="1"/>
        <pt x="65" y="1035" on="1"/>
        <pt x="65" y="1153" on="1"/>
        <pt x="450" y="1153" on="1"/>
        <pt x="618" y="736" on="1"/>
        <pt x="783" y="317" on="1"/>
        <pt x="1121" y="1153" on="1"/>
        <pt x="1511" y="1153" on="1"/>
        <pt x="1511" y="1035" on="1"/>
        <pt x="1364" y="1035" on="1"/>
        <pt x="1364" y="117" on="1"/>
        <pt x="1511" y="117" on="1"/>
        <pt x="1511" y="0" on="1"/>
        <pt x="1083" y="0" on="1"/>
        <pt x="1083" y="117" on="1"/>
        <pt x="1216" y="117" on="1"/>
        <pt x="1216" y="1023" on="1"/>
        <pt x="801" y="0" on="1"/>
        <pt x="759" y="0" on="1"/>
        <pt x="347" y="1022" on="1"/>
        <pt x="347" y="117" on="1"/>
        <pt x="480" y="117" on="1"/>
        <pt x="480" y="0" on="1"/>
        <pt x="65" y="0" on="1"/>
        <pt x="65" y="117" on="1"/>
        <pt x="213" y="117" on="1"/>
      </contour>
    </TTGlyph>
    <TTGlyph name="N" xMin="56" yMin="0" xMax="1293" yMax="1153">
      <contour>
        <pt x="56" y="117" on="1"/>
        <pt x="225" y="117" on="1"/>
        <pt x="225" y="1035" on="1"/>
        <pt x="56" y="1035" on="1"/>
        <pt x="56" y="1153" on="1"/>
        <pt x="438" y="1153" on="1"/>
        <pt x="986" y="211" on="1"/>
        <pt x="986" y="1035" on="1"/>
        <pt x="821" y="1035" on="1"/>
        <pt x="821" y="1153" on="1"/>
        <pt x="1293" y="1153" on="1"/>
        <pt x="1293" y="1035" on="1"/>
        <pt x="1120" y="1035" on="1"/>
        <pt x="1120" y="0" on="1"/>
        <pt x="937" y="0" on="1"/>
        <pt x="359" y="997" on="1"/>
        <pt x="359" y="117" on="1"/>
        <pt x="528" y="117" on="1"/>
        <pt x="528" y="0" on="1"/>
        <pt x="56" y="0" on="1"/>
      </contour>
    </TTGlyph>
    <TTGlyph name="Nacute" xMin="56" yMin="0" xMax="1293" yMax="1519">
      <component glyphName="N" x="0" y="0" flags="0x204"/>
      <component glyphName="acute" x="343" y="348" flags="0x4"/>
    </TTGlyph>
    <TTGlyph name="Ntilde" xMin="56" yMin="0" xMax="1293" yMax="1537">
      <component glyphName="N" x="0" y="0" flags="0x204"/>
      <component glyphName="tilde" x="367" y="348" flags="0x4"/>
    </TTGlyph>
    <TTGlyph name="O" xMin="66" yMin="-19" xMax="1256" yMax="1171">
      <contour>
        <pt x="66" y="575" on="1"/>
        <pt x="66" y="700" on="0"/>
        <pt x="148" y="918" on="0"/>
        <pt x="301" y="1079" on="0"/>
        <pt x="522" y="1171" on="0"/>
        <pt x="660" y="1171" on="1"/>
        <pt x="799" y="1171" on="0"/>
        <pt x="1020" y="1078" on="0"/>
        <pt x="1174" y="917" on="0"/>
        <pt x="1256" y="699" on="0"/>
        <pt x="1256" y="575" on="1"/>
        <pt x="1256" y="451" on="0"/>
        <pt x="1174" y="234" on="0"/>
        <pt x="1020" y="74" on="0"/>
        <pt x="799" y="-19" on="0"/>
        <pt x="660" y="-19" on="1"/>
        <pt x="521" y="-19" on="0"/>
        <pt x="301" y="73" on="0"/>
        <pt x="148" y="234" on="0"/>
        <pt x="66" y="450" on="0"/>
      </contour>
      <contour>
        <pt x="243" y="575" on="1"/>
        <pt x="243" y="480" on="0"/>
        <pt x="302" y="314" on="0"/>
        <pt x="412" y="189" on="0"/>
        <pt x="565" y="117" on="0"/>
        <pt x="660" y="117" on="1"/>
        <pt x="755" y="117" on="0"/>
        <pt x="910" y="189" on="0"/>
        <pt x="1019" y="314" on="0"/>
        <pt x="1078" y="480" on="0"/>
        <pt x="1078" y="575" on="1"/>
        <pt x="1078" y="671" on="0"/>
        <pt x="1019" y="839" on="0"/>
        <pt x="910" y="964" on="0"/>
        <pt x="755" y="1035" on="0"/>
        <pt x="660" y="1035" on="1"/>
        <pt x="565" y="1035" on="0"/>
        <pt x="412" y="964" on="0"/>
        <pt x="302" y="839" on="0"/>
        <pt x="243" y="671" on="0"/>
      </contour>
    </TTGlyph>
    <TTGlyph name="OE" xMin="67" yMin="-19" xMax="1832" yMax="1171">
      <contour>
        <pt x="1832" y="1153" on="1"/>
        <pt x="1832" y="832" on="1"/>
        <pt x="1700" y="832" on="1"/>
        <pt x="1700" y="1026" on="1"/>
        <pt x="1176" y="1026" on="1"/>
        <pt x="1176" y="655" on="1"/>
        <pt x="1538" y="655" on="1"/>
        <pt x="1551" y="769" on="1"/>
        <pt x="1638" y="769" on="1"/>
        <pt x="1638" y="410" on="1"/>
        <pt x="1550" y="410" on="1"/>
        <pt x="1537" y="526" on="1"/>
        <pt x="1178" y="526" on="1"/>
        <pt x="1178" y="127" on="1"/>
        <pt x="1703" y="127" on="1"/>
        <pt x="1703" y="328" on="1"/>
        <pt x="1832" y="328" on="1"/>
        <pt x="1832" y="0" on="1"/>
        <pt x="1017" y="0" on="1"/>
        <pt x="1017" y="95" on="1"/>
        <pt x="948" y="41" on="0"/>
        <pt x="757" y="-19" on="0"/>
        <pt x="636" y="-19" on="1"/>
        <pt x="503" y="-19" on="0"/>
        <pt x="292" y="73" on="0"/>
        <pt x="145" y="234" on="0"/>
        <pt x="67" y="450" on="0"/>
        <pt x="67" y="575" on="1"/>
        <pt x="67" y="700" on="0"/>
        <pt x="145" y="918" on="0"/>
        <pt x="292" y="1079" on="0"/>
        <pt x="503" y="1171" on="0"/>
        <pt x="636" y="1171" on="1"/>
        <pt x="757" y="1171" on="0"/>
        <pt x="948" y="1111" on="0"/>
        <pt x="1017" y="1057" on="1"/>
        <pt x="1017" y="1153" on="1"/>
      </contour>
      <contour>
        <pt x="245" y="575" on="1"/>
        <pt x="245" y="458" on="0"/>
        <pt x="316" y="287" on="0"/>
        <pt x="434" y="176" on="0"/>
        <pt x="590" y="122" on="0"/>
        <pt x="674" y="122" on="1"/>
        <pt x="762" y="122" on="0"/>
        <pt x="939" y="178" on="0"/>
        <pt x="1017" y="235" on="1"/>
        <pt x="1017" y="933" on="1"/>
        <pt x="929" y="987" on="0"/>
        <pt x="751" y="1040" on="0"/>
        <pt x="663" y="1040" on="1"/>
        <pt x="577" y="1040" on="0"/>
        <pt x="425" y="984" on="0"/>
        <pt x="311" y="869" on="0"/>
        <pt x="245" y="694" on="0"/>
      </contour>
    </TTGlyph>
    <TTGlyph name="Oacute" xMin="66" yMin="-19" xMax="1256" yMax="1519">
      <component glyphName="O" x="0" y="0" flags="0x204"/>
      <component glyphName="acute" x="342" y="348" flags="0x4"/>
    </TTGlyph>
    <TTGlyph name="Ocircumflex" xMin="66" yMin="-19" xMax="1256" yMax="1519">
      <component glyphName="O" x="0" y="0" flags="0x204"/>
      <component glyphName="circumflex" x="364" y="348" flags="0x4"/>
    </TTGlyph>
    <TTGlyph name="Odieresis" xMin="66" yMin="-19" xMax="1256" yMax="1449">
      <component glyphName="O" x="0" y="0" flags="0x204"/>
      <component glyphName="dieresis" x="370" y="348" flags="0x4"/>
    </TTGlyph>
    <TTGlyph name="Ograve" xMin="66" yMin="-19" xMax="1256" yMax="1519">
      <component glyphName="O" x="0" y="0" flags="0x204"/>
      <component glyphName="grave" x="402" y="348" flags="0x4"/>
    </TTGlyph>
    <TTGlyph name="Oslash" xMin="65" yMin="-92" xMax="1255" yMax="1235">
      <contour>
        <pt x="65" y="575" on="1"/>
        <pt x="65" y="700" on="0"/>
        <pt x="147" y="918" on="0"/>
        <pt x="300" y="1079" on="0"/>
        <pt x="521" y="1171" on="0"/>
        <pt x="659" y="1171" on="1"/>
        <pt x="784" y="1171" on="0"/>
        <pt x="893" y="1130" on="1"/>
        <pt x="947" y="1235" on="1"/>
        <pt x="1041" y="1192" on="1"/>
        <pt x="987" y="1084" on="1"/>
        <pt x="1050" y="1045" on="0"/>
        <pt x="1150" y="938" on="0"/>
        <pt x="1219" y="807" on="0"/>
        <pt x="1255" y="656" on="0"/>
        <pt x="1255" y="575" on="1"/>
        <pt x="1255" y="451" on="0"/>
        <pt x="1173" y="234" on="0"/>
        <pt x="1019" y="74" on="0"/>
        <pt x="798" y="-19" on="0"/>
        <pt x="659" y="-19" on="1"/>
        <pt x="536" y="-19" on="0"/>
        <pt x="444" y="15" on="1"/>
        <pt x="389" y="-92" on="1"/>
        <pt x="295" y="-49" on="1"/>
        <pt x="348" y="57" on="1"/>
        <pt x="280" y="94" on="0"/>
        <pt x="175" y="202" on="0"/>
        <pt x="103" y="336" on="0"/>
        <pt x="65" y="491" on="0"/>
      </contour>
      <contour>
        <pt x="242" y="575" on="1"/>
        <pt x="242" y="454" on="0"/>
        <pt x="333" y="257" on="0"/>
        <pt x="418" y="194" on="1"/>
        <pt x="828" y="1002" on="1"/>
        <pt x="756" y="1036" on="0"/>
        <pt x="659" y="1036" on="1"/>
        <pt x="564" y="1036" on="0"/>
        <pt x="411" y="964" on="0"/>
        <pt x="301" y="840" on="0"/>
        <pt x="242" y="671" on="0"/>
      </contour>
      <contour>
        <pt x="1077" y="575" on="1"/>
        <pt x="1077" y="690" on="0"/>
        <pt x="993" y="884" on="0"/>
        <pt x="917" y="947" on="1"/>
        <pt x="509" y="144" on="1"/>
        <pt x="582" y="118" on="0"/>
        <pt x="659" y="118" on="1"/>
        <pt x="754" y="118" on="0"/>
        <pt x="909" y="190" on="0"/>
        <pt x="1018" y="314" on="0"/>
        <pt x="1077" y="480" on="0"/>
      </contour>
    </TTGlyph>
    <TTGlyph name="Otilde" xMin="66" yMin="-19" xMax="1256" yMax="1537">
      <component glyphName="O" x="0" y="0" flags="0x204"/>
      <component glyphName="tilde" x="367" y="348" flags="0x4"/>
    </TTGlyph>
    <TTGlyph name="P" xMin="63" yMin="0" xMax="992" yMax="1153">
      <contour>
        <pt x="63" y="117" on="1"/>
        <pt x="214" y="117" on="1"/>
        <pt x="214" y="1035" on="1"/>
        <pt x="63" y="1035" on="1"/>
        <pt x="63" y="1153" on="1"/>
        <pt x="596" y="1153" on="1"/>
        <pt x="716" y="1153" on="0"/>
        <pt x="869" y="1088" on="0"/>
        <pt x="958" y="987" on="0"/>
        <pt x="992" y="863" on="0"/>
        <pt x="992" y="805" on="1"/>
        <pt x="992" y="705" on="0"/>
        <pt x="922" y="576" on="0"/>
        <pt x="797" y="501" on="0"/>
        <pt x="624" y="472" on="0"/>
        <pt x="522" y="472" on="1"/>
        <pt x="376" y="472" on="1"/>
        <pt x="376" y="117" on="1"/>
        <pt x="534" y="117" on="1"/>
        <pt x="534" y="0" on="1"/>
        <pt x="63" y="0" on="1"/>
      </contour>
      <contour>
        <pt x="374" y="577" on="1"/>
        <pt x="552" y="577" on="1"/>
        <pt x="633" y="577" on="0"/>
        <pt x="740" y="612" on="0"/>
        <pt x="802" y="674" on="0"/>
        <pt x="827" y="758" on="0"/>
        <pt x="827" y="807" on="1"/>
        <pt x="827" y="916" on="0"/>
        <pt x="710" y="1035" on="0"/>
        <pt x="601" y="1035" on="1"/>
        <pt x="374" y="1035" on="1"/>
      </contour>
    </TTGlyph>
    <TTGlyph name="Q" xMin="67" yMin="-231" xMax="1257" yMax="1171">
      <contour>
        <pt x="67" y="575" on="1"/>
        <pt x="67" y="700" on="0"/>
        <pt x="149" y="918" on="0"/>
        <pt x="302" y="1079" on="0"/>
        <pt x="523" y="1171" on="0"/>
        <pt x="661" y="1171" on="1"/>
        <pt x="800" y="1171" on="0"/>
        <pt x="1021" y="1078" on="0"/>
        <pt x="1175" y="917" on="0"/>
        <pt x="1257" y="699" on="0"/>
        <pt x="1257" y="575" on="1"/>
        <pt x="1257" y="462" on="0"/>
        <pt x="1184" y="262" on="0"/>
        <pt x="1047" y="108" on="0"/>
        <pt x="850" y="8" on="0"/>
        <pt x="726" y="-5" on="1"/>
        <pt x="760" y="-15" on="0"/>
        <pt x="830" y="-41" on="0"/>
        <pt x="903" y="-65" on="0"/>
        <pt x="977" y="-81" on="0"/>
        <pt x="1014" y="-81" on="1"/>
        <pt x="1034" y="-81" on="0"/>
        <pt x="1071" y="-76" on="0"/>
        <pt x="1090" y="-70" on="1"/>
        <pt x="1091" y="-218" on="1"/>
        <pt x="1045" y="-231" on="0"/>
        <pt x="996" y="-231" on="1"/>
        <pt x="959" y="-231" on="0"/>
        <pt x="892" y="-216" on="0"/>
        <pt x="829" y="-194" on="0"/>
        <pt x="766" y="-167" on="0"/>
        <pt x="698" y="-145" on="0"/>
        <pt x="624" y="-130" on="0"/>
        <pt x="581" y="-130" on="1"/>
        <pt x="505" y="-130" on="0"/>
        <pt x="376" y="-158" on="0"/>
        <pt x="319" y="-183" on="1"/>
        <pt x="318" y="-46" on="1"/>
        <pt x="378" y="-15" on="0"/>
        <pt x="473" y="9" on="0"/>
        <pt x="513" y="9" on="1"/>
        <pt x="408" y="33" on="0"/>
        <pt x="242" y="139" on="0"/>
        <pt x="127" y="287" on="0"/>
        <pt x="67" y="472" on="0"/>
      </contour>
      <contour>
        <pt x="244" y="575" on="1"/>
        <pt x="244" y="477" on="0"/>
        <pt x="303" y="310" on="0"/>
        <pt x="413" y="187" on="0"/>
        <pt x="566" y="117" on="0"/>
        <pt x="661" y="117" on="1"/>
        <pt x="756" y="117" on="0"/>
        <pt x="911" y="187" on="0"/>
        <pt x="1020" y="310" on="0"/>
        <pt x="1079" y="477" on="0"/>
        <pt x="1079" y="575" on="1"/>
        <pt x="1079" y="671" on="0"/>
        <pt x="1020" y="839" on="0"/>
        <pt x="911" y="964" on="0"/>
        <pt x="756" y="1035" on="0"/>
        <pt x="661" y="1035" on="1"/>
        <pt x="566" y="1035" on="0"/>
        <pt x="413" y="964" on="0"/>
        <pt x="303" y="839" on="0"/>
        <pt x="244" y="671" on="0"/>
      </contour>
    </TTGlyph>
    <TTGlyph name="R" xMin="57" yMin="0" xMax="1109" yMax="1153">
      <contour>
        <pt x="57" y="117" on="1"/>
        <pt x="220" y="117" on="1"/>
        <pt x="220" y="1035" on="1"/>
        <pt x="57" y="1035" on="1"/>
        <pt x="57" y="1153" on="1"/>
        <pt x="608" y="1153" on="1"/>
        <pt x="707" y="1153" on="0"/>
        <pt x="850" y="1110" on="0"/>
        <pt x="943" y="1032" on="0"/>
        <pt x="988" y="922" on="0"/>
        <pt x="988" y="855" on="1"/>
        <pt x="988" y="737" on="0"/>
        <pt x="862" y="584" on="0"/>
        <pt x="729" y="558" on="1"/>
        <pt x="963" y="117" on="1"/>
        <pt x="1109" y="117" on="1"/>
        <pt x="1109" y="0" on="1"/>
        <pt x="856" y="0" on="1"/>
        <pt x="573" y="538" on="1"/>
        <pt x="380" y="538" on="1"/>
        <pt x="380" y="117" on="1"/>
        <pt x="536" y="117" on="1"/>
        <pt x="536" y="0" on="1"/>
        <pt x="57" y="0" on="1"/>
      </contour>
      <contour>
        <pt x="603" y="657" on="1"/>
        <pt x="668" y="657" on="0"/>
        <pt x="753" y="692" on="0"/>
        <pt x="803" y="748" on="0"/>
        <pt x="823" y="819" on="0"/>
        <pt x="823" y="855" on="1"/>
        <pt x="823" y="940" on="0"/>
        <pt x="702" y="1035" on="0"/>
        <pt x="596" y="1035" on="1"/>
        <pt x="380" y="1035" on="1"/>
        <pt x="380" y="657" on="1"/>
      </contour>
    </TTGlyph>
    <TTGlyph name="Racute" xMin="57" yMin="0" xMax="1109" yMax="1519">
      <component glyphName="R" x="0" y="0" flags="0x204"/>
      <component glyphName="acute" x="235" y="348" flags="0x4"/>
    </TTGlyph>
    <TTGlyph name="Rcaron" xMin="57" yMin="0" xMax="1109" yMax="1519">
      <component glyphName="R" x="0" y="0" flags="0x204"/>
      <component glyphName="caron" x="257" y="348" flags="0x4"/>
    </TTGlyph>
    <TTGlyph name="Rcommaaccent" xMin="57" yMin="-594" xMax="1109" yMax="1153">
      <component glyphName="R" x="0" y="0" flags="0x204"/>
      <component glyphName="commaaccent" x="339" y="-705" flags="0x4"/>
    </TTGlyph>
    <TTGlyph name="S" xMin="88" yMin="-18" xMax="910" yMax="1171">
      <contour>
        <pt x="527" y="-18" on="1"/>
        <pt x="357" y="-18" on="0"/>
        <pt x="231" y="87" on="1"/>
        <pt x="231" y="0" on="1"/>
        <pt x="96" y="0" on="1"/>
        <pt x="96" y="387" on="1"/>
        <pt x="231" y="387" on="1"/>
        <pt x="231" y="271" on="1"/>
        <pt x="291" y="193" on="0"/>
        <pt x="429" y="117" on="0"/>
        <pt x="523" y="117" on="1"/>
        <pt x="574" y="117" on="0"/>
        <pt x="656" y="146" on="0"/>
        <pt x="714" y="196" on="0"/>
        <pt x="745" y="264" on="0"/>
        <pt x="745" y="304" on="1"/>
        <pt x="745" y="360" on="0"/>
        <pt x="694" y="433" on="0"/>
        <pt x="606" y="482" on="0"/>
        <pt x="489" y="514" on="0"/>
        <pt x="422" y="530" on="1"/>
        <pt x="354" y="545" on="0"/>
        <pt x="232" y="591" on="0"/>
        <pt x="141" y="666" on="0"/>
        <pt x="88" y="778" on="0"/>
        <pt x="88" y="859" on="1"/>
        <pt x="88" y="936" on="0"/>
        <pt x="144" y="1053" on="0"/>
        <pt x="242" y="1131" on="0"/>
        <pt x="374" y="1171" on="0"/>
        <pt x="449" y="1171" on="1"/>
        <pt x="522" y="1171" on="0"/>
        <pt x="656" y="1124" on="0"/>
        <pt x="713" y="1079" on="1"/>
        <pt x="713" y="1153" on="1"/>
        <pt x="848" y="1153" on="1"/>
        <pt x="848" y="826" on="1"/>
        <pt x="713" y="826" on="1"/>
        <pt x="713" y="908" on="1"/>
        <pt x="667" y="971" on="0"/>
        <pt x="552" y="1035" on="0"/>
        <pt x="470" y="1035" on="1"/>
        <pt x="414" y="1035" on="0"/>
        <pt x="330" y="1009" on="0"/>
        <pt x="273" y="964" on="0"/>
        <pt x="244" y="903" on="0"/>
        <pt x="244" y="867" on="1"/>
        <pt x="244" y="807" on="0"/>
        <pt x="306" y="736" on="0"/>
        <pt x="407" y="693" on="0"/>
        <pt x="534" y="665" on="0"/>
        <pt x="600" y="648" on="1"/>
        <pt x="663" y="631" on="0"/>
        <pt x="775" y="576" on="0"/>
        <pt x="860" y="494" on="0"/>
        <pt x="910" y="381" on="0"/>
        <pt x="910" y="306" on="1"/>
        <pt x="910" y="237" on="0"/>
        <pt x="854" y="118" on="0"/>
        <pt x="754" y="31" on="0"/>
        <pt x="612" y="-18" on="0"/>
      </contour>
    </TTGlyph>
    <TTGlyph name="Scaron" xMin="88" yMin="-18" xMax="910" yMax="1519">
      <component glyphName="S" x="0" y="0" flags="0x204"/>
      <component glyphName="caron" x="189" y="348" flags="0x4"/>
    </TTGlyph>
    <TTGlyph name="T" xMin="43" yMin="0" xMax="990" yMax="1153">
      <contour>
        <pt x="262" y="117" on="1"/>
        <pt x="437" y="117" on="1"/>
        <pt x="437" y="1035" on="1"/>
        <pt x="172" y="1035" on="1"/>
        <pt x="172" y="805" on="1"/>
        <pt x="43" y="805" on="1"/>
        <pt x="43" y="1153" on="1"/>
        <pt x="990" y="1153" on="1"/>
        <pt x="990" y="805" on="1"/>
        <pt x="859" y="805" on="1"/>
        <pt x="859" y="1035" on="1"/>
        <pt x="600" y="1035" on="1"/>
        <pt x="600" y="117" on="1"/>
        <pt x="774" y="117" on="1"/>
        <pt x="774" y="0" on="1"/>
        <pt x="262" y="0" on="1"/>
      </contour>
    </TTGlyph>
    <TTGlyph name="Thorn" xMin="63" yMin="0" xMax="992" yMax="1153">
      <contour>
        <pt x="63" y="125" on="1"/>
        <pt x="214" y="125" on="1"/>
        <pt x="214" y="1026" on="1"/>
        <pt x="63" y="1026" on="1"/>
        <pt x="63" y="1153" on="1"/>
        <pt x="374" y="1153" on="1"/>
        <pt x="374" y="1001" on="1"/>
        <pt x="596" y="1001" on="1"/>
        <pt x="716" y="1001" on="0"/>
        <pt x="869" y="936" on="0"/>
        <pt x="958" y="835" on="0"/>
        <pt x="992" y="711" on="0"/>
        <pt x="992" y="653" on="1"/>
        <pt x="992" y="547" on="0"/>
        <pt x="922" y="410" on="0"/>
        <pt x="797" y="331" on="0"/>
        <pt x="624" y="300" on="0"/>
        <pt x="522" y="300" on="1"/>
        <pt x="376" y="300" on="1"/>
        <pt x="376" y="125" on="1"/>
        <pt x="534" y="125" on="1"/>
        <pt x="534" y="0" on="1"/>
        <pt x="63" y="0" on="1"/>
      </contour>
      <contour>
        <pt x="374" y="425" on="1"/>
        <pt x="552" y="425" on="1"/>
        <pt x="633" y="425" on="0"/>
        <pt x="740" y="460" on="0"/>
        <pt x="802" y="522" on="0"/>
        <pt x="827" y="606" on="0"/>
        <pt x="827" y="655" on="1"/>
        <pt x="827" y="764" on="0"/>
        <pt x="710" y="874" on="0"/>
        <pt x="601" y="874" on="1"/>
        <pt x="374" y="874" on="1"/>
      </contour>
    </TTGlyph>
    <TTGlyph name="U" xMin="34" yMin="-18" xMax="1177" yMax="1153">
      <contour>
        <pt x="34" y="1035" on="1"/>
        <pt x="34" y="1153" on="1"/>
        <pt x="486" y="1153" on="1"/>
        <pt x="486" y="1035" on="1"/>
        <pt x="344" y="1035" on="1"/>
        <pt x="344" y="378" on="1"/>
        <pt x="344" y="314" on="0"/>
        <pt x="371" y="217" on="0"/>
        <pt x="432" y="151" on="0"/>
        <pt x="531" y="117" on="0"/>
        <pt x="602" y="117" on="1"/>
        <pt x="678" y="117" on="0"/>
        <pt x="781" y="153" on="0"/>
        <pt x="842" y="222" on="0"/>
        <pt x="868" y="324" on="0"/>
        <pt x="868" y="389" on="1"/>
        <pt x="868" y="1035" on="1"/>
        <pt x="726" y="1035" on="1"/>
        <pt x="726" y="1153" on="1"/>
        <pt x="1177" y="1153" on="1"/>
        <pt x="1177" y="1035" on="1"/>
        <pt x="1028" y="1035" on="1"/>
        <pt x="1028" y="916" on="0"/>
        <pt x="1029" y="695" on="0"/>
        <pt x="1029" y="518" on="0"/>
        <pt x="1030" y="398" on="0"/>
        <pt x="1030" y="380" on="1"/>
        <pt x="1030" y="272" on="0"/>
        <pt x="963" y="121" on="0"/>
        <pt x="849" y="25" on="0"/>
        <pt x="698" y="-18" on="0"/>
        <pt x="614" y="-18" on="1"/>
        <pt x="480" y="-18" on="0"/>
        <pt x="312" y="50" on="0"/>
        <pt x="217" y="161" on="0"/>
        <pt x="182" y="305" on="0"/>
        <pt x="182" y="382" on="1"/>
        <pt x="182" y="388" on="0"/>
        <pt x="182" y="450" on="0"/>
        <pt x="183" y="543" on="0"/>
        <pt x="183" y="658" on="0"/>
        <pt x="184" y="776" on="0"/>
        <pt x="184" y="886" on="0"/>
        <pt x="184" y="928" on="1"/>
        <pt x="184" y="1035" on="1"/>
      </contour>
    </TTGlyph>
    <TTGlyph name="Uacute" xMin="34" yMin="-18" xMax="1177" yMax="1519">
      <component glyphName="U" x="0" y="0" flags="0x204"/>
      <component glyphName="acute" x="287" y="348" flags="0x4"/>
    </TTGlyph>
    <TTGlyph name="Ucircumflex" xMin="34" yMin="-18" xMax="1177" yMax="1519">
      <component glyphName="U" x="0" y="0" flags="0x204"/>
      <component glyphName="circumflex" x="309" y="348" flags="0x4"/>
    </TTGlyph>
    <TTGlyph name="Udieresis" xMin="34" yMin="-18" xMax="1177" yMax="1449">
      <component glyphName="U" x="0" y="0" flags="0x204"/>
      <component glyphName="dieresis" x="315" y="348" flags="0x4"/>
    </TTGlyph>
    <TTGlyph name="Ugrave" xMin="34" yMin="-18" xMax="1177" yMax="1519">
      <component glyphName="U" x="0" y="0" flags="0x204"/>
      <component glyphName="grave" x="347" y="348" flags="0x4"/>
    </TTGlyph>
    <TTGlyph name="V" xMin="-21" yMin="0" xMax="1226" yMax="1153">
      <contour>
        <pt x="125" y="1035" on="1"/>
        <pt x="-21" y="1035" on="1"/>
        <pt x="-21" y="1153" on="1"/>
        <pt x="434" y="1153" on="1"/>
        <pt x="434" y="1035" on="1"/>
        <pt x="293" y="1035" on="1"/>
        <pt x="610" y="184" on="1"/>
        <pt x="922" y="1035" on="1"/>
        <pt x="781" y="1035" on="1"/>
        <pt x="781" y="1153" on="1"/>
        <pt x="1226" y="1153" on="1"/>
        <pt x="1226" y="1035" on="1"/>
        <pt x="1080" y="1035" on="1"/>
        <pt x="682" y="0" on="1"/>
        <pt x="528" y="0" on="1"/>
      </contour>
    </TTGlyph>
    <TTGlyph name="W" xMin="-20" yMin="-10" xMax="1772" yMax="1153">
      <contour>
        <pt x="125" y="1035" on="1"/>
        <pt x="-20" y="1035" on="1"/>
        <pt x="-20" y="1153" on="1"/>
        <pt x="423" y="1153" on="1"/>
        <pt x="423" y="1035" on="1"/>
        <pt x="279" y="1035" on="1"/>
        <pt x="524" y="210" on="1"/>
        <pt x="647" y="623" on="1"/>
        <pt x="764" y="1035" on="1"/>
        <pt x="624" y="1035" on="1"/>
        <pt x="624" y="1153" on="1"/>
        <pt x="1143" y="1153" on="1"/>
        <pt x="1143" y="1035" on="1"/>
        <pt x="1004" y="1035" on="1"/>
        <pt x="1245" y="210" on="1"/>
        <pt x="1370" y="623" on="1"/>
        <pt x="1489" y="1035" on="1"/>
        <pt x="1345" y="1035" on="1"/>
        <pt x="1345" y="1153" on="1"/>
        <pt x="1772" y="1153" on="1"/>
        <pt x="1772" y="1035" on="1"/>
        <pt x="1630" y="1035" on="1"/>
        <pt x="1320" y="-10" on="1"/>
        <pt x="1162" y="-10" on="1"/>
        <pt x="876" y="928" on="1"/>
        <pt x="594" y="-10" on="1"/>
        <pt x="441" y="-10" on="1"/>
      </contour>
    </TTGlyph>
    <TTGlyph name="X" xMin="18" yMin="0" xMax="1140" yMax="1153">
      <contour>
        <pt x="18" y="117" on="1"/>
        <pt x="179" y="117" on="1"/>
        <pt x="492" y="582" on="1"/>
        <pt x="183" y="1035" on="1"/>
        <pt x="29" y="1035" on="1"/>
        <pt x="29" y="1153" on="1"/>
        <pt x="491" y="1153" on="1"/>
        <pt x="491" y="1035" on="1"/>
        <pt x="356" y="1035" on="1"/>
        <pt x="578" y="705" on="1"/>
        <pt x="804" y="1035" on="1"/>
        <pt x="664" y="1035" on="1"/>
        <pt x="664" y="1153" on="1"/>
        <pt x="1110" y="1153" on="1"/>
        <pt x="1110" y="1035" on="1"/>
        <pt x="959" y="1035" on="1"/>
        <pt x="657" y="595" on="1"/>
        <pt x="985" y="117" on="1"/>
        <pt x="1140" y="117" on="1"/>
        <pt x="1140" y="0" on="1"/>
        <pt x="668" y="0" on="1"/>
        <pt x="668" y="117" on="1"/>
        <pt x="807" y="117" on="1"/>
        <pt x="571" y="470" on="1"/>
        <pt x="335" y="117" on="1"/>
        <pt x="479" y="117" on="1"/>
        <pt x="479" y="0" on="1"/>
        <pt x="18" y="0" on="1"/>
      </contour>
    </TTGlyph>
    <TTGlyph name="Y" xMin="-18" yMin="0" xMax="1145" yMax="1153">
      <contour>
        <pt x="327" y="117" on="1"/>
        <pt x="486" y="117" on="1"/>
        <pt x="486" y="530" on="1"/>
        <pt x="128" y="1035" on="1"/>
        <pt x="-18" y="1035" on="1"/>
        <pt x="-18" y="1153" on="1"/>
        <pt x="454" y="1153" on="1"/>
        <pt x="454" y="1035" on="1"/>
        <pt x="304" y="1035" on="1"/>
        <pt x="578" y="648" on="1"/>
        <pt x="835" y="1035" on="1"/>
        <pt x="685" y="1035" on="1"/>
        <pt x="685" y="1153" on="1"/>
        <pt x="1145" y="1153" on="1"/>
        <pt x="1145" y="1035" on="1"/>
        <pt x="989" y="1035" on="1"/>
        <pt x="646" y="530" on="1"/>
        <pt x="646" y="117" on="1"/>
        <pt x="810" y="117" on="1"/>
        <pt x="810" y="0" on="1"/>
        <pt x="327" y="0" on="1"/>
      </contour>
    </TTGlyph>
    <TTGlyph name="Yacute" xMin="-18" yMin="0" xMax="1145" yMax="1519">
      <component glyphName="Y" x="0" y="0" flags="0x204"/>
      <component glyphName="acute" x="247" y="348" flags="0x4"/>
    </TTGlyph>
    <TTGlyph name="Ydieresis" xMin="-18" yMin="0" xMax="1145" yMax="1449">
      <component glyphName="Y" x="0" y="0" flags="0x204"/>
      <component glyphName="dieresis" x="274" y="348" flags="0x4"/>
    </TTGlyph>
    <TTGlyph name="Z" xMin="62" yMin="0" xMax="934" yMax="1153">
      <contour>
        <pt x="62" y="128" on="1"/>
        <pt x="719" y="1035" on="1"/>
        <pt x="221" y="1035" on="1"/>
        <pt x="221" y="833" on="1"/>
        <pt x="92" y="833" on="1"/>
        <pt x="92" y="1153" on="1"/>
        <pt x="924" y="1153" on="1"/>
        <pt x="924" y="1041" on="1"/>
        <pt x="257" y="117" on="1"/>
        <pt x="805" y="117" on="1"/>
        <pt x="805" y="335" on="1"/>
        <pt x="934" y="335" on="1"/>
        <pt x="934" y="0" on="1"/>
        <pt x="62" y="0" on="1"/>
      </contour>
    </TTGlyph>
    <TTGlyph name="Zcaron" xMin="62" yMin="0" xMax="934" yMax="1519">
      <component glyphName="Z" x="0" y="0" flags="0x204"/>
      <component glyphName="caron" x="208" y="348" flags="0x4"/>
    </TTGlyph>
    <TTGlyph name="a" xMin="55" yMin="-18" xMax="888" yMax="820">
      <contour>
        <pt x="102" y="708" on="1"/>
        <pt x="156" y="762" on="0"/>
        <pt x="316" y="820" on="0"/>
        <pt x="419" y="820" on="1"/>
        <pt x="513" y="820" on="0"/>
        <pt x="639" y="775" on="0"/>
        <pt x="713" y="701" on="0"/>
        <pt x="744" y="605" on="0"/>
        <pt x="744" y="554" on="1"/>
        <pt x="744" y="107" on="1"/>
        <pt x="888" y="107" on="1"/>
        <pt x="888" y="0" on="1"/>
        <pt x="611" y="0" on="1"/>
        <pt x="609" y="83" on="1"/>
        <pt x="569" y="54" on="0"/>
        <pt x="499" y="15" on="0"/>
        <pt x="432" y="-8" on="0"/>
        <pt x="364" y="-18" on="0"/>
        <pt x="327" y="-18" on="1"/>
        <pt x="264" y="-18" on="0"/>
        <pt x="163" y="21" on="0"/>
        <pt x="92" y="85" on="0"/>
        <pt x="55" y="170" on="0"/>
        <pt x="55" y="216" on="1"/>
        <pt x="55" y="291" on="0"/>
        <pt x="110" y="389" on="0"/>
        <pt x="204" y="447" on="0"/>
        <pt x="331" y="470" on="0"/>
        <pt x="402" y="470" on="1"/>
        <pt x="450" y="470" on="0"/>
        <pt x="544" y="460" on="0"/>
        <pt x="595" y="450" on="1"/>
        <pt x="595" y="547" on="1"/>
        <pt x="595" y="589" on="0"/>
        <pt x="566" y="648" on="0"/>
        <pt x="515" y="684" on="0"/>
        <pt x="447" y="701" on="0"/>
        <pt x="409" y="701" on="1"/>
        <pt x="340" y="701" on="0"/>
        <pt x="229" y="656" on="0"/>
        <pt x="194" y="610" on="1"/>
      </contour>
      <contour>
        <pt x="595" y="352" on="1"/>
        <pt x="563" y="353" on="0"/>
        <pt x="466" y="368" on="0"/>
        <pt x="412" y="368" on="1"/>
        <pt x="373" y="368" on="0"/>
        <pt x="295" y="357" on="0"/>
        <pt x="234" y="325" on="0"/>
        <pt x="196" y="265" on="0"/>
        <pt x="196" y="216" on="1"/>
        <pt x="196" y="190" on="0"/>
        <pt x="216" y="143" on="0"/>
        <pt x="255" y="109" on="0"/>
        <pt x="311" y="89" on="0"/>
        <pt x="348" y="89" on="1"/>
        <pt x="381" y="89" on="0"/>
        <pt x="449" y="101" on="0"/>
        <pt x="514" y="124" on="0"/>
        <pt x="572" y="157" on="0"/>
        <pt x="595" y="178" on="1"/>
      </contour>
    </TTGlyph>
    <TTGlyph name="aacute" xMin="55" yMin="-18" xMax="888" yMax="1171">
      <component glyphName="a" x="0" y="0" flags="0x204"/>
      <component glyphName="acute" x="126" y="0" flags="0x4"/>
    </TTGlyph>
    <TTGlyph name="acircumflex" xMin="55" yMin="-18" xMax="888" yMax="1171">
      <component glyphName="a" x="0" y="0" flags="0x204"/>
      <component glyphName="circumflex" x="148" y="0" flags="0x4"/>
    </TTGlyph>
    <TTGlyph name="acute" xMin="165" yMin="914" xMax="471" yMax="1171">
      <contour>
        <pt x="165" y="914" on="1"/>
        <pt x="264" y="1171" on="1"/>
        <pt x="471" y="1171" on="1"/>
        <pt x="284" y="914" on="1"/>
      </contour>
    </TTGlyph>
    <TTGlyph name="acute.cap" xMin="165" yMin="914" xMax="471" yMax="1171">
      <contour>
        <pt x="165" y="914" on="1"/>
        <pt x="264" y="1171" on="1"/>
        <pt x="471" y="1171" on="1"/>
        <pt x="284" y="914" on="1"/>
      </contour>
    </TTGlyph>
    <TTGlyph name="adieresis" xMin="55" yMin="-18" xMax="888" yMax="1101">
      <component glyphName="a" x="0" y="0" flags="0x204"/>
      <component glyphName="dieresis" x="154" y="0" flags="0x4"/>
    </TTGlyph>
    <TTGlyph name="ae" xMin="55" yMin="-23" xMax="1394" yMax="827">
      <contour>
        <pt x="327" y="-14" on="1"/>
        <pt x="264" y="-14" on="0"/>
        <pt x="163" y="25" on="0"/>
        <pt x="92" y="90" on="0"/>
        <pt x="55" y="175" on="0"/>
        <pt x="55" y="221" on="1"/>
        <pt x="55" y="293" on="0"/>
        <pt x="110" y="389" on="0"/>
        <pt x="204" y="446" on="0"/>
        <pt x="331" y="470" on="0"/>
        <pt x="402" y="470" on="1"/>
        <pt x="450" y="470" on="0"/>
        <pt x="544" y="460" on="0"/>
        <pt x="595" y="450" on="1"/>
        <pt x="595" y="547" on="1"/>
        <pt x="595" y="591" on="0"/>
        <pt x="564" y="653" on="0"/>
        <pt x="510" y="692" on="0"/>
        <pt x="439" y="709" on="0"/>
        <pt x="399" y="709" on="1"/>
        <pt x="273" y="709" on="0"/>
        <pt x="214" y="626" on="1"/>
        <pt x="74" y="665" on="1"/>
        <pt x="120" y="744" on="0"/>
        <pt x="291" y="827" on="0"/>
        <pt x="419" y="827" on="1"/>
        <pt x="477" y="827" on="0"/>
        <pt x="568" y="805" on="0"/>
        <pt x="637" y="766" on="0"/>
        <pt x="686" y="712" on="0"/>
        <pt x="702" y="680" on="1"/>
        <pt x="760" y="749" on="0"/>
        <pt x="915" y="827" on="0"/>
        <pt x="1012" y="827" on="1"/>
        <pt x="1107" y="827" on="0"/>
        <pt x="1250" y="755" on="0"/>
        <pt x="1346" y="632" on="0"/>
        <pt x="1394" y="471" on="0"/>
        <pt x="1394" y="382" on="1"/>
        <pt x="1394" y="363" on="1"/>
        <pt x="759" y="365" on="1"/>
        <pt x="766" y="307" on="0"/>
        <pt x="805" y="210" on="0"/>
        <pt x="870" y="140" on="0"/>
        <pt x="960" y="101" on="0"/>
        <pt x="1019" y="101" on="1"/>
        <pt x="1094" y="101" on="0"/>
        <pt x="1224" y="162" on="0"/>
        <pt x="1266" y="217" on="1"/>
        <pt x="1394" y="161" on="1"/>
        <pt x="1339" y="73" on="0"/>
        <pt x="1147" y="-23" on="0"/>
        <pt x="1016" y="-23" on="1"/>
        <pt x="910" y="-23" on="0"/>
        <pt x="747" y="43" on="0"/>
        <pt x="687" y="103" on="1"/>
        <pt x="640" y="74" on="0"/>
        <pt x="556" y="30" on="0"/>
        <pt x="470" y="1" on="0"/>
        <pt x="380" y="-14" on="0"/>
      </contour>
      <contour>
        <pt x="1251" y="467" on="1"/>
        <pt x="1243" y="516" on="0"/>
        <pt x="1205" y="606" on="0"/>
        <pt x="1146" y="673" on="0"/>
        <pt x="1065" y="713" on="0"/>
        <pt x="1014" y="713" on="1"/>
        <pt x="960" y="713" on="0"/>
        <pt x="873" y="676" on="0"/>
        <pt x="810" y="610" on="0"/>
        <pt x="770" y="520" on="0"/>
        <pt x="763" y="467" on="1"/>
      </contour>
      <contour>
        <pt x="595" y="352" on="1"/>
        <pt x="563" y="353" on="0"/>
        <pt x="466" y="368" on="0"/>
        <pt x="412" y="368" on="1"/>
        <pt x="373" y="368" on="0"/>
        <pt x="295" y="357" on="0"/>
        <pt x="234" y="325" on="0"/>
        <pt x="196" y="267" on="0"/>
        <pt x="196" y="221" on="1"/>
        <pt x="196" y="167" on="0"/>
        <pt x="273" y="96" on="0"/>
        <pt x="348" y="96" on="1"/>
        <pt x="381" y="96" on="0"/>
        <pt x="449" y="108" on="0"/>
        <pt x="514" y="129" on="0"/>
        <pt x="572" y="159" on="0"/>
        <pt x="595" y="178" on="1"/>
      </contour>
    </TTGlyph>
    <TTGlyph name="agrave" xMin="55" yMin="-18" xMax="888" yMax="1171">
      <component glyphName="a" x="0" y="0" flags="0x204"/>
      <component glyphName="grave" x="186" y="0" flags="0x4"/>
    </TTGlyph>
    <TTGlyph name="ampersand" xMin="56" yMin="-19" xMax="1143" yMax="1170">
      <contour>
        <pt x="797" y="115" on="1"/>
        <pt x="716" y="46" on="0"/>
        <pt x="559" y="-19" on="0"/>
        <pt x="471" y="-19" on="1"/>
        <pt x="382" y="-19" on="0"/>
        <pt x="230" y="34" on="0"/>
        <pt x="119" y="126" on="0"/>
        <pt x="56" y="252" on="0"/>
        <pt x="56" y="325" on="1"/>
        <pt x="56" y="446" on="0"/>
        <pt x="211" y="615" on="0"/>
        <pt x="362" y="670" on="1"/>
        <pt x="307" y="740" on="0"/>
        <pt x="245" y="859" on="0"/>
        <pt x="245" y="921" on="1"/>
        <pt x="245" y="973" on="0"/>
        <pt x="290" y="1064" on="0"/>
        <pt x="368" y="1131" on="0"/>
        <pt x="473" y="1170" on="0"/>
        <pt x="533" y="1170" on="1"/>
        <pt x="592" y="1170" on="0"/>
        <pt x="694" y="1133" on="0"/>
        <pt x="770" y="1068" on="0"/>
        <pt x="813" y="981" on="0"/>
        <pt x="813" y="930" on="1"/>
        <pt x="813" y="881" on="0"/>
        <pt x="786" y="795" on="0"/>
        <pt x="727" y="718" on="0"/>
        <pt x="633" y="651" on="0"/>
        <pt x="566" y="621" on="1"/>
        <pt x="806" y="332" on="1"/>
        <pt x="844" y="384" on="0"/>
        <pt x="897" y="507" on="0"/>
        <pt x="913" y="583" on="1"/>
        <pt x="1143" y="583" on="1"/>
        <pt x="1143" y="456" on="1"/>
        <pt x="1014" y="456" on="1"/>
        <pt x="988" y="377" on="0"/>
        <pt x="928" y="267" on="0"/>
        <pt x="886" y="223" on="1"/>
        <pt x="959" y="125" on="1"/>
        <pt x="1143" y="125" on="1"/>
        <pt x="1143" y="0" on="1"/>
        <pt x="883" y="0" on="1"/>
      </contour>
      <contour>
        <pt x="438" y="573" on="1"/>
        <pt x="210" y="493" on="0"/>
        <pt x="210" y="335" on="1"/>
        <pt x="210" y="292" on="0"/>
        <pt x="251" y="213" on="0"/>
        <pt x="324" y="153" on="0"/>
        <pt x="426" y="117" on="0"/>
        <pt x="487" y="117" on="1"/>
        <pt x="551" y="117" on="0"/>
        <pt x="666" y="165" on="0"/>
        <pt x="720" y="219" on="1"/>
      </contour>
      <contour>
        <pt x="494" y="720" on="1"/>
        <pt x="588" y="769" on="0"/>
        <pt x="679" y="866" on="0"/>
        <pt x="679" y="932" on="1"/>
        <pt x="679" y="986" on="0"/>
        <pt x="596" y="1045" on="0"/>
        <pt x="533" y="1045" on="1"/>
        <pt x="467" y="1045" on="0"/>
        <pt x="385" y="985" on="0"/>
        <pt x="385" y="928" on="1"/>
        <pt x="385" y="886" on="0"/>
        <pt x="440" y="792" on="0"/>
      </contour>
    </TTGlyph>
    <TTGlyph name="aring" xMin="55" yMin="-18" xMax="888" yMax="1201">
      <component glyphName="a" x="0" y="0" flags="0x204"/>
      <component glyphName="ring" x="162" y="0" flags="0x4"/>
    </TTGlyph>
    <TTGlyph name="asciicircum" xMin="38" yMin="605" xMax="788" yMax="1171">
      <contour>
        <pt x="788" y="605" on="1"/>
        <pt x="637" y="605" on="1"/>
        <pt x="415" y="1040" on="1"/>
        <pt x="189" y="605" on="1"/>
        <pt x="38" y="605" on="1"/>
        <pt x="339" y="1171" on="1"/>
        <pt x="492" y="1171" on="1"/>
      </contour>
    </TTGlyph>
    <TTGlyph name="asciitilde" xMin="77" yMin="441" xMax="987" yMax="709">
      <contour>
        <pt x="987" y="573" on="1"/>
        <pt x="942" y="500" on="0"/>
        <pt x="838" y="441" on="0"/>
        <pt x="778" y="441" on="1"/>
        <pt x="720" y="441" on="0"/>
        <pt x="596" y="484" on="0"/>
        <pt x="472" y="535" on="0"/>
        <pt x="350" y="578" on="0"/>
        <pt x="294" y="578" on="1"/>
        <pt x="249" y="578" on="0"/>
        <pt x="168" y="541" on="0"/>
        <pt x="132" y="496" on="1"/>
        <pt x="77" y="573" on="1"/>
        <pt x="129" y="648" on="0"/>
        <pt x="244" y="709" on="0"/>
        <pt x="307" y="709" on="1"/>
        <pt x="364" y="709" on="0"/>
        <pt x="484" y="670" on="0"/>
        <pt x="604" y="624" on="0"/>
        <pt x="721" y="585" on="0"/>
        <pt x="775" y="585" on="1"/>
        <pt x="817" y="585" on="0"/>
        <pt x="890" y="615" on="0"/>
        <pt x="924" y="651" on="1"/>
      </contour>
    </TTGlyph>
    <TTGlyph name="asterisk" xMin="32" yMin="351" xMax="894" yMax="1171">
      <contour>
        <pt x="282" y="351" on="1"/>
        <pt x="141" y="450" on="1"/>
        <pt x="237" y="582" on="1"/>
        <pt x="411" y="729" on="1"/>
        <pt x="183" y="743" on="1"/>
        <pt x="32" y="797" on="1"/>
        <pt x="82" y="960" on="1"/>
        <pt x="237" y="909" on="1"/>
        <pt x="437" y="783" on="1"/>
        <pt x="379" y="1013" on="1"/>
        <pt x="379" y="1171" on="1"/>
        <pt x="548" y="1171" on="1"/>
        <pt x="548" y="1013" on="1"/>
        <pt x="488" y="783" on="1"/>
        <pt x="688" y="909" on="1"/>
        <pt x="844" y="960" on="1"/>
        <pt x="894" y="797" on="1"/>
        <pt x="744" y="743" on="1"/>
        <pt x="515" y="729" on="1"/>
        <pt x="688" y="582" on="1"/>
        <pt x="783" y="450" on="1"/>
        <pt x="644" y="351" on="1"/>
        <pt x="548" y="483" on="1"/>
        <pt x="463" y="698" on="1"/>
        <pt x="379" y="483" on="1"/>
      </contour>
    </TTGlyph>
    <TTGlyph name="at" xMin="54" yMin="-143" xMax="1335" yMax="1171">
      <contour>
        <pt x="1202" y="-3" on="1"/>
        <pt x="1115" y="-70" on="0"/>
        <pt x="897" y="-143" on="0"/>
        <pt x="755" y="-143" on="1"/>
        <pt x="635" y="-143" on="0"/>
        <pt x="438" y="-94" on="0"/>
        <pt x="282" y="-7" on="0"/>
        <pt x="167" y="113" on="0"/>
        <pt x="91" y="253" on="0"/>
        <pt x="54" y="409" on="0"/>
        <pt x="54" y="489" on="1"/>
        <pt x="54" y="573" on="0"/>
        <pt x="94" y="740" on="0"/>
        <pt x="174" y="891" on="0"/>
        <pt x="291" y="1021" on="0"/>
        <pt x="444" y="1117" on="0"/>
        <pt x="633" y="1171" on="0"/>
        <pt x="745" y="1171" on="1"/>
        <pt x="849" y="1171" on="0"/>
        <pt x="1017" y="1128" on="0"/>
        <pt x="1148" y="1053" on="0"/>
        <pt x="1244" y="950" on="0"/>
        <pt x="1305" y="830" on="0"/>
        <pt x="1335" y="699" on="0"/>
        <pt x="1335" y="633" on="1"/>
        <pt x="1335" y="539" on="0"/>
        <pt x="1279" y="362" on="0"/>
        <pt x="1173" y="224" on="0"/>
        <pt x="1022" y="141" on="0"/>
        <pt x="928" y="141" on="1"/>
        <pt x="889" y="141" on="0"/>
        <pt x="833" y="197" on="0"/>
        <pt x="826" y="263" on="1"/>
        <pt x="781" y="197" on="0"/>
        <pt x="667" y="141" on="0"/>
        <pt x="607" y="141" on="1"/>
        <pt x="556" y="141" on="0"/>
        <pt x="458" y="183" on="0"/>
        <pt x="383" y="265" on="0"/>
        <pt x="337" y="385" on="0"/>
        <pt x="337" y="463" on="1"/>
        <pt x="337" y="540" on="0"/>
        <pt x="383" y="695" on="0"/>
        <pt x="476" y="819" on="0"/>
        <pt x="615" y="897" on="0"/>
        <pt x="708" y="897" on="1"/>
        <pt x="831" y="897" on="0"/>
        <pt x="908" y="766" on="1"/>
        <pt x="909" y="769" on="0"/>
        <pt x="912" y="780" on="0"/>
        <pt x="916" y="804" on="0"/>
        <pt x="924" y="845" on="0"/>
        <pt x="930" y="879" on="1"/>
        <pt x="1066" y="879" on="1"/>
        <pt x="1035" y="735" on="0"/>
        <pt x="992" y="537" on="0"/>
        <pt x="965" y="408" on="0"/>
        <pt x="949" y="337" on="0"/>
        <pt x="942" y="303" on="0"/>
        <pt x="941" y="296" on="0"/>
        <pt x="941" y="295" on="1"/>
        <pt x="941" y="280" on="0"/>
        <pt x="955" y="258" on="0"/>
        <pt x="970" y="258" on="1"/>
        <pt x="987" y="258" on="0"/>
        <pt x="1036" y="280" on="0"/>
        <pt x="1089" y="322" on="0"/>
        <pt x="1142" y="385" on="0"/>
        <pt x="1184" y="468" on="0"/>
        <pt x="1210" y="571" on="0"/>
        <pt x="1210" y="632" on="1"/>
        <pt x="1210" y="715" on="0"/>
        <pt x="1149" y="869" on="0"/>
        <pt x="1030" y="988" on="0"/>
        <pt x="854" y="1059" on="0"/>
        <pt x="740" y="1059" on="1"/>
        <pt x="620" y="1059" on="0"/>
        <pt x="417" y="974" on="0"/>
        <pt x="270" y="822" on="0"/>
        <pt x="187" y="612" on="0"/>
        <pt x="187" y="487" on="1"/>
        <pt x="187" y="370" on="0"/>
        <pt x="262" y="178" on="0"/>
        <pt x="406" y="42" on="0"/>
        <pt x="618" y="-33" on="0"/>
        <pt x="755" y="-33" on="1"/>
        <pt x="984" y="-33" on="0"/>
        <pt x="1133" y="81" on="1"/>
      </contour>
      <contour>
        <pt x="866" y="600" on="1"/>
        <pt x="866" y="684" on="0"/>
        <pt x="773" y="784" on="0"/>
        <pt x="695" y="784" on="1"/>
        <pt x="641" y="784" on="0"/>
        <pt x="558" y="725" on="0"/>
        <pt x="502" y="632" on="0"/>
        <pt x="473" y="517" on="0"/>
        <pt x="473" y="461" on="1"/>
        <pt x="473" y="419" on="0"/>
        <pt x="493" y="343" on="0"/>
        <pt x="534" y="284" on="0"/>
        <pt x="596" y="250" on="0"/>
        <pt x="638" y="250" on="1"/>
        <pt x="686" y="250" on="0"/>
        <pt x="769" y="314" on="0"/>
        <pt x="830" y="414" on="0"/>
        <pt x="866" y="539" on="0"/>
      </contour>
    </TTGlyph>
    <TTGlyph name="atilde" xMin="55" yMin="-18" xMax="888" yMax="1189">
      <component glyphName="a" x="0" y="0" flags="0x204"/>
      <component glyphName="tilde" x="151" y="0" flags="0x4"/>
    </TTGlyph>
    <TTGlyph name="b" xMin="23" yMin="-18" xMax="1013" yMax="1153">
      <contour>
        <pt x="23" y="107" on="1"/>
        <pt x="168" y="107" on="1"/>
        <pt x="168" y="1032" on="1"/>
        <pt x="25" y="1032" on="1"/>
        <pt x="25" y="1153" on="1"/>
        <pt x="319" y="1153" on="1"/>
        <pt x="319" y="707" on="1"/>
        <pt x="382" y="765" on="0"/>
        <pt x="524" y="820" on="0"/>
        <pt x="615" y="820" on="1"/>
        <pt x="707" y="820" on="0"/>
        <pt x="855" y="756" on="0"/>
        <pt x="958" y="645" on="0"/>
        <pt x="1013" y="495" on="0"/>
        <pt x="1013" y="410" on="1"/>
        <pt x="1013" y="321" on="0"/>
        <pt x="957" y="165" on="0"/>
        <pt x="854" y="49" on="0"/>
        <pt x="706" y="-18" on="0"/>
        <pt x="614" y="-18" on="1"/>
        <pt x="570" y="-18" on="0"/>
        <pt x="484" y="-1" on="0"/>
        <pt x="406" y="32" on="0"/>
        <pt x="340" y="80" on="0"/>
        <pt x="318" y="111" on="1"/>
        <pt x="314" y="0" on="1"/>
        <pt x="23" y="0" on="1"/>
      </contour>
      <contour>
        <pt x="582" y="107" on="1"/>
        <pt x="646" y="107" on="0"/>
        <pt x="746" y="152" on="0"/>
        <pt x="814" y="230" on="0"/>
        <pt x="850" y="335" on="0"/>
        <pt x="850" y="396" on="1"/>
        <pt x="850" y="456" on="0"/>
        <pt x="813" y="564" on="0"/>
        <pt x="742" y="646" on="0"/>
        <pt x="642" y="694" on="0"/>
        <pt x="579" y="694" on="1"/>
        <pt x="534" y="694" on="0"/>
        <pt x="456" y="669" on="0"/>
        <pt x="391" y="630" on="0"/>
        <pt x="338" y="585" on="0"/>
        <pt x="319" y="564" on="1"/>
        <pt x="319" y="229" on="1"/>
        <pt x="340" y="209" on="0"/>
        <pt x="395" y="166" on="0"/>
        <pt x="461" y="130" on="0"/>
        <pt x="538" y="107" on="0"/>
      </contour>
    </TTGlyph>
    <TTGlyph name="backslash" xMin="129" yMin="-18" xMax="692" yMax="1171">
      <contour>
        <pt x="258" y="1171" on="1"/>
        <pt x="692" y="-18" on="1"/>
        <pt x="563" y="-18" on="1"/>
        <pt x="129" y="1171" on="1"/>
      </contour>
    </TTGlyph>
    <TTGlyph name="bar" xMin="141" yMin="-96" xMax="263" yMax="1153">
      <contour>
        <pt x="263" y="1153" on="1"/>
        <pt x="263" y="-96" on="1"/>
        <pt x="141" y="-96" on="1"/>
        <pt x="141" y="1153" on="1"/>
      </contour>
    </TTGlyph>
    <TTGlyph name="braceleft" xMin="30" yMin="-223" xMax="492" yMax="1171">
      <contour>
        <pt x="30" y="539" on="1"/>
        <pt x="77" y="539" on="0"/>
        <pt x="135" y="573" on="0"/>
        <pt x="167" y="638" on="0"/>
        <pt x="178" y="731" on="0"/>
        <pt x="178" y="790" on="1"/>
        <pt x="178" y="873" on="0"/>
        <pt x="185" y="1013" on="0"/>
        <pt x="230" y="1114" on="0"/>
        <pt x="328" y="1171" on="0"/>
        <pt x="418" y="1171" on="1"/>
        <pt x="492" y="1171" on="1"/>
        <pt x="492" y="1052" on="1"/>
        <pt x="441" y="1052" on="0"/>
        <pt x="377" y="1041" on="0"/>
        <pt x="340" y="1007" on="0"/>
        <pt x="327" y="944" on="0"/>
        <pt x="327" y="893" on="1"/>
        <pt x="327" y="792" on="0"/>
        <pt x="319" y="653" on="0"/>
        <pt x="291" y="559" on="0"/>
        <pt x="237" y="498" on="0"/>
        <pt x="192" y="475" on="1"/>
        <pt x="231" y="454" on="0"/>
        <pt x="283" y="398" on="0"/>
        <pt x="314" y="316" on="0"/>
        <pt x="326" y="202" on="0"/>
        <pt x="326" y="122" on="1"/>
        <pt x="326" y="47" on="0"/>
        <pt x="331" y="-43" on="0"/>
        <pt x="362" y="-89" on="0"/>
        <pt x="429" y="-103" on="0"/>
        <pt x="492" y="-103" on="1"/>
        <pt x="492" y="-223" on="1"/>
        <pt x="419" y="-223" on="1"/>
        <pt x="329" y="-223" on="0"/>
        <pt x="232" y="-169" on="0"/>
        <pt x="186" y="-70" on="0"/>
        <pt x="178" y="67" on="0"/>
        <pt x="178" y="150" on="1"/>
        <pt x="178" y="211" on="0"/>
        <pt x="168" y="308" on="0"/>
        <pt x="137" y="375" on="0"/>
        <pt x="79" y="410" on="0"/>
        <pt x="30" y="410" on="1"/>
      </contour>
    </TTGlyph>
    <TTGlyph name="braceright" xMin="30" yMin="-223" xMax="492" yMax="1171">
      <contour>
        <pt x="492" y="410" on="1"/>
        <pt x="443" y="410" on="0"/>
        <pt x="385" y="375" on="0"/>
        <pt x="354" y="308" on="0"/>
        <pt x="344" y="211" on="0"/>
        <pt x="344" y="150" on="1"/>
        <pt x="344" y="67" on="0"/>
        <pt x="336" y="-70" on="0"/>
        <pt x="290" y="-169" on="0"/>
        <pt x="193" y="-223" on="0"/>
        <pt x="103" y="-223" on="1"/>
        <pt x="30" y="-223" on="1"/>
        <pt x="30" y="-103" on="1"/>
        <pt x="92" y="-103" on="0"/>
        <pt x="159" y="-90" on="0"/>
        <pt x="191" y="-45" on="0"/>
        <pt x="196" y="41" on="0"/>
        <pt x="196" y="115" on="1"/>
        <pt x="196" y="197" on="0"/>
        <pt x="208" y="314" on="0"/>
        <pt x="238" y="398" on="0"/>
        <pt x="290" y="454" on="0"/>
        <pt x="330" y="475" on="1"/>
        <pt x="285" y="498" on="0"/>
        <pt x="231" y="559" on="0"/>
        <pt x="203" y="653" on="0"/>
        <pt x="195" y="792" on="0"/>
        <pt x="195" y="893" on="1"/>
        <pt x="195" y="944" on="0"/>
        <pt x="182" y="1007" on="0"/>
        <pt x="145" y="1041" on="0"/>
        <pt x="81" y="1052" on="0"/>
        <pt x="30" y="1052" on="1"/>
        <pt x="30" y="1171" on="1"/>
        <pt x="104" y="1171" on="1"/>
        <pt x="194" y="1171" on="0"/>
        <pt x="291" y="1115" on="0"/>
        <pt x="336" y="1015" on="0"/>
        <pt x="344" y="877" on="0"/>
        <pt x="344" y="795" on="1"/>
        <pt x="344" y="735" on="0"/>
        <pt x="355" y="640" on="0"/>
        <pt x="386" y="574" on="0"/>
        <pt x="444" y="539" on="0"/>
        <pt x="492" y="539" on="1"/>
      </contour>
    </TTGlyph>
    <TTGlyph name="bracketleft" xMin="147" yMin="-219" xMax="541" yMax="1263">
      <contour>
        <pt x="541" y="1263" on="1"/>
        <pt x="541" y="1154" on="1"/>
        <pt x="290" y="1154" on="1"/>
        <pt x="290" y="-112" on="1"/>
        <pt x="541" y="-112" on="1"/>
        <pt x="541" y="-219" on="1"/>
        <pt x="147" y="-219" on="1"/>
        <pt x="147" y="1263" on="1"/>
      </contour>
    </TTGlyph>
    <TTGlyph name="bracketright" xMin="32" yMin="-219" xMax="426" yMax="1263">
      <contour>
        <pt x="426" y="1263" on="1"/>
        <pt x="426" y="-219" on="1"/>
        <pt x="32" y="-219" on="1"/>
        <pt x="32" y="-112" on="1"/>
        <pt x="283" y="-112" on="1"/>
        <pt x="283" y="1154" on="1"/>
        <pt x="32" y="1154" on="1"/>
        <pt x="32" y="1263" on="1"/>
      </contour>
    </TTGlyph>
    <TTGlyph name="breve" xMin="34" yMin="940" xMax="550" yMax="1153">
      <contour>
        <pt x="144" y="1153" on="1"/>
        <pt x="154" y="1096" on="0"/>
        <pt x="229" y="1035" on="0"/>
        <pt x="292" y="1035" on="1"/>
        <pt x="352" y="1035" on="0"/>
        <pt x="431" y="1096" on="0"/>
        <pt x="439" y="1153" on="1"/>
        <pt x="550" y="1153" on="1"/>
        <pt x="545" y="1105" on="0"/>
        <pt x="504" y="1027" on="0"/>
        <pt x="436" y="971" on="0"/>
        <pt x="346" y="940" on="0"/>
        <pt x="292" y="940" on="1"/>
        <pt x="238" y="940" on="0"/>
        <pt x="147" y="971" on="0"/>
        <pt x="80" y="1026" on="0"/>
        <pt x="38" y="1105" on="0"/>
        <pt x="34" y="1153" on="1"/>
      </contour>
    </TTGlyph>
    <TTGlyph name="brokenbar" xMin="141" yMin="-102" xMax="263" yMax="1153">
      <contour>
        <pt x="263" y="1153" on="1"/>
        <pt x="263" y="734" on="1"/>
        <pt x="141" y="734" on="1"/>
        <pt x="141" y="1153" on="1"/>
      </contour>
      <contour>
        <pt x="263" y="346" on="1"/>
        <pt x="263" y="-102" on="1"/>
        <pt x="141" y="-102" on="1"/>
        <pt x="141" y="346" on="1"/>
      </contour>
    </TTGlyph>
    <TTGlyph name="bullet" xMin="80" yMin="368" xMax="481" yMax="754">
      <contour>
        <pt x="280" y="754" on="1"/>
        <pt x="322" y="754" on="0"/>
        <pt x="395" y="724" on="0"/>
        <pt x="449" y="673" on="0"/>
        <pt x="481" y="602" on="0"/>
        <pt x="481" y="562" on="1"/>
        <pt x="481" y="522" on="0"/>
        <pt x="449" y="451" on="0"/>
        <pt x="395" y="399" on="0"/>
        <pt x="322" y="368" on="0"/>
        <pt x="280" y="368" on="1"/>
        <pt x="238" y="368" on="0"/>
        <pt x="165" y="399" on="0"/>
        <pt x="111" y="451" on="0"/>
        <pt x="80" y="522" on="0"/>
        <pt x="80" y="562" on="1"/>
        <pt x="80" y="602" on="0"/>
        <pt x="111" y="673" on="0"/>
        <pt x="165" y="724" on="0"/>
        <pt x="238" y="754" on="0"/>
      </contour>
    </TTGlyph>
    <TTGlyph name="c" xMin="57" yMin="-19" xMax="829" yMax="820">
      <contour>
        <pt x="829" y="157" on="1"/>
        <pt x="775" y="75" on="0"/>
        <pt x="591" y="-19" on="0"/>
        <pt x="464" y="-19" on="1"/>
        <pt x="354" y="-19" on="0"/>
        <pt x="199" y="58" on="0"/>
        <pt x="102" y="178" on="0"/>
        <pt x="57" y="326" on="0"/>
        <pt x="57" y="398" on="1"/>
        <pt x="57" y="490" on="0"/>
        <pt x="118" y="645" on="0"/>
        <pt x="226" y="757" on="0"/>
        <pt x="375" y="820" on="0"/>
        <pt x="463" y="820" on="1"/>
        <pt x="510" y="820" on="0"/>
        <pt x="587" y="798" on="0"/>
        <pt x="646" y="765" on="0"/>
        <pt x="684" y="728" on="0"/>
        <pt x="691" y="713" on="1"/>
        <pt x="687" y="805" on="1"/>
        <pt x="820" y="805" on="1"/>
        <pt x="820" y="517" on="1"/>
        <pt x="691" y="517" on="1"/>
        <pt x="683" y="553" on="0"/>
        <pt x="651" y="617" on="0"/>
        <pt x="598" y="666" on="0"/>
        <pt x="522" y="694" on="0"/>
        <pt x="471" y="694" on="1"/>
        <pt x="347" y="694" on="0"/>
        <pt x="216" y="538" on="0"/>
        <pt x="216" y="400" on="1"/>
        <pt x="216" y="334" on="0"/>
        <pt x="249" y="226" on="0"/>
        <pt x="312" y="149" on="0"/>
        <pt x="406" y="107" on="0"/>
        <pt x="468" y="107" on="1"/>
        <pt x="553" y="107" on="0"/>
        <pt x="695" y="177" on="0"/>
        <pt x="740" y="246" on="1"/>
      </contour>
    </TTGlyph>
    <TTGlyph name="caron" xMin="38" yMin="912" xMax="555" yMax="1171">
      <contour>
        <pt x="145" y="1171" on="1"/>
        <pt x="299" y="1017" on="1"/>
        <pt x="451" y="1171" on="1"/>
        <pt x="555" y="1171" on="1"/>
        <pt x="396" y="912" on="1"/>
        <pt x="200" y="912" on="1"/>
        <pt x="38" y="1171" on="1"/>
      </contour>
    </TTGlyph>
    <TTGlyph name="caron.cap" xMin="38" yMin="912" xMax="555" yMax="1171">
      <contour>
        <pt x="145" y="1171" on="1"/>
        <pt x="299" y="1017" on="1"/>
        <pt x="451" y="1171" on="1"/>
        <pt x="555" y="1171" on="1"/>
        <pt x="396" y="912" on="1"/>
        <pt x="200" y="912" on="1"/>
        <pt x="38" y="1171" on="1"/>
      </contour>
    </TTGlyph>
    <TTGlyph name="ccedilla" xMin="57" yMin="-363" xMax="829" yMax="820">
      <component glyphName="c" x="0" y="0" flags="0x204"/>
      <component glyphName="cedilla" x="164" y="0" flags="0x4"/>
    </TTGlyph>
    <TTGlyph name="cedilla" xMin="128" yMin="-363" xMax="442" yMax="5">
      <contour>
        <pt x="128" y="-263" on="1"/>
        <pt x="151" y="-267" on="0"/>
        <pt x="194" y="-271" on="0"/>
        <pt x="214" y="-271" on="1"/>
        <pt x="256" y="-271" on="0"/>
        <pt x="309" y="-247" on="0"/>
        <pt x="309" y="-218" on="1"/>
        <pt x="309" y="-193" on="0"/>
        <pt x="256" y="-164" on="0"/>
        <pt x="211" y="-160" on="1"/>
        <pt x="269" y="5" on="1"/>
        <pt x="341" y="5" on="1"/>
        <pt x="314" y="-119" on="1"/>
        <pt x="374" y="-126" on="0"/>
        <pt x="442" y="-176" on="0"/>
        <pt x="442" y="-218" on="1"/>
        <pt x="442" y="-244" on="0"/>
        <pt x="420" y="-296" on="0"/>
        <pt x="370" y="-337" on="0"/>
        <pt x="288" y="-363" on="0"/>
        <pt x="228" y="-363" on="1"/>
        <pt x="205" y="-363" on="0"/>
        <pt x="156" y="-360" on="0"/>
        <pt x="128" y="-355" on="1"/>
      </contour>
    </TTGlyph>
    <TTGlyph name="cent" xMin="57" yMin="-368" xMax="829" yMax="1153">
      <contour>
        <pt x="829" y="157" on="1"/>
        <pt x="775" y="75" on="0"/>
        <pt x="591" y="-19" on="0"/>
        <pt x="464" y="-19" on="1"/>
        <pt x="435" y="-19" on="0"/>
        <pt x="383" y="-13" on="0"/>
        <pt x="358" y="-8" on="1"/>
        <pt x="238" y="-368" on="1"/>
        <pt x="156" y="-368" on="1"/>
        <pt x="284" y="16" on="1"/>
        <pt x="224" y="42" on="0"/>
        <pt x="138" y="127" on="0"/>
        <pt x="83" y="230" on="0"/>
        <pt x="57" y="343" on="0"/>
        <pt x="57" y="398" on="1"/>
        <pt x="57" y="490" on="0"/>
        <pt x="118" y="645" on="0"/>
        <pt x="226" y="757" on="0"/>
        <pt x="375" y="820" on="0"/>
        <pt x="463" y="820" on="1"/>
        <pt x="506" y="820" on="0"/>
        <pt x="550" y="809" on="1"/>
        <pt x="665" y="1153" on="1"/>
        <pt x="748" y="1153" on="1"/>
        <pt x="622" y="778" on="1"/>
        <pt x="649" y="762" on="0"/>
        <pt x="684" y="727" on="0"/>
        <pt x="691" y="713" on="1"/>
        <pt x="687" y="805" on="1"/>
        <pt x="820" y="805" on="1"/>
        <pt x="820" y="517" on="1"/>
        <pt x="691" y="517" on="1"/>
        <pt x="680" y="565" on="0"/>
        <pt x="630" y="645" on="0"/>
        <pt x="585" y="668" on="1"/>
        <pt x="399" y="114" on="1"/>
        <pt x="424" y="107" on="0"/>
        <pt x="468" y="107" on="1"/>
        <pt x="553" y="107" on="0"/>
        <pt x="695" y="177" on="0"/>
        <pt x="740" y="246" on="1"/>
      </contour>
      <contour>
        <pt x="216" y="400" on="1"/>
        <pt x="216" y="312" on="0"/>
        <pt x="272" y="181" on="0"/>
        <pt x="327" y="145" on="1"/>
        <pt x="510" y="691" on="1"/>
        <pt x="492" y="694" on="0"/>
        <pt x="471" y="694" on="1"/>
        <pt x="347" y="694" on="0"/>
        <pt x="216" y="538" on="0"/>
      </contour>
    </TTGlyph>
    <TTGlyph name="circumflex" xMin="58" yMin="896" xMax="535" yMax="1171">
      <contour>
        <pt x="58" y="896" on="1"/>
        <pt x="156" y="1171" on="1"/>
        <pt x="431" y="1171" on="1"/>
        <pt x="535" y="896" on="1"/>
        <pt x="387" y="896" on="1"/>
        <pt x="294" y="1126" on="1"/>
        <pt x="201" y="896" on="1"/>
      </contour>
    </TTGlyph>
    <TTGlyph name="circumflex.cap" xMin="58" yMin="896" xMax="535" yMax="1171">
      <contour>
        <pt x="58" y="896" on="1"/>
        <pt x="156" y="1171" on="1"/>
        <pt x="431" y="1171" on="1"/>
        <pt x="535" y="896" on="1"/>
        <pt x="387" y="896" on="1"/>
        <pt x="294" y="1126" on="1"/>
        <pt x="201" y="896" on="1"/>
      </contour>
    </TTGlyph>
    <TTGlyph name="colon" xMin="93" yMin="0" xMax="320" yMax="820">
      <contour>
        <pt x="93" y="211" on="1"/>
        <pt x="320" y="211" on="1"/>
        <pt x="320" y="0" on="1"/>
        <pt x="93" y="0" on="1"/>
      </contour>
      <contour>
        <pt x="93" y="820" on="1"/>
        <pt x="320" y="820" on="1"/>
        <pt x="320" y="609" on="1"/>
        <pt x="93" y="609" on="1"/>
      </contour>
    </TTGlyph>
    <TTGlyph name="comma" xMin="86" yMin="-237" xMax="313" yMax="211">
      <contour>
        <pt x="86" y="211" on="1"/>
        <pt x="313" y="211" on="1"/>
        <pt x="313" y="0" on="1"/>
        <pt x="313" y="-57" on="0"/>
        <pt x="290" y="-146" on="0"/>
        <pt x="237" y="-206" on="0"/>
        <pt x="150" y="-237" on="0"/>
        <pt x="86" y="-237" on="1"/>
        <pt x="86" y="-150" on="1"/>
        <pt x="120" y="-143" on="0"/>
        <pt x="166" y="-122" on="0"/>
        <pt x="194" y="-87" on="0"/>
        <pt x="207" y="-36" on="0"/>
        <pt x="207" y="0" on="1"/>
        <pt x="86" y="0" on="1"/>
      </contour>
    </TTGlyph>
    <TTGlyph name="commaaccent" xMin="101" yMin="111" xMax="328" yMax="559">
      <contour>
        <pt x="101" y="559" on="1"/>
        <pt x="328" y="559" on="1"/>
        <pt x="328" y="348" on="1"/>
        <pt x="328" y="291" on="0"/>
        <pt x="305" y="202" on="0"/>
        <pt x="252" y="142" on="0"/>
        <pt x="165" y="111" on="0"/>
        <pt x="101" y="111" on="1"/>
        <pt x="101" y="198" on="1"/>
        <pt x="135" y="205" on="0"/>
        <pt x="181" y="226" on="0"/>
        <pt x="209" y="261" on="0"/>
        <pt x="222" y="312" on="0"/>
        <pt x="222" y="348" on="1"/>
        <pt x="101" y="348" on="1"/>
      </contour>
    </TTGlyph>
    <TTGlyph name="copyright" xMin="58" yMin="-19" xMax="1258" yMax="1170">
      <contour>
        <pt x="658" y="1170" on="1"/>
        <pt x="808" y="1170" on="0"/>
        <pt x="1033" y="1067" on="0"/>
        <pt x="1183" y="900" on="0"/>
        <pt x="1258" y="686" on="0"/>
        <pt x="1258" y="575" on="1"/>
        <pt x="1258" y="464" on="0"/>
        <pt x="1183" y="250" on="0"/>
        <pt x="1033" y="83" on="0"/>
        <pt x="808" y="-19" on="0"/>
        <pt x="658" y="-19" on="1"/>
        <pt x="508" y="-19" on="0"/>
        <pt x="283" y="83" on="0"/>
        <pt x="133" y="250" on="0"/>
        <pt x="58" y="464" on="0"/>
        <pt x="58" y="575" on="1"/>
        <pt x="58" y="686" on="0"/>
        <pt x="133" y="900" on="0"/>
        <pt x="283" y="1067" on="0"/>
        <pt x="508" y="1170" on="0"/>
      </contour>
      <contour>
        <pt x="658" y="1076" on="1"/>
        <pt x="536" y="1076" on="0"/>
        <pt x="355" y="989" on="0"/>
        <pt x="234" y="848" on="0"/>
        <pt x="174" y="668" on="0"/>
        <pt x="174" y="575" on="1"/>
        <pt x="174" y="482" on="0"/>
        <pt x="234" y="301" on="0"/>
        <pt x="355" y="160" on="0"/>
        <pt x="536" y="73" on="0"/>
        <pt x="658" y="73" on="1"/>
        <pt x="779" y="73" on="0"/>
        <pt x="960" y="160" on="0"/>
        <pt x="1081" y="301" on="0"/>
        <pt x="1141" y="482" on="0"/>
        <pt x="1141" y="575" on="1"/>
        <pt x="1141" y="668" on="0"/>
        <pt x="1081" y="848" on="0"/>
        <pt x="960" y="989" on="0"/>
        <pt x="779" y="1076" on="0"/>
      </contour>
      <contour>
        <pt x="917" y="404" on="1"/>
        <pt x="879" y="344" on="0"/>
        <pt x="744" y="277" on="0"/>
        <pt x="653" y="277" on="1"/>
        <pt x="574" y="277" on="0"/>
        <pt x="462" y="333" on="0"/>
        <pt x="392" y="420" on="0"/>
        <pt x="359" y="527" on="0"/>
        <pt x="359" y="578" on="1"/>
        <pt x="359" y="645" on="0"/>
        <pt x="403" y="757" on="0"/>
        <pt x="482" y="838" on="0"/>
        <pt x="590" y="883" on="0"/>
        <pt x="653" y="883" on="1"/>
        <pt x="687" y="883" on="0"/>
        <pt x="743" y="867" on="0"/>
        <pt x="785" y="844" on="0"/>
        <pt x="812" y="817" on="0"/>
        <pt x="817" y="806" on="1"/>
        <pt x="815" y="872" on="1"/>
        <pt x="911" y="872" on="1"/>
        <pt x="911" y="664" on="1"/>
        <pt x="817" y="664" on="1"/>
        <pt x="811" y="690" on="0"/>
        <pt x="788" y="737" on="0"/>
        <pt x="750" y="772" on="0"/>
        <pt x="695" y="792" on="0"/>
        <pt x="658" y="792" on="1"/>
        <pt x="567" y="792" on="0"/>
        <pt x="474" y="680" on="0"/>
        <pt x="474" y="580" on="1"/>
        <pt x="474" y="532" on="0"/>
        <pt x="498" y="454" on="0"/>
        <pt x="544" y="399" on="0"/>
        <pt x="612" y="368" on="0"/>
        <pt x="656" y="368" on="1"/>
        <pt x="719" y="368" on="0"/>
        <pt x="821" y="418" on="0"/>
        <pt x="853" y="469" on="1"/>
      </contour>
    </TTGlyph>
    <TTGlyph name="currency" xMin="122" yMin="451" xMax="809" yMax="1157">
      <contour>
        <pt x="129" y="806" on="1"/>
        <pt x="129" y="925" on="0"/>
        <pt x="202" y="1007" on="1"/>
        <pt x="122" y="1088" on="1"/>
        <pt x="191" y="1157" on="1"/>
        <pt x="277" y="1071" on="1"/>
        <pt x="317" y="1096" on="0"/>
        <pt x="410" y="1124" on="0"/>
        <pt x="464" y="1124" on="1"/>
        <pt x="518" y="1124" on="0"/>
        <pt x="612" y="1095" on="0"/>
        <pt x="652" y="1069" on="1"/>
        <pt x="740" y="1157" on="1"/>
        <pt x="809" y="1088" on="1"/>
        <pt x="726" y="1005" on="1"/>
        <pt x="798" y="919" on="0"/>
        <pt x="798" y="806" on="1"/>
        <pt x="798" y="746" on="0"/>
        <pt x="759" y="645" on="0"/>
        <pt x="724" y="603" on="1"/>
        <pt x="809" y="519" on="1"/>
        <pt x="740" y="451" on="1"/>
        <pt x="650" y="539" on="1"/>
        <pt x="570" y="486" on="0"/>
        <pt x="464" y="486" on="1"/>
        <pt x="410" y="486" on="0"/>
        <pt x="318" y="513" on="0"/>
        <pt x="279" y="538" on="1"/>
        <pt x="191" y="451" on="1"/>
        <pt x="122" y="519" on="1"/>
        <pt x="204" y="601" on="1"/>
        <pt x="169" y="643" on="0"/>
        <pt x="129" y="746" on="0"/>
      </contour>
      <contour>
        <pt x="464" y="1006" on="1"/>
        <pt x="415" y="1006" on="0"/>
        <pt x="342" y="971" on="0"/>
        <pt x="293" y="914" on="0"/>
        <pt x="269" y="841" on="0"/>
        <pt x="269" y="804" on="1"/>
        <pt x="269" y="766" on="0"/>
        <pt x="294" y="692" on="0"/>
        <pt x="343" y="635" on="0"/>
        <pt x="416" y="600" on="0"/>
        <pt x="464" y="600" on="1"/>
        <pt x="513" y="600" on="0"/>
        <pt x="586" y="635" on="0"/>
        <pt x="634" y="692" on="0"/>
        <pt x="658" y="764" on="0"/>
        <pt x="658" y="802" on="1"/>
        <pt x="658" y="840" on="0"/>
        <pt x="634" y="914" on="0"/>
        <pt x="585" y="971" on="0"/>
        <pt x="512" y="1006" on="0"/>
      </contour>
    </TTGlyph>
    <TTGlyph name="d" xMin="58" yMin="-18" xMax="1050" yMax="1153">
      <contour>
        <pt x="898" y="1153" on="1"/>
        <pt x="898" y="107" on="1"/>
        <pt x="1050" y="107" on="1"/>
        <pt x="1050" y="0" on="1"/>
        <pt x="746" y="0" on="1"/>
        <pt x="745" y="99" on="1"/>
        <pt x="681" y="36" on="0"/>
        <pt x="544" y="-18" on="0"/>
        <pt x="459" y="-18" on="1"/>
        <pt x="381" y="-18" on="0"/>
        <pt x="237" y="36" on="0"/>
        <pt x="125" y="141" on="0"/>
        <pt x="58" y="297" on="0"/>
        <pt x="58" y="400" on="1"/>
        <pt x="58" y="485" on="0"/>
        <pt x="115" y="638" on="0"/>
        <pt x="220" y="753" on="0"/>
        <pt x="370" y="820" on="0"/>
        <pt x="462" y="820" on="1"/>
        <pt x="550" y="820" on="0"/>
        <pt x="690" y="765" on="0"/>
        <pt x="750" y="713" on="1"/>
        <pt x="750" y="1035" on="1"/>
        <pt x="588" y="1035" on="1"/>
        <pt x="588" y="1153" on="1"/>
      </contour>
      <contour>
        <pt x="485" y="107" on="1"/>
        <pt x="529" y="107" on="0"/>
        <pt x="606" y="129" on="0"/>
        <pt x="672" y="163" on="0"/>
        <pt x="726" y="203" on="0"/>
        <pt x="748" y="222" on="1"/>
        <pt x="748" y="567" on="1"/>
        <pt x="727" y="587" on="0"/>
        <pt x="671" y="632" on="0"/>
        <pt x="604" y="669" on="0"/>
        <pt x="525" y="694" on="0"/>
        <pt x="480" y="694" on="1"/>
        <pt x="417" y="694" on="0"/>
        <pt x="319" y="647" on="0"/>
        <pt x="252" y="566" on="0"/>
        <pt x="217" y="457" on="0"/>
        <pt x="217" y="396" on="1"/>
        <pt x="217" y="338" on="0"/>
        <pt x="253" y="233" on="0"/>
        <pt x="321" y="154" on="0"/>
        <pt x="421" y="107" on="0"/>
      </contour>
    </TTGlyph>
    <TTGlyph name="degree" xMin="68" yMin="698" xMax="585" yMax="1216">
      <contour>
        <pt x="327" y="1130" on="1"/>
        <pt x="289" y="1130" on="0"/>
        <pt x="226" y="1103" on="0"/>
        <pt x="181" y="1056" on="0"/>
        <pt x="155" y="994" on="0"/>
        <pt x="155" y="958" on="1"/>
        <pt x="155" y="923" on="0"/>
        <pt x="181" y="860" on="0"/>
        <pt x="226" y="814" on="0"/>
        <pt x="289" y="787" on="0"/>
        <pt x="327" y="787" on="1"/>
        <pt x="362" y="787" on="0"/>
        <pt x="424" y="813" on="0"/>
        <pt x="471" y="858" on="0"/>
        <pt x="498" y="921" on="0"/>
        <pt x="498" y="958" on="1"/>
        <pt x="498" y="990" on="0"/>
        <pt x="475" y="1052" on="0"/>
        <pt x="431" y="1100" on="0"/>
        <pt x="367" y="1130" on="0"/>
      </contour>
      <contour>
        <pt x="327" y="1216" on="1"/>
        <pt x="381" y="1216" on="0"/>
        <pt x="475" y="1176" on="0"/>
        <pt x="545" y="1105" on="0"/>
        <pt x="585" y="1011" on="0"/>
        <pt x="585" y="957" on="1"/>
        <pt x="585" y="903" on="0"/>
        <pt x="545" y="809" on="0"/>
        <pt x="475" y="739" on="0"/>
        <pt x="381" y="698" on="0"/>
        <pt x="327" y="698" on="1"/>
        <pt x="273" y="698" on="0"/>
        <pt x="179" y="739" on="0"/>
        <pt x="109" y="809" on="0"/>
        <pt x="68" y="903" on="0"/>
        <pt x="68" y="957" on="1"/>
        <pt x="68" y="1011" on="0"/>
        <pt x="109" y="1105" on="0"/>
        <pt x="179" y="1176" on="0"/>
        <pt x="273" y="1216" on="0"/>
      </contour>
    </TTGlyph>
    <TTGlyph name="dieresis" xMin="58" yMin="948" xMax="523" yMax="1101">
      <contour>
        <pt x="523" y="1101" on="1"/>
        <pt x="523" y="948" on="1"/>
        <pt x="371" y="948" on="1"/>
        <pt x="371" y="1101" on="1"/>
      </contour>
      <contour>
        <pt x="212" y="1101" on="1"/>
        <pt x="212" y="948" on="1"/>
        <pt x="58" y="948" on="1"/>
        <pt x="58" y="1101" on="1"/>
      </contour>
    </TTGlyph>
    <TTGlyph name="dieresis.cap" xMin="58" yMin="948" xMax="523" yMax="1101">
      <contour>
        <pt x="523" y="1101" on="1"/>
        <pt x="523" y="948" on="1"/>
        <pt x="371" y="948" on="1"/>
        <pt x="371" y="1101" on="1"/>
      </contour>
      <contour>
        <pt x="212" y="1101" on="1"/>
        <pt x="212" y="948" on="1"/>
        <pt x="58" y="948" on="1"/>
        <pt x="58" y="1101" on="1"/>
      </contour>
    </TTGlyph>
    <TTGlyph name="divide" xMin="220" yMin="121" xMax="931" yMax="944">
      <contour>
        <pt x="931" y="593" on="1"/>
        <pt x="931" y="475" on="1"/>
        <pt x="220" y="475" on="1"/>
        <pt x="220" y="593" on="1"/>
      </contour>
      <contour>
        <pt x="501" y="944" on="1"/>
        <pt x="654" y="944" on="1"/>
        <pt x="654" y="792" on="1"/>
        <pt x="501" y="792" on="1"/>
      </contour>
      <contour>
        <pt x="501" y="275" on="1"/>
        <pt x="654" y="275" on="1"/>
        <pt x="654" y="121" on="1"/>
        <pt x="501" y="121" on="1"/>
      </contour>
    </TTGlyph>
    <TTGlyph name="dollar" xMin="88" yMin="-143" xMax="910" yMax="1305">
      <contour>
        <pt x="411" y="-4" on="1"/>
        <pt x="312" y="18" on="0"/>
        <pt x="231" y="87" on="1"/>
        <pt x="231" y="0" on="1"/>
        <pt x="96" y="0" on="1"/>
        <pt x="96" y="387" on="1"/>
        <pt x="231" y="387" on="1"/>
        <pt x="231" y="271" on="1"/>
        <pt x="270" y="217" on="0"/>
        <pt x="357" y="150" on="0"/>
        <pt x="411" y="133" on="1"/>
        <pt x="411" y="532" on="1"/>
        <pt x="345" y="547" on="0"/>
        <pt x="227" y="593" on="0"/>
        <pt x="139" y="668" on="0"/>
        <pt x="88" y="779" on="0"/>
        <pt x="88" y="859" on="1"/>
        <pt x="88" y="931" on="0"/>
        <pt x="137" y="1042" on="0"/>
        <pt x="224" y="1120" on="0"/>
        <pt x="342" y="1164" on="0"/>
        <pt x="411" y="1169" on="1"/>
        <pt x="411" y="1305" on="1"/>
        <pt x="542" y="1305" on="1"/>
        <pt x="542" y="1161" on="1"/>
        <pt x="636" y="1138" on="0"/>
        <pt x="713" y="1079" on="1"/>
        <pt x="713" y="1153" on="1"/>
        <pt x="848" y="1153" on="1"/>
        <pt x="848" y="826" on="1"/>
        <pt x="713" y="826" on="1"/>
        <pt x="713" y="908" on="1"/>
        <pt x="678" y="956" on="0"/>
        <pt x="596" y="1016" on="0"/>
        <pt x="542" y="1027" on="1"/>
        <pt x="542" y="662" on="1"/>
        <pt x="613" y="647" on="0"/>
        <pt x="746" y="595" on="0"/>
        <pt x="848" y="511" on="0"/>
        <pt x="910" y="390" on="0"/>
        <pt x="910" y="306" on="1"/>
        <pt x="910" y="238" on="0"/>
        <pt x="857" y="122" on="0"/>
        <pt x="760" y="36" on="0"/>
        <pt x="624" y="-15" on="0"/>
        <pt x="542" y="-17" on="1"/>
        <pt x="542" y="-143" on="1"/>
        <pt x="411" y="-143" on="1"/>
      </contour>
      <contour>
        <pt x="745" y="304" on="1"/>
        <pt x="745" y="346" on="0"/>
        <pt x="715" y="408" on="0"/>
        <pt x="661" y="454" on="0"/>
        <pt x="587" y="486" on="0"/>
        <pt x="542" y="499" on="1"/>
        <pt x="542" y="117" on="1"/>
        <pt x="588" y="120" on="0"/>
        <pt x="664" y="150" on="0"/>
        <pt x="716" y="200" on="0"/>
        <pt x="745" y="266" on="0"/>
      </contour>
      <contour>
        <pt x="244" y="867" on="1"/>
        <pt x="244" y="829" on="0"/>
        <pt x="269" y="775" on="0"/>
        <pt x="314" y="734" on="0"/>
        <pt x="375" y="706" on="0"/>
        <pt x="411" y="695" on="1"/>
        <pt x="411" y="1030" on="1"/>
        <pt x="326" y="1017" on="0"/>
        <pt x="244" y="928" on="0"/>
      </contour>
    </TTGlyph>
    <TTGlyph name="dotaccent" xMin="177" yMin="950" xMax="359" yMax="1125">
      <contour>
        <pt x="268" y="1125" on="1"/>
        <pt x="287" y="1125" on="0"/>
        <pt x="320" y="1112" on="0"/>
        <pt x="345" y="1088" on="0"/>
        <pt x="359" y="1056" on="0"/>
        <pt x="359" y="1038" on="1"/>
        <pt x="359" y="1020" on="0"/>
        <pt x="345" y="988" on="0"/>
        <pt x="320" y="964" on="0"/>
        <pt x="287" y="950" on="0"/>
        <pt x="268" y="950" on="1"/>
        <pt x="249" y="950" on="0"/>
        <pt x="216" y="964" on="0"/>
        <pt x="191" y="988" on="0"/>
        <pt x="177" y="1020" on="0"/>
        <pt x="177" y="1038" on="1"/>
        <pt x="177" y="1056" on="0"/>
        <pt x="191" y="1088" on="0"/>
        <pt x="216" y="1112" on="0"/>
        <pt x="249" y="1125" on="0"/>
      </contour>
    </TTGlyph>
    <TTGlyph name="dotaccentcmb" xMin="177" yMin="950" xMax="359" yMax="1125">
      <contour>
        <pt x="268" y="1125" on="1"/>
        <pt x="287" y="1125" on="0"/>
        <pt x="320" y="1112" on="0"/>
        <pt x="345" y="1088" on="0"/>
        <pt x="359" y="1056" on="0"/>
        <pt x="359" y="1038" on="1"/>
        <pt x="359" y="1020" on="0"/>
        <pt x="345" y="988" on="0"/>
        <pt x="320" y="964" on="0"/>
        <pt x="287" y="950" on="0"/>
        <pt x="268" y="950" on="1"/>
        <pt x="249" y="950" on="0"/>
        <pt x="216" y="964" on="0"/>
        <pt x="191" y="988" on="0"/>
        <pt x="177" y="1020" on="0"/>
        <pt x="177" y="1038" on="1"/>
        <pt x="177" y="1056" on="0"/>
        <pt x="191" y="1088" on="0"/>
        <pt x="216" y="1112" on="0"/>
        <pt x="249" y="1125" on="0"/>
      </contour>
    </TTGlyph>
    <TTGlyph name="dotaccentcmb.cap" xMin="177" yMin="950" xMax="359" yMax="1125">
      <contour>
        <pt x="268" y="1125" on="1"/>
        <pt x="287" y="1125" on="0"/>
        <pt x="320" y="1112" on="0"/>
        <pt x="345" y="1088" on="0"/>
        <pt x="359" y="1056" on="0"/>
        <pt x="359" y="1038" on="1"/>
        <pt x="359" y="1020" on="0"/>
        <pt x="345" y="988" on="0"/>
        <pt x="320" y="964" on="0"/>
        <pt x="287" y="950" on="0"/>
        <pt x="268" y="950" on="1"/>
        <pt x="249" y="950" on="0"/>
        <pt x="216" y="964" on="0"/>
        <pt x="191" y="988" on="0"/>
        <pt x="177" y="1020" on="0"/>
        <pt x="177" y="1038" on="1"/>
        <pt x="177" y="1056" on="0"/>
        <pt x="191" y="1088" on="0"/>
        <pt x="216" y="1112" on="0"/>
        <pt x="249" y="1125" on="0"/>
      </contour>
    </TTGlyph>
    <TTGlyph name="dotlessi" xMin="59" yMin="0" xMax="479" yMax="805">
      <contour>
        <pt x="59" y="113" on="1"/>
        <pt x="194" y="113" on="1"/>
        <pt x="194" y="689" on="1"/>
        <pt x="59" y="689" on="1"/>
        <pt x="59" y="805" on="1"/>
        <pt x="343" y="805" on="1"/>
        <pt x="343" y="113" on="1"/>
        <pt x="479" y="113" on="1"/>
        <pt x="479" y="0" on="1"/>
        <pt x="59" y="0" on="1"/>
      </contour>
    </TTGlyph>
    <TTGlyph name="dotlessj" xMin="-60" yMin="-368" xMax="327" yMax="1153">
      <contour>
        <pt x="-60" y="-235" on="1"/>
        <pt x="-37" y="-237" on="0"/>
        <pt x="-3" y="-239" on="0"/>
        <pt x="17" y="-239" on="1"/>
        <pt x="59" y="-239" on="0"/>
        <pt x="115" y="-217" on="0"/>
        <pt x="149" y="-170" on="0"/>
        <pt x="163" y="-96" on="0"/>
        <pt x="163" y="-43" on="1"/>
        <pt x="163" y="689" on="1"/>
        <pt x="11" y="689" on="1"/>
        <pt x="11" y="805" on="1"/>
        <pt x="314" y="805" on="1"/>
        <pt x="314" y="4" on="1"/>
        <pt x="314" y="-72" on="0"/>
        <pt x="300" y="-206" on="0"/>
        <pt x="244" y="-307" on="0"/>
        <pt x="130" y="-367" on="0"/>
        <pt x="31" y="-368" on="1"/>
        <pt x="6" y="-368" on="0"/>
        <pt x="-36" y="-365" on="0"/>
        <pt x="-60" y="-361" on="1"/>
      </contour>
      <contour>
        <pt x="143" y="1066" on="1"/>
        <pt x="143" y="1103" on="0"/>
        <pt x="196" y="1153" on="0"/>
        <pt x="235" y="1153" on="1"/>
        <pt x="274" y="1153" on="0"/>
        <pt x="327" y="1103" on="0"/>
        <pt x="327" y="1066" on="1"/>
        <pt x="327" y="1029" on="0"/>
        <pt x="274" y="979" on="0"/>
        <pt x="235" y="979" on="1"/>
        <pt x="196" y="979" on="0"/>
        <pt x="143" y="1029" on="0"/>
      </contour>
    </TTGlyph>
    <TTGlyph name="dotlessj.001" xMin="-60" yMin="-367" xMax="315" yMax="805">
      <contour>
        <pt x="-60" y="-235" on="1"/>
        <pt x="-37" y="-237" on="0"/>
        <pt x="-3" y="-239" on="0"/>
        <pt x="17" y="-239" on="1"/>
        <pt x="59" y="-239" on="0"/>
        <pt x="116" y="-217" on="0"/>
        <pt x="151" y="-170" on="0"/>
        <pt x="166" y="-96" on="0"/>
        <pt x="166" y="-43" on="1"/>
        <pt x="166" y="-34" on="0"/>
        <pt x="165" y="39" on="0"/>
        <pt x="164" y="148" on="0"/>
        <pt x="163" y="282" on="0"/>
        <pt x="163" y="351" on="1"/>
        <pt x="163" y="685" on="1"/>
        <pt x="31" y="685" on="1"/>
        <pt x="31" y="805" on="1"/>
        <pt x="314" y="805" on="1"/>
        <pt x="314" y="220" on="1"/>
        <pt x="314" y="181" on="0"/>
        <pt x="314" y="104" on="0"/>
        <pt x="315" y="44" on="0"/>
        <pt x="315" y="5" on="0"/>
        <pt x="315" y="4" on="1"/>
        <pt x="315" y="-72" on="0"/>
        <pt x="301" y="-206" on="0"/>
        <pt x="244" y="-306" on="0"/>
        <pt x="130" y="-366" on="0"/>
        <pt x="31" y="-367" on="1"/>
        <pt x="6" y="-367" on="0"/>
        <pt x="-36" y="-365" on="0"/>
        <pt x="-60" y="-361" on="1"/>
      </contour>
    </TTGlyph>
    <TTGlyph name="e" xMin="55" yMin="-18" xMax="898" yMax="820">
      <contour>
        <pt x="219" y="365" on="1"/>
        <pt x="222" y="307" on="0"/>
        <pt x="264" y="212" on="0"/>
        <pt x="338" y="144" on="0"/>
        <pt x="441" y="107" on="0"/>
        <pt x="506" y="107" on="1"/>
        <pt x="545" y="107" on="0"/>
        <pt x="621" y="125" on="0"/>
        <pt x="689" y="158" on="0"/>
        <pt x="747" y="204" on="0"/>
        <pt x="767" y="233" on="1"/>
        <pt x="869" y="157" on="1"/>
        <pt x="818" y="79" on="0"/>
        <pt x="637" y="-18" on="0"/>
        <pt x="502" y="-18" on="1"/>
        <pt x="398" y="-18" on="0"/>
        <pt x="232" y="48" on="0"/>
        <pt x="117" y="162" on="0"/>
        <pt x="55" y="315" on="0"/>
        <pt x="55" y="402" on="1"/>
        <pt x="55" y="493" on="0"/>
        <pt x="123" y="647" on="0"/>
        <pt x="241" y="758" on="0"/>
        <pt x="403" y="820" on="0"/>
        <pt x="498" y="820" on="1"/>
        <pt x="597" y="820" on="0"/>
        <pt x="747" y="749" on="0"/>
        <pt x="848" y="628" on="0"/>
        <pt x="898" y="469" on="0"/>
        <pt x="898" y="382" on="1"/>
        <pt x="898" y="365" on="1"/>
      </contour>
      <contour>
        <pt x="754" y="467" on="1"/>
        <pt x="748" y="516" on="0"/>
        <pt x="708" y="599" on="0"/>
        <pt x="644" y="660" on="0"/>
        <pt x="555" y="694" on="0"/>
        <pt x="500" y="694" on="1"/>
        <pt x="439" y="694" on="0"/>
        <pt x="344" y="661" on="0"/>
        <pt x="275" y="602" on="0"/>
        <pt x="232" y="518" on="0"/>
        <pt x="223" y="467" on="1"/>
      </contour>
    </TTGlyph>
    <TTGlyph name="eacute" xMin="55" yMin="-18" xMax="898" yMax="1171">
      <component glyphName="e" x="0" y="0" flags="0x204"/>
      <component glyphName="acute" x="159" y="0" flags="0x4"/>
    </TTGlyph>
    <TTGlyph name="ecircumflex" xMin="55" yMin="-18" xMax="898" yMax="1171">
      <component glyphName="e" x="0" y="0" flags="0x204"/>
      <component glyphName="circumflex" x="181" y="0" flags="0x4"/>
    </TTGlyph>
    <TTGlyph name="edieresis" xMin="55" yMin="-18" xMax="898" yMax="1101">
      <component glyphName="e" x="0" y="0" flags="0x204"/>
      <component glyphName="dieresis" x="187" y="0" flags="0x4"/>
    </TTGlyph>
    <TTGlyph name="egrave" xMin="55" yMin="-18" xMax="898" yMax="1171">
      <component glyphName="e" x="0" y="0" flags="0x204"/>
      <component glyphName="grave" x="219" y="0" flags="0x4"/>
    </TTGlyph>
    <TTGlyph name="eight" xMin="76" yMin="-18" xMax="922" yMax="1171">
      <contour>
        <pt x="499" y="-18" on="1"/>
        <pt x="404" y="-18" on="0"/>
        <pt x="248" y="30" on="0"/>
        <pt x="137" y="117" on="0"/>
        <pt x="76" y="240" on="0"/>
        <pt x="76" y="315" on="1"/>
        <pt x="76" y="417" on="0"/>
        <pt x="187" y="569" on="0"/>
        <pt x="303" y="599" on="1"/>
        <pt x="247" y="620" on="0"/>
        <pt x="173" y="676" on="0"/>
        <pt x="128" y="744" on="0"/>
        <pt x="109" y="823" on="0"/>
        <pt x="109" y="867" on="1"/>
        <pt x="109" y="934" on="0"/>
        <pt x="164" y="1046" on="0"/>
        <pt x="266" y="1127" on="0"/>
        <pt x="410" y="1171" on="0"/>
        <pt x="499" y="1171" on="1"/>
        <pt x="588" y="1171" on="0"/>
        <pt x="732" y="1127" on="0"/>
        <pt x="834" y="1046" on="0"/>
        <pt x="889" y="934" on="0"/>
        <pt x="889" y="867" on="1"/>
        <pt x="889" y="823" on="0"/>
        <pt x="870" y="744" on="0"/>
        <pt x="825" y="676" on="0"/>
        <pt x="750" y="620" on="0"/>
        <pt x="695" y="599" on="1"/>
        <pt x="810" y="569" on="0"/>
        <pt x="922" y="417" on="0"/>
        <pt x="922" y="315" on="1"/>
        <pt x="922" y="240" on="0"/>
        <pt x="861" y="117" on="0"/>
        <pt x="750" y="30" on="0"/>
        <pt x="594" y="-18" on="0"/>
      </contour>
      <contour>
        <pt x="499" y="533" on="1"/>
        <pt x="370" y="533" on="0"/>
        <pt x="241" y="421" on="0"/>
        <pt x="241" y="321" on="1"/>
        <pt x="241" y="276" on="0"/>
        <pt x="279" y="201" on="0"/>
        <pt x="347" y="147" on="0"/>
        <pt x="442" y="117" on="0"/>
        <pt x="499" y="117" on="1"/>
        <pt x="556" y="117" on="0"/>
        <pt x="651" y="147" on="0"/>
        <pt x="719" y="201" on="0"/>
        <pt x="757" y="276" on="0"/>
        <pt x="757" y="321" on="1"/>
        <pt x="757" y="421" on="0"/>
        <pt x="628" y="533" on="0"/>
      </contour>
      <contour>
        <pt x="499" y="1040" on="1"/>
        <pt x="387" y="1040" on="0"/>
        <pt x="263" y="939" on="0"/>
        <pt x="263" y="854" on="1"/>
        <pt x="263" y="812" on="0"/>
        <pt x="298" y="743" on="0"/>
        <pt x="361" y="692" on="0"/>
        <pt x="448" y="662" on="0"/>
        <pt x="499" y="659" on="1"/>
        <pt x="550" y="662" on="0"/>
        <pt x="636" y="692" on="0"/>
        <pt x="699" y="743" on="0"/>
        <pt x="735" y="812" on="0"/>
        <pt x="735" y="854" on="1"/>
        <pt x="735" y="939" on="0"/>
        <pt x="611" y="1040" on="0"/>
      </contour>
    </TTGlyph>
    <TTGlyph name="emdash" xMin="0" yMin="0" xMax="1648" yMax="117">
      <contour>
        <pt x="1648" y="117" on="1"/>
        <pt x="1648" y="0" on="1"/>
        <pt x="0" y="0" on="1"/>
        <pt x="0" y="117" on="1"/>
      </contour>
    </TTGlyph>
    <TTGlyph name="endash" xMin="0" yMin="0" xMax="874" yMax="117">
      <contour>
        <pt x="874" y="117" on="1"/>
        <pt x="874" y="0" on="1"/>
        <pt x="0" y="0" on="1"/>
        <pt x="0" y="117" on="1"/>
      </contour>
    </TTGlyph>
    <TTGlyph name="equal" xMin="220" yMin="182" xMax="931" yMax="673">
      <contour>
        <pt x="931" y="673" on="1"/>
        <pt x="931" y="555" on="1"/>
        <pt x="220" y="555" on="1"/>
        <pt x="220" y="673" on="1"/>
      </contour>
      <contour>
        <pt x="931" y="299" on="1"/>
        <pt x="931" y="182" on="1"/>
        <pt x="220" y="182" on="1"/>
        <pt x="220" y="299" on="1"/>
      </contour>
    </TTGlyph>
    <TTGlyph name="eth" xMin="64" yMin="-19" xMax="967" yMax="1171">
      <contour>
        <pt x="122" y="1052" on="1"/>
        <pt x="171" y="1109" on="0"/>
        <pt x="324" y="1171" on="0"/>
        <pt x="424" y="1171" on="1"/>
        <pt x="545" y="1171" on="0"/>
        <pt x="711" y="1066" on="0"/>
        <pt x="763" y="969" on="1"/>
        <pt x="946" y="1006" on="1"/>
        <pt x="967" y="905" on="1"/>
        <pt x="804" y="872" on="1"/>
        <pt x="846" y="743" on="0"/>
        <pt x="846" y="568" on="1"/>
        <pt x="846" y="427" on="0"/>
        <pt x="793" y="209" on="0"/>
        <pt x="690" y="59" on="0"/>
        <pt x="535" y="-19" on="0"/>
        <pt x="433" y="-19" on="1"/>
        <pt x="346" y="-19" on="0"/>
        <pt x="209" y="41" on="0"/>
        <pt x="114" y="145" on="0"/>
        <pt x="64" y="286" on="0"/>
        <pt x="64" y="367" on="1"/>
        <pt x="64" y="442" on="0"/>
        <pt x="113" y="571" on="0"/>
        <pt x="203" y="665" on="0"/>
        <pt x="329" y="718" on="0"/>
        <pt x="407" y="718" on="1"/>
        <pt x="450" y="718" on="0"/>
        <pt x="535" y="703" on="0"/>
        <pt x="612" y="675" on="0"/>
        <pt x="678" y="634" on="0"/>
        <pt x="702" y="607" on="1"/>
        <pt x="702" y="679" on="0"/>
        <pt x="687" y="798" on="0"/>
        <pt x="673" y="846" on="1"/>
        <pt x="460" y="804" on="1"/>
        <pt x="440" y="905" on="1"/>
        <pt x="630" y="943" on="1"/>
        <pt x="600" y="1001" on="0"/>
        <pt x="492" y="1051" on="0"/>
        <pt x="429" y="1051" on="1"/>
        <pt x="394" y="1051" on="0"/>
        <pt x="324" y="1037" on="0"/>
        <pt x="261" y="1013" on="0"/>
        <pt x="207" y="980" on="0"/>
        <pt x="188" y="961" on="1"/>
      </contour>
      <contour>
        <pt x="696" y="457" on="1"/>
        <pt x="667" y="490" on="0"/>
        <pt x="596" y="537" on="0"/>
        <pt x="522" y="568" on="0"/>
        <pt x="452" y="583" on="0"/>
        <pt x="424" y="583" on="1"/>
        <pt x="371" y="583" on="0"/>
        <pt x="289" y="549" on="0"/>
        <pt x="232" y="489" on="0"/>
        <pt x="203" y="407" on="0"/>
        <pt x="203" y="358" on="1"/>
        <pt x="203" y="305" on="0"/>
        <pt x="233" y="213" on="0"/>
        <pt x="293" y="145" on="0"/>
        <pt x="381" y="106" on="0"/>
        <pt x="439" y="106" on="1"/>
        <pt x="502" y="106" on="0"/>
        <pt x="592" y="151" on="0"/>
        <pt x="653" y="239" on="0"/>
        <pt x="688" y="370" on="0"/>
      </contour>
    </TTGlyph>
    <TTGlyph name="exclam" xMin="127" yMin="0" xMax="339" yMax="1171">
      <contour>
        <pt x="147" y="821" on="1"/>
        <pt x="147" y="1171" on="1"/>
        <pt x="319" y="1171" on="1"/>
        <pt x="319" y="821" on="1"/>
        <pt x="277" y="324" on="1"/>
        <pt x="189" y="324" on="1"/>
      </contour>
      <contour>
        <pt x="127" y="212" on="1"/>
        <pt x="339" y="212" on="1"/>
        <pt x="339" y="0" on="1"/>
        <pt x="127" y="0" on="1"/>
      </contour>
    </TTGlyph>
    <TTGlyph name="exclamdown" xMin="127" yMin="0" xMax="339" yMax="1171">
      <contour>
        <pt x="189" y="847" on="1"/>
        <pt x="277" y="847" on="1"/>
        <pt x="319" y="350" on="1"/>
        <pt x="319" y="0" on="1"/>
        <pt x="147" y="0" on="1"/>
        <pt x="147" y="350" on="1"/>
      </contour>
      <contour>
        <pt x="127" y="1171" on="1"/>
        <pt x="339" y="1171" on="1"/>
        <pt x="339" y="959" on="1"/>
        <pt x="127" y="959" on="1"/>
      </contour>
    </TTGlyph>
    <TTGlyph name="f" xMin="56" yMin="0" xMax="610" yMax="1171">
      <contour>
        <pt x="65" y="107" on="1"/>
        <pt x="185" y="107" on="1"/>
        <pt x="185" y="694" on="1"/>
        <pt x="56" y="694" on="1"/>
        <pt x="56" y="805" on="1"/>
        <pt x="185" y="805" on="1"/>
        <pt x="186" y="943" on="1"/>
        <pt x="186" y="1000" on="0"/>
        <pt x="220" y="1085" on="0"/>
        <pt x="281" y="1142" on="0"/>
        <pt x="366" y="1171" on="0"/>
        <pt x="418" y="1171" on="1"/>
        <pt x="494" y="1171" on="0"/>
        <pt x="598" y="1089" on="0"/>
        <pt x="610" y="1014" on="1"/>
        <pt x="502" y="979" on="1"/>
        <pt x="491" y="1017" on="0"/>
        <pt x="446" y="1053" on="0"/>
        <pt x="422" y="1053" on="1"/>
        <pt x="406" y="1053" on="0"/>
        <pt x="375" y="1043" on="0"/>
        <pt x="351" y="1016" on="0"/>
        <pt x="336" y="970" on="0"/>
        <pt x="336" y="934" on="1"/>
        <pt x="336" y="805" on="1"/>
        <pt x="489" y="805" on="1"/>
        <pt x="489" y="694" on="1"/>
        <pt x="336" y="694" on="1"/>
        <pt x="336" y="107" on="1"/>
        <pt x="498" y="107" on="1"/>
        <pt x="498" y="0" on="1"/>
        <pt x="65" y="0" on="1"/>
      </contour>
    </TTGlyph>
    <TTGlyph name="five" xMin="92" yMin="-19" xMax="873" yMax="1153">
      <contour>
        <pt x="235" y="330" on="1"/>
        <pt x="254" y="224" on="0"/>
        <pt x="373" y="108" on="0"/>
        <pt x="470" y="108" on="1"/>
        <pt x="530" y="108" on="0"/>
        <pt x="621" y="147" on="0"/>
        <pt x="682" y="214" on="0"/>
        <pt x="713" y="306" on="0"/>
        <pt x="713" y="360" on="1"/>
        <pt x="713" y="427" on="0"/>
        <pt x="677" y="526" on="0"/>
        <pt x="615" y="592" on="0"/>
        <pt x="532" y="625" on="0"/>
        <pt x="485" y="625" on="1"/>
        <pt x="422" y="625" on="0"/>
        <pt x="296" y="570" on="0"/>
        <pt x="238" y="512" on="1"/>
        <pt x="155" y="557" on="1"/>
        <pt x="155" y="1153" on="1"/>
        <pt x="800" y="1153" on="1"/>
        <pt x="800" y="916" on="1"/>
        <pt x="662" y="916" on="1"/>
        <pt x="662" y="1016" on="1"/>
        <pt x="283" y="1016" on="1"/>
        <pt x="275" y="922" on="0"/>
        <pt x="261" y="745" on="0"/>
        <pt x="254" y="651" on="1"/>
        <pt x="297" y="711" on="0"/>
        <pt x="420" y="764" on="0"/>
        <pt x="498" y="764" on="1"/>
        <pt x="584" y="764" on="0"/>
        <pt x="723" y="705" on="0"/>
        <pt x="820" y="598" on="0"/>
        <pt x="873" y="450" on="0"/>
        <pt x="873" y="361" on="1"/>
        <pt x="873" y="284" on="0"/>
        <pt x="826" y="147" on="0"/>
        <pt x="727" y="42" on="0"/>
        <pt x="575" y="-19" on="0"/>
        <pt x="470" y="-19" on="1"/>
        <pt x="384" y="-19" on="0"/>
        <pt x="249" y="29" on="0"/>
        <pt x="153" y="119" on="0"/>
        <pt x="98" y="248" on="0"/>
        <pt x="92" y="329" on="1"/>
      </contour>
    </TTGlyph>
    <TTGlyph name="four" xMin="24" yMin="0" xMax="815" yMax="1153">
      <contour>
        <pt x="319" y="125" on="1"/>
        <pt x="483" y="125" on="1"/>
        <pt x="483" y="315" on="1"/>
        <pt x="24" y="315" on="1"/>
        <pt x="24" y="436" on="1"/>
        <pt x="487" y="1153" on="1"/>
        <pt x="625" y="1153" on="1"/>
        <pt x="625" y="436" on="1"/>
        <pt x="815" y="436" on="1"/>
        <pt x="815" y="315" on="1"/>
        <pt x="625" y="315" on="1"/>
        <pt x="625" y="125" on="1"/>
        <pt x="774" y="125" on="1"/>
        <pt x="774" y="0" on="1"/>
        <pt x="319" y="0" on="1"/>
      </contour>
      <contour>
        <pt x="483" y="947" on="1"/>
        <pt x="168" y="436" on="1"/>
        <pt x="483" y="436" on="1"/>
      </contour>
    </TTGlyph>
    <TTGlyph name="g" xMin="58" yMin="-360" xMax="1049" yMax="820">
      <contour>
        <pt x="485" y="-360" on="1"/>
        <pt x="438" y="-360" on="0"/>
        <pt x="358" y="-349" on="0"/>
        <pt x="285" y="-326" on="0"/>
        <pt x="216" y="-290" on="0"/>
        <pt x="181" y="-265" on="1"/>
        <pt x="248" y="-163" on="1"/>
        <pt x="299" y="-200" on="0"/>
        <pt x="417" y="-236" on="0"/>
        <pt x="478" y="-236" on="1"/>
        <pt x="523" y="-236" on="0"/>
        <pt x="618" y="-212" on="0"/>
        <pt x="697" y="-156" on="0"/>
        <pt x="748" y="-65" on="0"/>
        <pt x="748" y="3" on="1"/>
        <pt x="748" y="93" on="1"/>
        <pt x="727" y="73" on="0"/>
        <pt x="662" y="40" on="0"/>
        <pt x="584" y="14" on="0"/>
        <pt x="499" y="0" on="0"/>
        <pt x="458" y="0" on="1"/>
        <pt x="365" y="0" on="0"/>
        <pt x="217" y="62" on="0"/>
        <pt x="113" y="169" on="0"/>
        <pt x="58" y="312" on="0"/>
        <pt x="58" y="392" on="1"/>
        <pt x="58" y="479" on="0"/>
        <pt x="115" y="634" on="0"/>
        <pt x="221" y="751" on="0"/>
        <pt x="371" y="820" on="0"/>
        <pt x="464" y="820" on="1"/>
        <pt x="623" y="820" on="0"/>
        <pt x="748" y="709" on="1"/>
        <pt x="748" y="805" on="1"/>
        <pt x="1049" y="805" on="1"/>
        <pt x="1049" y="694" on="1"/>
        <pt x="898" y="694" on="1"/>
        <pt x="898" y="381" on="1"/>
        <pt x="898" y="324" on="0"/>
        <pt x="898" y="212" on="0"/>
        <pt x="899" y="122" on="0"/>
        <pt x="899" y="63" on="0"/>
        <pt x="899" y="57" on="1"/>
        <pt x="899" y="-62" on="0"/>
        <pt x="826" y="-222" on="0"/>
        <pt x="709" y="-319" on="0"/>
        <pt x="561" y="-360" on="0"/>
      </contour>
      <contour>
        <pt x="485" y="125" on="1"/>
        <pt x="528" y="125" on="0"/>
        <pt x="605" y="145" on="0"/>
        <pt x="671" y="175" on="0"/>
        <pt x="726" y="212" on="0"/>
        <pt x="748" y="229" on="1"/>
        <pt x="748" y="571" on="1"/>
        <pt x="728" y="590" on="0"/>
        <pt x="675" y="633" on="0"/>
        <pt x="609" y="670" on="0"/>
        <pt x="532" y="694" on="0"/>
        <pt x="488" y="694" on="1"/>
        <pt x="425" y="694" on="0"/>
        <pt x="325" y="647" on="0"/>
        <pt x="254" y="566" on="0"/>
        <pt x="217" y="457" on="0"/>
        <pt x="217" y="396" on="1"/>
        <pt x="217" y="340" on="0"/>
        <pt x="253" y="241" on="0"/>
        <pt x="321" y="167" on="0"/>
        <pt x="421" y="125" on="0"/>
      </contour>
    </TTGlyph>
    <TTGlyph name="germandbls" xMin="72" yMin="0" xMax="1035" yMax="1171">
      <contour>
        <pt x="493" y="125" on="1"/>
        <pt x="493" y="0" on="1"/>
        <pt x="72" y="0" on="1"/>
        <pt x="72" y="125" on="1"/>
        <pt x="222" y="125" on="1"/>
        <pt x="222" y="786" on="1"/>
        <pt x="222" y="877" on="0"/>
        <pt x="268" y="1020" on="0"/>
        <pt x="363" y="1119" on="0"/>
        <pt x="507" y="1171" on="0"/>
        <pt x="606" y="1171" on="1"/>
        <pt x="678" y="1171" on="0"/>
        <pt x="795" y="1130" on="0"/>
        <pt x="879" y="1056" on="0"/>
        <pt x="925" y="952" on="0"/>
        <pt x="925" y="889" on="1"/>
        <pt x="925" y="802" on="0"/>
        <pt x="841" y="670" on="0"/>
        <pt x="748" y="641" on="1"/>
        <pt x="815" y="630" on="0"/>
        <pt x="922" y="578" on="0"/>
        <pt x="996" y="502" on="0"/>
        <pt x="1035" y="404" on="0"/>
        <pt x="1035" y="346" on="1"/>
        <pt x="1035" y="271" on="0"/>
        <pt x="989" y="144" on="0"/>
        <pt x="887" y="52" on="0"/>
        <pt x="727" y="0" on="0"/>
        <pt x="613" y="0" on="1"/>
        <pt x="613" y="125" on="1"/>
        <pt x="669" y="125" on="0"/>
        <pt x="769" y="144" on="0"/>
        <pt x="845" y="193" on="0"/>
        <pt x="889" y="279" on="0"/>
        <pt x="889" y="346" on="1"/>
        <pt x="889" y="392" on="0"/>
        <pt x="856" y="473" on="0"/>
        <pt x="782" y="534" on="0"/>
        <pt x="661" y="569" on="0"/>
        <pt x="573" y="569" on="1"/>
        <pt x="573" y="675" on="1"/>
        <pt x="630" y="675" on="0"/>
        <pt x="710" y="710" on="0"/>
        <pt x="760" y="768" on="0"/>
        <pt x="782" y="841" on="0"/>
        <pt x="782" y="879" on="1"/>
        <pt x="782" y="917" on="0"/>
        <pt x="757" y="979" on="0"/>
        <pt x="711" y="1024" on="0"/>
        <pt x="646" y="1048" on="0"/>
        <pt x="606" y="1048" on="1"/>
        <pt x="551" y="1048" on="0"/>
        <pt x="461" y="1021" on="0"/>
        <pt x="397" y="959" on="0"/>
        <pt x="362" y="861" on="0"/>
        <pt x="362" y="790" on="1"/>
        <pt x="362" y="125" on="1"/>
      </contour>
    </TTGlyph>
    <TTGlyph name="grave" xMin="105" yMin="914" xMax="411" yMax="1171">
      <contour>
        <pt x="292" y="914" on="1"/>
        <pt x="105" y="1171" on="1"/>
        <pt x="312" y="1171" on="1"/>
        <pt x="411" y="914" on="1"/>
      </contour>
    </TTGlyph>
    <TTGlyph name="grave.cap" xMin="105" yMin="914" xMax="411" yMax="1171">
      <contour>
        <pt x="292" y="914" on="1"/>
        <pt x="105" y="1171" on="1"/>
        <pt x="312" y="1171" on="1"/>
        <pt x="411" y="914" on="1"/>
      </contour>
    </TTGlyph>
    <TTGlyph name="greater" xMin="117" yMin="124" xMax="1053" yMax="1019">
      <contour>
        <pt x="117" y="891" on="1"/>
        <pt x="117" y="1019" on="1"/>
        <pt x="1053" y="625" on="1"/>
        <pt x="1053" y="518" on="1"/>
        <pt x="117" y="124" on="1"/>
        <pt x="117" y="252" on="1"/>
        <pt x="896" y="572" on="1"/>
      </contour>
    </TTGlyph>
    <TTGlyph name="guillemotleft" xMin="62" yMin="0" xMax="838" yMax="837">
      <contour>
        <pt x="838" y="0" on="1"/>
        <pt x="696" y="0" on="1"/>
        <pt x="431" y="418" on="1"/>
        <pt x="696" y="837" on="1"/>
        <pt x="838" y="837" on="1"/>
        <pt x="581" y="418" on="1"/>
      </contour>
      <contour>
        <pt x="468" y="0" on="1"/>
        <pt x="325" y="0" on="1"/>
        <pt x="62" y="418" on="1"/>
        <pt x="325" y="837" on="1"/>
        <pt x="468" y="837" on="1"/>
        <pt x="210" y="418" on="1"/>
      </contour>
    </TTGlyph>
    <TTGlyph name="guillemotright" xMin="66" yMin="0" xMax="843" yMax="837">
      <contour>
        <pt x="437" y="837" on="1"/>
        <pt x="580" y="837" on="1"/>
        <pt x="843" y="418" on="1"/>
        <pt x="580" y="0" on="1"/>
        <pt x="437" y="0" on="1"/>
        <pt x="694" y="418" on="1"/>
      </contour>
      <contour>
        <pt x="66" y="837" on="1"/>
        <pt x="209" y="837" on="1"/>
        <pt x="473" y="418" on="1"/>
        <pt x="209" y="0" on="1"/>
        <pt x="66" y="0" on="1"/>
        <pt x="323" y="418" on="1"/>
      </contour>
    </TTGlyph>
    <TTGlyph name="guilsinglleft" xMin="61" yMin="0" xMax="468" yMax="837">
      <contour>
        <pt x="468" y="0" on="1"/>
        <pt x="325" y="0" on="1"/>
        <pt x="61" y="418" on="1"/>
        <pt x="325" y="837" on="1"/>
        <pt x="468" y="837" on="1"/>
        <pt x="210" y="418" on="1"/>
      </contour>
    </TTGlyph>
    <TTGlyph name="guilsinglright" xMin="65" yMin="0" xMax="472" yMax="837">
      <contour>
        <pt x="65" y="837" on="1"/>
        <pt x="208" y="837" on="1"/>
        <pt x="472" y="418" on="1"/>
        <pt x="208" y="0" on="1"/>
        <pt x="65" y="0" on="1"/>
        <pt x="323" y="418" on="1"/>
      </contour>
    </TTGlyph>
    <TTGlyph name="h" xMin="21" yMin="0" xMax="1025" yMax="1153">
      <contour>
        <pt x="21" y="107" on="1"/>
        <pt x="173" y="107" on="1"/>
        <pt x="173" y="1032" on="1"/>
        <pt x="23" y="1032" on="1"/>
        <pt x="23" y="1153" on="1"/>
        <pt x="322" y="1153" on="1"/>
        <pt x="322" y="726" on="1"/>
        <pt x="464" y="820" on="0"/>
        <pt x="626" y="820" on="1"/>
        <pt x="882" y="820" on="0"/>
        <pt x="882" y="556" on="1"/>
        <pt x="882" y="553" on="0"/>
        <pt x="882" y="514" on="0"/>
        <pt x="881" y="452" on="0"/>
        <pt x="881" y="375" on="0"/>
        <pt x="881" y="335" on="1"/>
        <pt x="881" y="107" on="1"/>
        <pt x="1025" y="107" on="1"/>
        <pt x="1025" y="0" on="1"/>
        <pt x="631" y="0" on="1"/>
        <pt x="631" y="107" on="1"/>
        <pt x="733" y="107" on="1"/>
        <pt x="733" y="528" on="1"/>
        <pt x="733" y="562" on="0"/>
        <pt x="721" y="623" on="0"/>
        <pt x="689" y="668" on="0"/>
        <pt x="635" y="694" on="0"/>
        <pt x="593" y="694" on="1"/>
        <pt x="532" y="694" on="0"/>
        <pt x="389" y="652" on="0"/>
        <pt x="322" y="607" on="1"/>
        <pt x="322" y="107" on="1"/>
        <pt x="467" y="107" on="1"/>
        <pt x="467" y="0" on="1"/>
        <pt x="21" y="0" on="1"/>
      </contour>
    </TTGlyph>
    <TTGlyph name="hbar" xMin="21" yMin="0" xMax="1025" yMax="1153">
      <component glyphName="h" x="0" y="0" flags="0x204"/>
      <component glyphName="macron" x="-44" y="-235" flags="0x4"/>
    </TTGlyph>
    <TTGlyph name="hungarumlaut" xMin="25" yMin="899" xMax="567" yMax="1171">
      <contour>
        <pt x="287" y="899" on="1"/>
        <pt x="377" y="1171" on="1"/>
        <pt x="567" y="1171" on="1"/>
        <pt x="382" y="899" on="1"/>
      </contour>
      <contour>
        <pt x="25" y="899" on="1"/>
        <pt x="116" y="1171" on="1"/>
        <pt x="306" y="1171" on="1"/>
        <pt x="121" y="899" on="1"/>
      </contour>
    </TTGlyph>
    <TTGlyph name="hyphen" xMin="101" yMin="340" xMax="618" yMax="484">
      <contour>
        <pt x="101" y="484" on="1"/>
        <pt x="618" y="484" on="1"/>
        <pt x="618" y="340" on="1"/>
        <pt x="101" y="340" on="1"/>
      </contour>
    </TTGlyph>
    <TTGlyph name="i" xMin="59" yMin="0" xMax="479" yMax="1153">
      <contour>
        <pt x="59" y="107" on="1"/>
        <pt x="194" y="107" on="1"/>
        <pt x="194" y="694" on="1"/>
        <pt x="59" y="694" on="1"/>
        <pt x="59" y="805" on="1"/>
        <pt x="343" y="805" on="1"/>
        <pt x="343" y="107" on="1"/>
        <pt x="479" y="107" on="1"/>
        <pt x="479" y="0" on="1"/>
        <pt x="59" y="0" on="1"/>
      </contour>
      <contour>
        <pt x="176" y="1066" on="1"/>
        <pt x="176" y="1084" on="0"/>
        <pt x="190" y="1116" on="0"/>
        <pt x="215" y="1140" on="0"/>
        <pt x="248" y="1153" on="0"/>
        <pt x="267" y="1153" on="1"/>
        <pt x="306" y="1153" on="0"/>
        <pt x="359" y="1103" on="0"/>
        <pt x="359" y="1066" on="1"/>
        <pt x="359" y="1029" on="0"/>
        <pt x="306" y="979" on="0"/>
        <pt x="267" y="979" on="1"/>
        <pt x="248" y="979" on="0"/>
        <pt x="215" y="992" on="0"/>
        <pt x="190" y="1016" on="0"/>
        <pt x="176" y="1048" on="0"/>
      </contour>
    </TTGlyph>
    <TTGlyph name="iacute" xMin="59" yMin="0" xMax="497" yMax="1198">
      <component glyphName="acute" x="26" y="27" flags="0x4"/>
      <component glyphName="dotlessi" x="0" y="0" flags="0x4"/>
    </TTGlyph>
    <TTGlyph name="icircumflex" xMin="-37" yMin="0" xMax="479" yMax="1200">
      <component glyphName="circumflex" x="-95" y="29" flags="0x4"/>
      <component glyphName="dotlessi" x="0" y="0" flags="0x4"/>
    </TTGlyph>
    <TTGlyph name="idieresis" xMin="-26" yMin="0" xMax="479" yMax="1090">
      <component glyphName="dieresis" x="-84" y="-11" flags="0x4"/>
      <component glyphName="dotlessi" x="0" y="0" flags="0x4"/>
    </TTGlyph>
    <TTGlyph name="igrave" xMin="-82" yMin="0" xMax="479" yMax="1198">
      <component glyphName="grave" x="-187" y="27" flags="0x4"/>
      <component glyphName="dotlessi" x="0" y="0" flags="0x4"/>
    </TTGlyph>
    <TTGlyph name="ij" xMin="59" yMin="-368" xMax="828" yMax="1153">
      <component glyphName="i" x="0" y="0" flags="0x4"/>
      <component glyphName="j" x="501" y="0" flags="0x4"/>
    </TTGlyph>
    <TTGlyph name="itilde" xMin="-48" yMin="0" xMax="561" yMax="1189">
      <component glyphName="dotlessi" x="0" y="0" flags="0x204"/>
      <component glyphName="tilde" x="-37" y="0" flags="0x4"/>
    </TTGlyph>
    <TTGlyph name="j" xMin="-60" yMin="-368" xMax="327" yMax="1153">
      <contour>
        <pt x="-60" y="-235" on="1"/>
        <pt x="-37" y="-237" on="0"/>
        <pt x="-3" y="-239" on="0"/>
        <pt x="17" y="-239" on="1"/>
        <pt x="59" y="-239" on="0"/>
        <pt x="115" y="-217" on="0"/>
        <pt x="149" y="-170" on="0"/>
        <pt x="163" y="-96" on="0"/>
        <pt x="163" y="-43" on="1"/>
        <pt x="163" y="694" on="1"/>
        <pt x="11" y="694" on="1"/>
        <pt x="11" y="805" on="1"/>
        <pt x="314" y="805" on="1"/>
        <pt x="314" y="4" on="1"/>
        <pt x="314" y="-72" on="0"/>
        <pt x="300" y="-206" on="0"/>
        <pt x="244" y="-307" on="0"/>
        <pt x="130" y="-367" on="0"/>
        <pt x="31" y="-368" on="1"/>
        <pt x="6" y="-368" on="0"/>
        <pt x="-36" y="-365" on="0"/>
        <pt x="-60" y="-361" on="1"/>
      </contour>
      <contour>
        <pt x="143" y="1066" on="1"/>
        <pt x="143" y="1103" on="0"/>
        <pt x="196" y="1153" on="0"/>
        <pt x="235" y="1153" on="1"/>
        <pt x="274" y="1153" on="0"/>
        <pt x="327" y="1103" on="0"/>
        <pt x="327" y="1066" on="1"/>
        <pt x="327" y="1029" on="0"/>
        <pt x="274" y="979" on="0"/>
        <pt x="235" y="979" on="1"/>
        <pt x="196" y="979" on="0"/>
        <pt x="143" y="1029" on="0"/>
      </contour>
    </TTGlyph>
    <TTGlyph name="jcircumflex" xMin="-60" yMin="-368" xMax="460" yMax="1171">
      <component glyphName="dotlessj" x="0" y="0" flags="0x204"/>
      <component glyphName="circumflex" x="-75" y="0" flags="0x4"/>
    </TTGlyph>
    <TTGlyph name="k" xMin="20" yMin="0" xMax="966" yMax="1153">
      <contour>
        <pt x="20" y="107" on="1"/>
        <pt x="173" y="107" on="1"/>
        <pt x="173" y="1032" on="1"/>
        <pt x="20" y="1032" on="1"/>
        <pt x="20" y="1153" on="1"/>
        <pt x="321" y="1153" on="1"/>
        <pt x="321" y="430" on="1"/>
        <pt x="650" y="694" on="1"/>
        <pt x="511" y="694" on="1"/>
        <pt x="511" y="805" on="1"/>
        <pt x="958" y="805" on="1"/>
        <pt x="958" y="694" on="1"/>
        <pt x="826" y="694" on="1"/>
        <pt x="494" y="415" on="1"/>
        <pt x="836" y="107" on="1"/>
        <pt x="966" y="107" on="1"/>
        <pt x="966" y="0" on="1"/>
        <pt x="545" y="0" on="1"/>
        <pt x="545" y="107" on="1"/>
        <pt x="651" y="107" on="1"/>
        <pt x="321" y="405" on="1"/>
        <pt x="321" y="107" on="1"/>
        <pt x="426" y="107" on="1"/>
        <pt x="426" y="0" on="1"/>
        <pt x="20" y="0" on="1"/>
      </contour>
    </TTGlyph>
    <TTGlyph name="kcommaaccent" xMin="20" yMin="-567" xMax="966" yMax="1153">
      <component glyphName="k" x="0" y="0" flags="0x204"/>
      <component glyphName="commaaccent" x="283" y="-678" flags="0x4"/>
    </TTGlyph>
    <TTGlyph name="kgreenlandic" xMin="20" yMin="0" xMax="966" yMax="819">
      <contour>
        <pt x="20" y="113" on="1"/>
        <pt x="173" y="113" on="1"/>
        <pt x="173" y="698" on="1"/>
        <pt x="20" y="698" on="1"/>
        <pt x="20" y="819" on="1"/>
        <pt x="321" y="819" on="1"/>
        <pt x="321" y="420" on="1"/>
        <pt x="650" y="689" on="1"/>
        <pt x="511" y="689" on="1"/>
        <pt x="511" y="805" on="1"/>
        <pt x="958" y="805" on="1"/>
        <pt x="958" y="689" on="1"/>
        <pt x="826" y="689" on="1"/>
        <pt x="494" y="405" on="1"/>
        <pt x="836" y="113" on="1"/>
        <pt x="966" y="113" on="1"/>
        <pt x="966" y="0" on="1"/>
        <pt x="545" y="0" on="1"/>
        <pt x="545" y="113" on="1"/>
        <pt x="651" y="113" on="1"/>
        <pt x="321" y="395" on="1"/>
        <pt x="321" y="113" on="1"/>
        <pt x="426" y="113" on="1"/>
        <pt x="426" y="0" on="1"/>
        <pt x="20" y="0" on="1"/>
      </contour>
    </TTGlyph>
    <TTGlyph name="l" xMin="21" yMin="0" xMax="455" yMax="1153">
      <contour>
        <pt x="21" y="107" on="1"/>
        <pt x="173" y="107" on="1"/>
        <pt x="173" y="1032" on="1"/>
        <pt x="24" y="1032" on="1"/>
        <pt x="24" y="1153" on="1"/>
        <pt x="322" y="1153" on="1"/>
        <pt x="322" y="107" on="1"/>
        <pt x="455" y="107" on="1"/>
        <pt x="455" y="0" on="1"/>
        <pt x="21" y="0" on="1"/>
      </contour>
    </TTGlyph>
    <TTGlyph name="ldot" xMin="21" yMin="0" xMax="760" yMax="1153">
      <contour>
        <pt x="588" y="679" on="1"/>
        <pt x="760" y="679" on="1"/>
        <pt x="760" y="482" on="1"/>
        <pt x="588" y="482" on="1"/>
      </contour>
      <contour>
        <pt x="21" y="107" on="1"/>
        <pt x="173" y="107" on="1"/>
        <pt x="173" y="1032" on="1"/>
        <pt x="24" y="1032" on="1"/>
        <pt x="24" y="1153" on="1"/>
        <pt x="322" y="1153" on="1"/>
        <pt x="322" y="107" on="1"/>
        <pt x="455" y="107" on="1"/>
        <pt x="455" y="0" on="1"/>
        <pt x="21" y="0" on="1"/>
      </contour>
    </TTGlyph>
    <TTGlyph name="less" xMin="55" yMin="124" xMax="991" yMax="1019">
      <contour>
        <pt x="212" y="572" on="1"/>
        <pt x="991" y="252" on="1"/>
        <pt x="991" y="124" on="1"/>
        <pt x="55" y="518" on="1"/>
        <pt x="55" y="625" on="1"/>
        <pt x="991" y="1019" on="1"/>
        <pt x="991" y="891" on="1"/>
      </contour>
    </TTGlyph>
    <TTGlyph name="logicalnot" xMin="56" yMin="304" xMax="993" yMax="842">
      <contour>
        <pt x="993" y="842" on="1"/>
        <pt x="993" y="304" on="1"/>
        <pt x="876" y="304" on="1"/>
        <pt x="876" y="724" on="1"/>
        <pt x="56" y="724" on="1"/>
        <pt x="56" y="842" on="1"/>
      </contour>
    </TTGlyph>
    <TTGlyph name="lslash" xMin="21" yMin="0" xMax="472" yMax="1153">
      <contour>
        <pt x="21" y="113" on="1"/>
        <pt x="173" y="113" on="1"/>
        <pt x="173" y="501" on="1"/>
        <pt x="36" y="450" on="1"/>
        <pt x="36" y="579" on="1"/>
        <pt x="173" y="632" on="1"/>
        <pt x="173" y="1032" on="1"/>
        <pt x="24" y="1032" on="1"/>
        <pt x="24" y="1153" on="1"/>
        <pt x="322" y="1153" on="1"/>
        <pt x="322" y="690" on="1"/>
        <pt x="472" y="748" on="1"/>
        <pt x="472" y="612" on="1"/>
        <pt x="322" y="556" on="1"/>
        <pt x="322" y="113" on="1"/>
        <pt x="455" y="113" on="1"/>
        <pt x="455" y="0" on="1"/>
        <pt x="21" y="0" on="1"/>
      </contour>
    </TTGlyph>
    <TTGlyph name="m" xMin="58" yMin="0" xMax="1542" yMax="820">
      <contour>
        <pt x="208" y="694" on="1"/>
        <pt x="65" y="694" on="1"/>
        <pt x="65" y="805" on="1"/>
        <pt x="354" y="805" on="1"/>
        <pt x="359" y="698" on="1"/>
        <pt x="428" y="756" on="0"/>
        <pt x="563" y="820" on="0"/>
        <pt x="641" y="820" on="1"/>
        <pt x="722" y="820" on="0"/>
        <pt x="832" y="746" on="0"/>
        <pt x="859" y="680" on="1"/>
        <pt x="939" y="748" on="0"/>
        <pt x="1079" y="820" on="0"/>
        <pt x="1159" y="820" on="1"/>
        <pt x="1221" y="820" on="0"/>
        <pt x="1311" y="781" on="0"/>
        <pt x="1369" y="713" on="0"/>
        <pt x="1397" y="621" on="0"/>
        <pt x="1397" y="568" on="1"/>
        <pt x="1397" y="107" on="1"/>
        <pt x="1542" y="107" on="1"/>
        <pt x="1542" y="0" on="1"/>
        <pt x="1137" y="0" on="1"/>
        <pt x="1137" y="107" on="1"/>
        <pt x="1250" y="107" on="1"/>
        <pt x="1250" y="537" on="1"/>
        <pt x="1250" y="609" on="0"/>
        <pt x="1191" y="694" on="0"/>
        <pt x="1122" y="694" on="1"/>
        <pt x="1088" y="694" on="0"/>
        <pt x="1015" y="667" on="0"/>
        <pt x="949" y="627" on="0"/>
        <pt x="895" y="581" on="0"/>
        <pt x="880" y="561" on="1"/>
        <pt x="880" y="107" on="1"/>
        <pt x="1005" y="107" on="1"/>
        <pt x="1005" y="0" on="1"/>
        <pt x="616" y="0" on="1"/>
        <pt x="616" y="107" on="1"/>
        <pt x="728" y="107" on="1"/>
        <pt x="728" y="534" on="1"/>
        <pt x="728" y="619" on="0"/>
        <pt x="662" y="694" on="0"/>
        <pt x="599" y="694" on="1"/>
        <pt x="536" y="694" on="0"/>
        <pt x="423" y="631" on="0"/>
        <pt x="359" y="571" on="1"/>
        <pt x="359" y="107" on="1"/>
        <pt x="484" y="107" on="1"/>
        <pt x="484" y="0" on="1"/>
        <pt x="58" y="0" on="1"/>
        <pt x="58" y="107" on="1"/>
        <pt x="208" y="107" on="1"/>
      </contour>
    </TTGlyph>
    <TTGlyph name="macron" xMin="131" yMin="1086" xMax="457" yMax="1171">
      <contour>
        <pt x="131" y="1171" on="1"/>
        <pt x="457" y="1171" on="1"/>
        <pt x="457" y="1086" on="1"/>
        <pt x="131" y="1086" on="1"/>
      </contour>
    </TTGlyph>
    <TTGlyph name="mu" xMin="32" yMin="-368" xMax="970" yMax="805">
      <contour>
        <pt x="678" y="0" on="1"/>
        <pt x="673" y="100" on="1"/>
        <pt x="607" y="40" on="0"/>
        <pt x="476" y="-18" on="0"/>
        <pt x="401" y="-18" on="1"/>
        <pt x="328" y="-18" on="0"/>
        <pt x="281" y="4" on="1"/>
        <pt x="281" y="-368" on="1"/>
        <pt x="152" y="-368" on="1"/>
        <pt x="152" y="689" on="1"/>
        <pt x="32" y="689" on="1"/>
        <pt x="32" y="805" on="1"/>
        <pt x="304" y="805" on="1"/>
        <pt x="304" y="268" on="1"/>
        <pt x="304" y="190" on="0"/>
        <pt x="360" y="107" on="0"/>
        <pt x="429" y="107" on="1"/>
        <pt x="499" y="107" on="0"/>
        <pt x="625" y="187" on="0"/>
        <pt x="673" y="250" on="1"/>
        <pt x="673" y="689" on="1"/>
        <pt x="528" y="689" on="1"/>
        <pt x="528" y="805" on="1"/>
        <pt x="824" y="805" on="1"/>
        <pt x="824" y="113" on="1"/>
        <pt x="970" y="113" on="1"/>
        <pt x="970" y="0" on="1"/>
      </contour>
    </TTGlyph>
    <TTGlyph name="multiply" xMin="180" yMin="143" xMax="767" yMax="727">
      <contour>
        <pt x="390" y="434" on="1"/>
        <pt x="180" y="644" on="1"/>
        <pt x="263" y="727" on="1"/>
        <pt x="473" y="517" on="1"/>
        <pt x="684" y="727" on="1"/>
        <pt x="767" y="644" on="1"/>
        <pt x="556" y="434" on="1"/>
        <pt x="767" y="225" on="1"/>
        <pt x="683" y="143" on="1"/>
        <pt x="473" y="352" on="1"/>
        <pt x="264" y="143" on="1"/>
        <pt x="180" y="225" on="1"/>
      </contour>
    </TTGlyph>
    <TTGlyph name="n" xMin="57" yMin="0" xMax="1019" yMax="820">
      <contour>
        <pt x="63" y="107" on="1"/>
        <pt x="206" y="107" on="1"/>
        <pt x="206" y="694" on="1"/>
        <pt x="57" y="694" on="1"/>
        <pt x="57" y="805" on="1"/>
        <pt x="353" y="805" on="1"/>
        <pt x="357" y="701" on="1"/>
        <pt x="434" y="761" on="0"/>
        <pt x="566" y="820" on="0"/>
        <pt x="640" y="820" on="1"/>
        <pt x="695" y="820" on="0"/>
        <pt x="782" y="784" on="0"/>
        <pt x="843" y="716" on="0"/>
        <pt x="875" y="621" on="0"/>
        <pt x="875" y="562" on="1"/>
        <pt x="874" y="107" on="1"/>
        <pt x="1019" y="107" on="1"/>
        <pt x="1019" y="0" on="1"/>
        <pt x="617" y="0" on="1"/>
        <pt x="617" y="107" on="1"/>
        <pt x="727" y="107" on="1"/>
        <pt x="727" y="507" on="1"/>
        <pt x="727" y="595" on="0"/>
        <pt x="673" y="694" on="0"/>
        <pt x="602" y="694" on="1"/>
        <pt x="533" y="694" on="0"/>
        <pt x="411" y="622" on="0"/>
        <pt x="357" y="570" on="1"/>
        <pt x="357" y="107" on="1"/>
        <pt x="502" y="107" on="1"/>
        <pt x="502" y="0" on="1"/>
        <pt x="63" y="0" on="1"/>
      </contour>
    </TTGlyph>
    <TTGlyph name="nacute" xMin="57" yMin="0" xMax="1019" yMax="1171">
      <component glyphName="n" x="0" y="0" flags="0x204"/>
      <component glyphName="acute" x="197" y="0" flags="0x4"/>
    </TTGlyph>
    <TTGlyph name="nine" xMin="78" yMin="-18" xMax="860" yMax="1171">
      <contour>
        <pt x="235" y="305" on="1"/>
        <pt x="241" y="260" on="0"/>
        <pt x="280" y="188" on="0"/>
        <pt x="339" y="136" on="0"/>
        <pt x="414" y="108" on="0"/>
        <pt x="455" y="108" on="1"/>
        <pt x="513" y="108" on="0"/>
        <pt x="607" y="160" on="0"/>
        <pt x="673" y="265" on="0"/>
        <pt x="709" y="426" on="0"/>
        <pt x="709" y="534" on="1"/>
        <pt x="658" y="483" on="0"/>
        <pt x="506" y="430" on="0"/>
        <pt x="421" y="430" on="1"/>
        <pt x="343" y="430" on="0"/>
        <pt x="217" y="483" on="0"/>
        <pt x="127" y="578" on="0"/>
        <pt x="78" y="706" on="0"/>
        <pt x="78" y="781" on="1"/>
        <pt x="78" y="865" on="0"/>
        <pt x="128" y="1008" on="0"/>
        <pt x="222" y="1112" on="0"/>
        <pt x="360" y="1171" on="0"/>
        <pt x="447" y="1171" on="1"/>
        <pt x="651" y="1171" on="0"/>
        <pt x="860" y="867" on="0"/>
        <pt x="860" y="582" on="1"/>
        <pt x="860" y="445" on="0"/>
        <pt x="809" y="224" on="0"/>
        <pt x="707" y="67" on="0"/>
        <pt x="552" y="-18" on="0"/>
        <pt x="448" y="-18" on="1"/>
        <pt x="370" y="-18" on="0"/>
        <pt x="243" y="29" on="0"/>
        <pt x="151" y="115" on="0"/>
        <pt x="100" y="233" on="0"/>
        <pt x="98" y="305" on="1"/>
      </contour>
      <contour>
        <pt x="438" y="571" on="1"/>
        <pt x="465" y="571" on="0"/>
        <pt x="533" y="586" on="0"/>
        <pt x="605" y="616" on="0"/>
        <pt x="675" y="662" on="0"/>
        <pt x="703" y="694" on="1"/>
        <pt x="695" y="778" on="0"/>
        <pt x="661" y="905" on="0"/>
        <pt x="601" y="991" on="0"/>
        <pt x="514" y="1035" on="0"/>
        <pt x="453" y="1035" on="1"/>
        <pt x="396" y="1035" on="0"/>
        <pt x="310" y="998" on="0"/>
        <pt x="252" y="932" on="0"/>
        <pt x="223" y="843" on="0"/>
        <pt x="223" y="791" on="1"/>
        <pt x="223" y="743" on="0"/>
        <pt x="252" y="662" on="0"/>
        <pt x="307" y="604" on="0"/>
        <pt x="387" y="571" on="0"/>
      </contour>
    </TTGlyph>
    <TTGlyph name="nonbreakingspace" xMin="0" yMin="0" xMax="0" yMax="0">
      <component glyphName="space" x="0" y="0" flags="0x204"/>
    </TTGlyph>
    <TTGlyph name="ntilde" xMin="57" yMin="0" xMax="1019" yMax="1189">
      <component glyphName="n" x="0" y="0" flags="0x204"/>
      <component glyphName="tilde" x="222" y="0" flags="0x4"/>
    </TTGlyph>
    <TTGlyph name="numbersign" xMin="90" yMin="0" xMax="1102" yMax="1171">
      <contour>
        <pt x="236" y="0" on="1"/>
        <pt x="268" y="333" on="1"/>
        <pt x="90" y="333" on="1"/>
        <pt x="102" y="442" on="1"/>
        <pt x="284" y="442" on="1"/>
        <pt x="317" y="733" on="1"/>
        <pt x="110" y="733" on="1"/>
        <pt x="122" y="844" on="1"/>
        <pt x="333" y="844" on="1"/>
        <pt x="367" y="1171" on="1"/>
        <pt x="490" y="1171" on="1"/>
        <pt x="456" y="844" on="1"/>
        <pt x="781" y="844" on="1"/>
        <pt x="819" y="1171" on="1"/>
        <pt x="942" y="1171" on="1"/>
        <pt x="905" y="844" on="1"/>
        <pt x="1102" y="844" on="1"/>
        <pt x="1090" y="733" on="1"/>
        <pt x="889" y="733" on="1"/>
        <pt x="860" y="442" on="1"/>
        <pt x="1082" y="442" on="1"/>
        <pt x="1070" y="333" on="1"/>
        <pt x="844" y="333" on="1"/>
        <pt x="809" y="0" on="1"/>
        <pt x="688" y="0" on="1"/>
        <pt x="719" y="333" on="1"/>
        <pt x="392" y="333" on="1"/>
        <pt x="357" y="0" on="1"/>
      </contour>
      <contour>
        <pt x="408" y="442" on="1"/>
        <pt x="735" y="442" on="1"/>
        <pt x="765" y="733" on="1"/>
        <pt x="439" y="733" on="1"/>
      </contour>
    </TTGlyph>
    <TTGlyph name="o" xMin="57" yMin="-18" xMax="910" yMax="820">
      <contour>
        <pt x="482" y="107" on="1"/>
        <pt x="544" y="107" on="0"/>
        <pt x="643" y="152" on="0"/>
        <pt x="713" y="231" on="0"/>
        <pt x="750" y="339" on="0"/>
        <pt x="750" y="402" on="1"/>
        <pt x="750" y="463" on="0"/>
        <pt x="713" y="570" on="0"/>
        <pt x="643" y="649" on="0"/>
        <pt x="544" y="694" on="0"/>
        <pt x="482" y="694" on="1"/>
        <pt x="420" y="694" on="0"/>
        <pt x="322" y="649" on="0"/>
        <pt x="253" y="570" on="0"/>
        <pt x="216" y="463" on="0"/>
        <pt x="216" y="402" on="1"/>
        <pt x="216" y="339" on="0"/>
        <pt x="253" y="231" on="0"/>
        <pt x="322" y="152" on="0"/>
        <pt x="420" y="107" on="0"/>
      </contour>
      <contour>
        <pt x="482" y="-18" on="1"/>
        <pt x="384" y="-18" on="0"/>
        <pt x="227" y="48" on="0"/>
        <pt x="117" y="162" on="0"/>
        <pt x="57" y="315" on="0"/>
        <pt x="57" y="402" on="1"/>
        <pt x="57" y="489" on="0"/>
        <pt x="117" y="641" on="0"/>
        <pt x="228" y="755" on="0"/>
        <pt x="386" y="820" on="0"/>
        <pt x="484" y="820" on="1"/>
        <pt x="581" y="820" on="0"/>
        <pt x="739" y="755" on="0"/>
        <pt x="850" y="641" on="0"/>
        <pt x="910" y="489" on="0"/>
        <pt x="910" y="402" on="1"/>
        <pt x="910" y="315" on="0"/>
        <pt x="850" y="162" on="0"/>
        <pt x="738" y="48" on="0"/>
        <pt x="580" y="-18" on="0"/>
      </contour>
    </TTGlyph>
    <TTGlyph name="oacute" xMin="57" yMin="-18" xMax="910" yMax="1171">
      <component glyphName="o" x="0" y="0" flags="0x204"/>
      <component glyphName="acute" x="165" y="0" flags="0x4"/>
    </TTGlyph>
    <TTGlyph name="ocircumflex" xMin="57" yMin="-18" xMax="910" yMax="1171">
      <component glyphName="o" x="0" y="0" flags="0x204"/>
      <component glyphName="circumflex" x="186" y="0" flags="0x4"/>
    </TTGlyph>
    <TTGlyph name="odieresis" xMin="57" yMin="-18" xMax="910" yMax="1101">
      <component glyphName="o" x="0" y="0" flags="0x204"/>
      <component glyphName="dieresis" x="192" y="0" flags="0x4"/>
    </TTGlyph>
    <TTGlyph name="oe" xMin="57" yMin="-18" xMax="1588" yMax="820">
      <contour>
        <pt x="482" y="-18" on="1"/>
        <pt x="384" y="-18" on="0"/>
        <pt x="227" y="48" on="0"/>
        <pt x="117" y="162" on="0"/>
        <pt x="57" y="315" on="0"/>
        <pt x="57" y="402" on="1"/>
        <pt x="57" y="489" on="0"/>
        <pt x="117" y="641" on="0"/>
        <pt x="228" y="755" on="0"/>
        <pt x="386" y="820" on="0"/>
        <pt x="484" y="820" on="1"/>
        <pt x="602" y="820" on="0"/>
        <pt x="777" y="729" on="0"/>
        <pt x="832" y="653" on="1"/>
        <pt x="892" y="731" on="0"/>
        <pt x="1076" y="820" on="0"/>
        <pt x="1188" y="820" on="1"/>
        <pt x="1287" y="820" on="0"/>
        <pt x="1437" y="749" on="0"/>
        <pt x="1538" y="628" on="0"/>
        <pt x="1588" y="469" on="0"/>
        <pt x="1588" y="382" on="1"/>
        <pt x="1588" y="365" on="1"/>
        <pt x="909" y="365" on="1"/>
        <pt x="912" y="307" on="0"/>
        <pt x="954" y="212" on="0"/>
        <pt x="1028" y="144" on="0"/>
        <pt x="1131" y="107" on="0"/>
        <pt x="1196" y="107" on="1"/>
        <pt x="1235" y="107" on="0"/>
        <pt x="1311" y="125" on="0"/>
        <pt x="1379" y="158" on="0"/>
        <pt x="1437" y="204" on="0"/>
        <pt x="1457" y="233" on="1"/>
        <pt x="1559" y="157" on="1"/>
        <pt x="1508" y="79" on="0"/>
        <pt x="1327" y="-18" on="0"/>
        <pt x="1192" y="-18" on="1"/>
        <pt x="1071" y="-18" on="0"/>
        <pt x="887" y="71" on="0"/>
        <pt x="830" y="149" on="1"/>
        <pt x="775" y="73" on="0"/>
        <pt x="600" y="-18" on="0"/>
      </contour>
      <contour>
        <pt x="482" y="107" on="1"/>
        <pt x="544" y="107" on="0"/>
        <pt x="643" y="152" on="0"/>
        <pt x="713" y="231" on="0"/>
        <pt x="750" y="339" on="0"/>
        <pt x="750" y="402" on="1"/>
        <pt x="750" y="463" on="0"/>
        <pt x="713" y="570" on="0"/>
        <pt x="643" y="649" on="0"/>
        <pt x="544" y="694" on="0"/>
        <pt x="482" y="694" on="1"/>
        <pt x="420" y="694" on="0"/>
        <pt x="322" y="649" on="0"/>
        <pt x="253" y="570" on="0"/>
        <pt x="216" y="463" on="0"/>
        <pt x="216" y="402" on="1"/>
        <pt x="216" y="339" on="0"/>
        <pt x="253" y="231" on="0"/>
        <pt x="322" y="152" on="0"/>
        <pt x="420" y="107" on="0"/>
      </contour>
      <contour>
        <pt x="1444" y="467" on="1"/>
        <pt x="1438" y="516" on="0"/>
        <pt x="1398" y="599" on="0"/>
        <pt x="1334" y="660" on="0"/>
        <pt x="1245" y="694" on="0"/>
        <pt x="1190" y="694" on="1"/>
        <pt x="1129" y="694" on="0"/>
        <pt x="1034" y="661" on="0"/>
        <pt x="965" y="602" on="0"/>
        <pt x="922" y="518" on="0"/>
        <pt x="913" y="467" on="1"/>
      </contour>
    </TTGlyph>
    <TTGlyph name="ogonek" xMin="137" yMin="-353" xMax="451" yMax="0">
      <contour>
        <pt x="311" y="0" on="1"/>
        <pt x="285" y="-36" on="0"/>
        <pt x="266" y="-94" on="0"/>
        <pt x="266" y="-126" on="1"/>
        <pt x="266" y="-233" on="0"/>
        <pt x="364" y="-233" on="1"/>
        <pt x="387" y="-233" on="0"/>
        <pt x="427" y="-224" on="0"/>
        <pt x="451" y="-213" on="1"/>
        <pt x="451" y="-316" on="1"/>
        <pt x="410" y="-336" on="0"/>
        <pt x="352" y="-353" on="0"/>
        <pt x="317" y="-353" on="1"/>
        <pt x="278" y="-353" on="0"/>
        <pt x="212" y="-327" on="0"/>
        <pt x="164" y="-281" on="0"/>
        <pt x="137" y="-216" on="0"/>
        <pt x="137" y="-177" on="1"/>
        <pt x="137" y="-158" on="0"/>
        <pt x="142" y="-119" on="0"/>
        <pt x="156" y="-77" on="0"/>
        <pt x="179" y="-29" on="0"/>
        <pt x="197" y="0" on="1"/>
      </contour>
    </TTGlyph>
    <TTGlyph name="ograve" xMin="57" yMin="-18" xMax="910" yMax="1171">
      <component glyphName="o" x="0" y="0" flags="0x204"/>
      <component glyphName="grave" x="225" y="0" flags="0x4"/>
    </TTGlyph>
    <TTGlyph name="one" xMin="57" yMin="0" xMax="534" yMax="1153">
      <contour>
        <pt x="65" y="125" on="1"/>
        <pt x="231" y="125" on="1"/>
        <pt x="231" y="1026" on="1"/>
        <pt x="57" y="1026" on="1"/>
        <pt x="57" y="1153" on="1"/>
        <pt x="380" y="1153" on="1"/>
        <pt x="380" y="125" on="1"/>
        <pt x="534" y="125" on="1"/>
        <pt x="534" y="0" on="1"/>
        <pt x="65" y="0" on="1"/>
      </contour>
    </TTGlyph>
    <TTGlyph name="onehalf" xMin="57" yMin="-16" xMax="1590" yMax="1170">
      <contour>
        <pt x="915" y="1170" on="1"/>
        <pt x="1004" y="1170" on="1"/>
        <pt x="590" y="0" on="1"/>
        <pt x="500" y="0" on="1"/>
      </contour>
      <contour>
        <pt x="63" y="392" on="1"/>
        <pt x="186" y="392" on="1"/>
        <pt x="186" y="1059" on="1"/>
        <pt x="57" y="1059" on="1"/>
        <pt x="57" y="1153" on="1"/>
        <pt x="297" y="1153" on="1"/>
        <pt x="297" y="392" on="1"/>
        <pt x="411" y="392" on="1"/>
        <pt x="411" y="299" on="1"/>
        <pt x="63" y="299" on="1"/>
      </contour>
      <contour>
        <pt x="1492" y="265" on="1"/>
        <pt x="1586" y="265" on="1"/>
        <pt x="1586" y="-16" on="1"/>
        <pt x="1020" y="-16" on="1"/>
        <pt x="1019" y="-6" on="0"/>
        <pt x="1018" y="13" on="0"/>
        <pt x="1018" y="23" on="1"/>
        <pt x="1018" y="105" on="0"/>
        <pt x="1084" y="229" on="0"/>
        <pt x="1184" y="327" on="0"/>
        <pt x="1300" y="407" on="0"/>
        <pt x="1400" y="485" on="0"/>
        <pt x="1466" y="568" on="0"/>
        <pt x="1466" y="620" on="1"/>
        <pt x="1466" y="683" on="0"/>
        <pt x="1389" y="754" on="0"/>
        <pt x="1308" y="754" on="1"/>
        <pt x="1264" y="754" on="0"/>
        <pt x="1203" y="730" on="0"/>
        <pt x="1165" y="677" on="0"/>
        <pt x="1149" y="595" on="0"/>
        <pt x="1149" y="538" on="1"/>
        <pt x="1042" y="538" on="1"/>
        <pt x="1042" y="701" on="0"/>
        <pt x="1175" y="855" on="0"/>
        <pt x="1307" y="855" on="1"/>
        <pt x="1388" y="855" on="0"/>
        <pt x="1496" y="812" on="0"/>
        <pt x="1562" y="744" on="0"/>
        <pt x="1590" y="662" on="0"/>
        <pt x="1590" y="623" on="1"/>
        <pt x="1590" y="557" on="0"/>
        <pt x="1530" y="456" on="0"/>
        <pt x="1438" y="372" on="0"/>
        <pt x="1328" y="300" on="0"/>
        <pt x="1228" y="224" on="0"/>
        <pt x="1152" y="139" on="0"/>
        <pt x="1141" y="85" on="1"/>
        <pt x="1492" y="85" on="1"/>
      </contour>
    </TTGlyph>
    <TTGlyph name="onequarter" xMin="62" yMin="0" xMax="1549" yMax="1170">
      <contour>
        <pt x="915" y="1170" on="1"/>
        <pt x="1004" y="1170" on="1"/>
        <pt x="590" y="0" on="1"/>
        <pt x="500" y="0" on="1"/>
      </contour>
      <contour>
        <pt x="68" y="392" on="1"/>
        <pt x="191" y="392" on="1"/>
        <pt x="191" y="1059" on="1"/>
        <pt x="62" y="1059" on="1"/>
        <pt x="62" y="1153" on="1"/>
        <pt x="302" y="1153" on="1"/>
        <pt x="302" y="392" on="1"/>
        <pt x="416" y="392" on="1"/>
        <pt x="416" y="299" on="1"/>
        <pt x="68" y="299" on="1"/>
      </contour>
      <contour>
        <pt x="1149" y="101" on="1"/>
        <pt x="1281" y="101" on="1"/>
        <pt x="1281" y="254" on="1"/>
        <pt x="910" y="254" on="1"/>
        <pt x="910" y="352" on="1"/>
        <pt x="1284" y="931" on="1"/>
        <pt x="1396" y="931" on="1"/>
        <pt x="1396" y="352" on="1"/>
        <pt x="1549" y="352" on="1"/>
        <pt x="1549" y="254" on="1"/>
        <pt x="1396" y="254" on="1"/>
        <pt x="1396" y="101" on="1"/>
        <pt x="1516" y="101" on="1"/>
        <pt x="1516" y="0" on="1"/>
        <pt x="1149" y="0" on="1"/>
      </contour>
      <contour>
        <pt x="1281" y="765" on="1"/>
        <pt x="1027" y="352" on="1"/>
        <pt x="1281" y="352" on="1"/>
      </contour>
    </TTGlyph>
    <TTGlyph name="onesuperior" xMin="57" yMin="299" xMax="411" yMax="1153">
      <contour>
        <pt x="63" y="392" on="1"/>
        <pt x="186" y="392" on="1"/>
        <pt x="186" y="1059" on="1"/>
        <pt x="57" y="1059" on="1"/>
        <pt x="57" y="1153" on="1"/>
        <pt x="297" y="1153" on="1"/>
        <pt x="297" y="392" on="1"/>
        <pt x="411" y="392" on="1"/>
        <pt x="411" y="299" on="1"/>
        <pt x="63" y="299" on="1"/>
      </contour>
    </TTGlyph>
    <TTGlyph name="ordfeminine" xMin="36" yMin="541" xMax="662" yMax="1171">
      <contour>
        <pt x="72" y="1087" on="1"/>
        <pt x="156" y="1171" on="0"/>
        <pt x="310" y="1171" on="1"/>
        <pt x="381" y="1171" on="0"/>
        <pt x="475" y="1137" on="0"/>
        <pt x="531" y="1082" on="0"/>
        <pt x="554" y="1010" on="0"/>
        <pt x="554" y="971" on="1"/>
        <pt x="554" y="640" on="1"/>
        <pt x="662" y="640" on="1"/>
        <pt x="662" y="555" on="1"/>
        <pt x="454" y="555" on="1"/>
        <pt x="453" y="617" on="1"/>
        <pt x="423" y="596" on="0"/>
        <pt x="370" y="567" on="0"/>
        <pt x="320" y="549" on="0"/>
        <pt x="269" y="541" on="0"/>
        <pt x="241" y="541" on="1"/>
        <pt x="193" y="541" on="0"/>
        <pt x="117" y="570" on="0"/>
        <pt x="64" y="619" on="0"/>
        <pt x="36" y="682" on="0"/>
        <pt x="36" y="717" on="1"/>
        <pt x="36" y="774" on="0"/>
        <pt x="77" y="847" on="0"/>
        <pt x="148" y="891" on="0"/>
        <pt x="243" y="908" on="0"/>
        <pt x="297" y="908" on="1"/>
        <pt x="367" y="908" on="0"/>
        <pt x="442" y="893" on="1"/>
        <pt x="442" y="966" on="1"/>
        <pt x="442" y="997" on="0"/>
        <pt x="420" y="1042" on="0"/>
        <pt x="382" y="1069" on="0"/>
        <pt x="331" y="1082" on="0"/>
        <pt x="302" y="1082" on="1"/>
        <pt x="250" y="1082" on="0"/>
        <pt x="167" y="1048" on="0"/>
        <pt x="141" y="1014" on="1"/>
      </contour>
      <contour>
        <pt x="442" y="820" on="1"/>
        <pt x="418" y="820" on="0"/>
        <pt x="347" y="832" on="0"/>
        <pt x="305" y="832" on="1"/>
        <pt x="275" y="832" on="0"/>
        <pt x="217" y="824" on="0"/>
        <pt x="171" y="799" on="0"/>
        <pt x="142" y="754" on="0"/>
        <pt x="142" y="717" on="1"/>
        <pt x="142" y="678" on="0"/>
        <pt x="200" y="622" on="0"/>
        <pt x="257" y="622" on="1"/>
        <pt x="308" y="622" on="0"/>
        <pt x="407" y="657" on="0"/>
        <pt x="442" y="689" on="1"/>
      </contour>
    </TTGlyph>
    <TTGlyph name="ordmasculine" xMin="68" yMin="687" xMax="637" yMax="1215">
      <contour>
        <pt x="180" y="951" on="1"/>
        <pt x="180" y="915" on="0"/>
        <pt x="206" y="853" on="0"/>
        <pt x="253" y="808" on="0"/>
        <pt x="316" y="782" on="0"/>
        <pt x="353" y="782" on="1"/>
        <pt x="389" y="782" on="0"/>
        <pt x="452" y="808" on="0"/>
        <pt x="498" y="853" on="0"/>
        <pt x="524" y="915" on="0"/>
        <pt x="524" y="951" on="1"/>
        <pt x="524" y="987" on="0"/>
        <pt x="498" y="1048" on="0"/>
        <pt x="452" y="1093" on="0"/>
        <pt x="389" y="1118" on="0"/>
        <pt x="353" y="1118" on="1"/>
        <pt x="316" y="1118" on="0"/>
        <pt x="253" y="1093" on="0"/>
        <pt x="206" y="1048" on="0"/>
        <pt x="180" y="987" on="0"/>
      </contour>
      <contour>
        <pt x="68" y="951" on="1"/>
        <pt x="68" y="1008" on="0"/>
        <pt x="111" y="1105" on="0"/>
        <pt x="188" y="1175" on="0"/>
        <pt x="292" y="1215" on="0"/>
        <pt x="353" y="1215" on="1"/>
        <pt x="414" y="1215" on="0"/>
        <pt x="518" y="1175" on="0"/>
        <pt x="594" y="1105" on="0"/>
        <pt x="637" y="1008" on="0"/>
        <pt x="637" y="951" on="1"/>
        <pt x="637" y="894" on="0"/>
        <pt x="594" y="798" on="0"/>
        <pt x="518" y="727" on="0"/>
        <pt x="414" y="687" on="0"/>
        <pt x="353" y="687" on="1"/>
        <pt x="292" y="687" on="0"/>
        <pt x="188" y="727" on="0"/>
        <pt x="111" y="798" on="0"/>
        <pt x="68" y="894" on="0"/>
      </contour>
    </TTGlyph>
    <TTGlyph name="oslash" xMin="57" yMin="-126" xMax="910" yMax="926">
      <contour>
        <pt x="482" y="-18" on="1"/>
        <pt x="444" y="-18" on="0"/>
        <pt x="376" y="-8" on="0"/>
        <pt x="344" y="1" on="1"/>
        <pt x="279" y="-126" on="1"/>
        <pt x="185" y="-83" on="1"/>
        <pt x="250" y="43" on="1"/>
        <pt x="156" y="100" on="0"/>
        <pt x="57" y="287" on="0"/>
        <pt x="57" y="402" on="1"/>
        <pt x="57" y="489" on="0"/>
        <pt x="117" y="641" on="0"/>
        <pt x="228" y="755" on="0"/>
        <pt x="386" y="820" on="0"/>
        <pt x="484" y="820" on="1"/>
        <pt x="567" y="820" on="0"/>
        <pt x="636" y="796" on="1"/>
        <pt x="702" y="926" on="1"/>
        <pt x="796" y="883" on="1"/>
        <pt x="728" y="751" on="1"/>
        <pt x="816" y="694" on="0"/>
        <pt x="910" y="514" on="0"/>
        <pt x="910" y="402" on="1"/>
        <pt x="910" y="315" on="0"/>
        <pt x="850" y="162" on="0"/>
        <pt x="738" y="48" on="0"/>
        <pt x="580" y="-18" on="0"/>
      </contour>
      <contour>
        <pt x="216" y="402" on="1"/>
        <pt x="216" y="327" on="0"/>
        <pt x="265" y="206" on="0"/>
        <pt x="313" y="166" on="1"/>
        <pt x="575" y="678" on="1"/>
        <pt x="536" y="694" on="0"/>
        <pt x="482" y="694" on="1"/>
        <pt x="420" y="694" on="0"/>
        <pt x="322" y="649" on="0"/>
        <pt x="253" y="570" on="0"/>
        <pt x="216" y="463" on="0"/>
      </contour>
      <contour>
        <pt x="482" y="107" on="1"/>
        <pt x="544" y="107" on="0"/>
        <pt x="643" y="152" on="0"/>
        <pt x="713" y="231" on="0"/>
        <pt x="750" y="339" on="0"/>
        <pt x="750" y="402" on="1"/>
        <pt x="750" y="471" on="0"/>
        <pt x="705" y="584" on="0"/>
        <pt x="663" y="624" on="1"/>
        <pt x="404" y="117" on="1"/>
        <pt x="435" y="107" on="0"/>
      </contour>
    </TTGlyph>
    <TTGlyph name="otilde" xMin="57" yMin="-18" xMax="910" yMax="1189">
      <component glyphName="o" x="0" y="0" flags="0x204"/>
      <component glyphName="tilde" x="189" y="0" flags="0x4"/>
    </TTGlyph>
    <TTGlyph name="p" xMin="13" yMin="-368" xMax="1001" yMax="820">
      <contour>
        <pt x="13" y="-244" on="1"/>
        <pt x="166" y="-244" on="1"/>
        <pt x="166" y="694" on="1"/>
        <pt x="25" y="694" on="1"/>
        <pt x="25" y="805" on="1"/>
        <pt x="305" y="805" on="1"/>
        <pt x="313" y="698" on="1"/>
        <pt x="370" y="758" on="0"/>
        <pt x="521" y="820" on="0"/>
        <pt x="602" y="820" on="1"/>
        <pt x="695" y="820" on="0"/>
        <pt x="843" y="754" on="0"/>
        <pt x="946" y="640" on="0"/>
        <pt x="1001" y="487" on="0"/>
        <pt x="1001" y="400" on="1"/>
        <pt x="1001" y="314" on="0"/>
        <pt x="944" y="162" on="0"/>
        <pt x="839" y="48" on="0"/>
        <pt x="691" y="-18" on="0"/>
        <pt x="600" y="-18" on="1"/>
        <pt x="519" y="-18" on="0"/>
        <pt x="370" y="35" on="0"/>
        <pt x="313" y="87" on="1"/>
        <pt x="313" y="-245" on="1"/>
        <pt x="478" y="-245" on="1"/>
        <pt x="478" y="-368" on="1"/>
        <pt x="13" y="-368" on="1"/>
      </contour>
      <contour>
        <pt x="578" y="107" on="1"/>
        <pt x="642" y="107" on="0"/>
        <pt x="742" y="152" on="0"/>
        <pt x="810" y="230" on="0"/>
        <pt x="846" y="335" on="0"/>
        <pt x="846" y="396" on="1"/>
        <pt x="846" y="456" on="0"/>
        <pt x="809" y="564" on="0"/>
        <pt x="738" y="646" on="0"/>
        <pt x="638" y="694" on="0"/>
        <pt x="575" y="694" on="1"/>
        <pt x="530" y="694" on="0"/>
        <pt x="451" y="670" on="0"/>
        <pt x="385" y="634" on="0"/>
        <pt x="332" y="590" on="0"/>
        <pt x="313" y="571" on="1"/>
        <pt x="313" y="211" on="1"/>
        <pt x="336" y="193" on="0"/>
        <pt x="391" y="156" on="0"/>
        <pt x="457" y="126" on="0"/>
        <pt x="534" y="107" on="0"/>
      </contour>
    </TTGlyph>
    <TTGlyph name="paragraph" xMin="50" yMin="-373" xMax="1020" yMax="1196">
      <contour>
        <pt x="1020" y="1056" on="1"/>
        <pt x="882" y="1056" on="1"/>
        <pt x="882" y="-373" on="1"/>
        <pt x="747" y="-373" on="1"/>
        <pt x="747" y="1056" on="1"/>
        <pt x="546" y="1056" on="1"/>
        <pt x="546" y="-373" on="1"/>
        <pt x="411" y="-373" on="1"/>
        <pt x="411" y="478" on="1"/>
        <pt x="325" y="481" on="0"/>
        <pt x="191" y="538" on="0"/>
        <pt x="98" y="633" on="0"/>
        <pt x="50" y="761" on="0"/>
        <pt x="50" y="836" on="1"/>
        <pt x="50" y="910" on="0"/>
        <pt x="100" y="1041" on="0"/>
        <pt x="200" y="1139" on="0"/>
        <pt x="350" y="1196" on="0"/>
        <pt x="451" y="1196" on="1"/>
        <pt x="1020" y="1196" on="1"/>
      </contour>
    </TTGlyph>
    <TTGlyph name="parenleft" xMin="34" yMin="-132" xMax="476" yMax="1165">
      <contour>
        <pt x="34" y="517" on="1"/>
        <pt x="34" y="646" on="0"/>
        <pt x="104" y="852" on="0"/>
        <pt x="224" y="1012" on="0"/>
        <pt x="385" y="1127" on="0"/>
        <pt x="476" y="1165" on="1"/>
        <pt x="476" y="1037" on="1"/>
        <pt x="419" y="1003" on="0"/>
        <pt x="317" y="911" on="0"/>
        <pt x="240" y="786" on="0"/>
        <pt x="195" y="623" on="0"/>
        <pt x="195" y="517" on="1"/>
        <pt x="195" y="411" on="0"/>
        <pt x="240" y="248" on="0"/>
        <pt x="317" y="123" on="0"/>
        <pt x="419" y="32" on="0"/>
        <pt x="476" y="-1" on="1"/>
        <pt x="476" y="-132" on="1"/>
        <pt x="385" y="-95" on="0"/>
        <pt x="224" y="21" on="0"/>
        <pt x="104" y="182" on="0"/>
        <pt x="34" y="389" on="0"/>
      </contour>
    </TTGlyph>
    <TTGlyph name="parenright" xMin="34" yMin="-132" xMax="476" yMax="1165">
      <contour>
        <pt x="476" y="517" on="1"/>
        <pt x="476" y="389" on="0"/>
        <pt x="406" y="182" on="0"/>
        <pt x="286" y="21" on="0"/>
        <pt x="125" y="-95" on="0"/>
        <pt x="34" y="-132" on="1"/>
        <pt x="34" y="-1" on="1"/>
        <pt x="91" y="32" on="0"/>
        <pt x="193" y="123" on="0"/>
        <pt x="270" y="248" on="0"/>
        <pt x="315" y="411" on="0"/>
        <pt x="315" y="517" on="1"/>
        <pt x="315" y="623" on="0"/>
        <pt x="270" y="786" on="0"/>
        <pt x="193" y="911" on="0"/>
        <pt x="91" y="1003" on="0"/>
        <pt x="34" y="1037" on="1"/>
        <pt x="34" y="1165" on="1"/>
        <pt x="125" y="1127" on="0"/>
        <pt x="286" y="1012" on="0"/>
        <pt x="406" y="852" on="0"/>
        <pt x="476" y="646" on="0"/>
      </contour>
    </TTGlyph>
    <TTGlyph name="percent" xMin="66" yMin="-50" xMax="1519" yMax="1196">
      <contour>
        <pt x="586" y="863" on="1"/>
        <pt x="586" y="781" on="0"/>
        <pt x="541" y="665" on="0"/>
        <pt x="468" y="591" on="0"/>
        <pt x="375" y="557" on="0"/>
        <pt x="326" y="557" on="1"/>
        <pt x="277" y="557" on="0"/>
        <pt x="184" y="591" on="0"/>
        <pt x="111" y="665" on="0"/>
        <pt x="66" y="781" on="0"/>
        <pt x="66" y="863" on="1"/>
        <pt x="66" y="945" on="0"/>
        <pt x="111" y="1061" on="0"/>
        <pt x="184" y="1135" on="0"/>
        <pt x="277" y="1170" on="0"/>
        <pt x="326" y="1170" on="1"/>
        <pt x="375" y="1170" on="0"/>
        <pt x="468" y="1135" on="0"/>
        <pt x="541" y="1061" on="0"/>
        <pt x="586" y="945" on="0"/>
      </contour>
      <contour>
        <pt x="447" y="863" on="1"/>
        <pt x="447" y="919" on="0"/>
        <pt x="426" y="996" on="0"/>
        <pt x="392" y="1044" on="0"/>
        <pt x="348" y="1065" on="0"/>
        <pt x="326" y="1065" on="1"/>
        <pt x="303" y="1065" on="0"/>
        <pt x="260" y="1044" on="0"/>
        <pt x="226" y="996" on="0"/>
        <pt x="205" y="919" on="0"/>
        <pt x="205" y="863" on="1"/>
        <pt x="205" y="807" on="0"/>
        <pt x="226" y="730" on="0"/>
        <pt x="260" y="682" on="0"/>
        <pt x="303" y="660" on="0"/>
        <pt x="326" y="660" on="1"/>
        <pt x="348" y="660" on="0"/>
        <pt x="392" y="682" on="0"/>
        <pt x="426" y="730" on="0"/>
        <pt x="447" y="807" on="0"/>
      </contour>
      <contour>
        <pt x="1223" y="1196" on="1"/>
        <pt x="1284" y="1146" on="1"/>
        <pt x="341" y="-50" on="1"/>
        <pt x="273" y="0" on="1"/>
      </contour>
      <contour>
        <pt x="1519" y="287" on="1"/>
        <pt x="1519" y="205" on="0"/>
        <pt x="1474" y="89" on="0"/>
        <pt x="1401" y="15" on="0"/>
        <pt x="1308" y="-19" on="0"/>
        <pt x="1259" y="-19" on="1"/>
        <pt x="1210" y="-19" on="0"/>
        <pt x="1117" y="15" on="0"/>
        <pt x="1044" y="89" on="0"/>
        <pt x="999" y="205" on="0"/>
        <pt x="999" y="287" on="1"/>
        <pt x="999" y="369" on="0"/>
        <pt x="1044" y="485" on="0"/>
        <pt x="1117" y="559" on="0"/>
        <pt x="1210" y="594" on="0"/>
        <pt x="1259" y="594" on="1"/>
        <pt x="1308" y="594" on="0"/>
        <pt x="1401" y="559" on="0"/>
        <pt x="1474" y="485" on="0"/>
        <pt x="1519" y="369" on="0"/>
      </contour>
      <contour>
        <pt x="1380" y="287" on="1"/>
        <pt x="1380" y="343" on="0"/>
        <pt x="1359" y="420" on="0"/>
        <pt x="1325" y="468" on="0"/>
        <pt x="1281" y="489" on="0"/>
        <pt x="1259" y="489" on="1"/>
        <pt x="1236" y="489" on="0"/>
        <pt x="1193" y="468" on="0"/>
        <pt x="1159" y="420" on="0"/>
        <pt x="1138" y="343" on="0"/>
        <pt x="1138" y="287" on="1"/>
        <pt x="1138" y="231" on="0"/>
        <pt x="1159" y="154" on="0"/>
        <pt x="1193" y="106" on="0"/>
        <pt x="1236" y="84" on="0"/>
        <pt x="1259" y="84" on="1"/>
        <pt x="1281" y="84" on="0"/>
        <pt x="1325" y="106" on="0"/>
        <pt x="1359" y="154" on="0"/>
        <pt x="1380" y="231" on="0"/>
      </contour>
    </TTGlyph>
    <TTGlyph name="period" xMin="86" yMin="0" xMax="313" yMax="211">
      <contour>
        <pt x="86" y="211" on="1"/>
        <pt x="313" y="211" on="1"/>
        <pt x="313" y="0" on="1"/>
        <pt x="86" y="0" on="1"/>
      </contour>
    </TTGlyph>
    <TTGlyph name="periodcentered" xMin="86" yMin="446" xMax="313" yMax="657">
      <contour>
        <pt x="86" y="657" on="1"/>
        <pt x="313" y="657" on="1"/>
        <pt x="313" y="446" on="1"/>
        <pt x="86" y="446" on="1"/>
      </contour>
    </TTGlyph>
    <TTGlyph name="plus" xMin="57" yMin="93" xMax="990" yMax="994">
      <contour>
        <pt x="990" y="602" on="1"/>
        <pt x="990" y="485" on="1"/>
        <pt x="585" y="485" on="1"/>
        <pt x="585" y="93" on="1"/>
        <pt x="461" y="93" on="1"/>
        <pt x="461" y="485" on="1"/>
        <pt x="57" y="485" on="1"/>
        <pt x="57" y="602" on="1"/>
        <pt x="461" y="602" on="1"/>
        <pt x="461" y="994" on="1"/>
        <pt x="585" y="994" on="1"/>
        <pt x="585" y="602" on="1"/>
      </contour>
    </TTGlyph>
    <TTGlyph name="plusminus" xMin="91" yMin="-39" xMax="1028" yMax="1183">
      <contour>
        <pt x="1028" y="80" on="1"/>
        <pt x="1028" y="-39" on="1"/>
        <pt x="91" y="-39" on="1"/>
        <pt x="91" y="80" on="1"/>
      </contour>
      <contour>
        <pt x="1028" y="775" on="1"/>
        <pt x="1028" y="656" on="1"/>
        <pt x="617" y="656" on="1"/>
        <pt x="617" y="247" on="1"/>
        <pt x="502" y="247" on="1"/>
        <pt x="502" y="656" on="1"/>
        <pt x="91" y="656" on="1"/>
        <pt x="91" y="775" on="1"/>
        <pt x="502" y="775" on="1"/>
        <pt x="502" y="1183" on="1"/>
        <pt x="617" y="1183" on="1"/>
        <pt x="617" y="775" on="1"/>
      </contour>
    </TTGlyph>
    <TTGlyph name="q" xMin="58" yMin="-368" xMax="1047" yMax="820">
      <contour>
        <pt x="583" y="-244" on="1"/>
        <pt x="745" y="-244" on="1"/>
        <pt x="745" y="90" on="1"/>
        <pt x="688" y="36" on="0"/>
        <pt x="542" y="-18" on="0"/>
        <pt x="457" y="-18" on="1"/>
        <pt x="365" y="-18" on="0"/>
        <pt x="218" y="48" on="0"/>
        <pt x="114" y="162" on="0"/>
        <pt x="58" y="315" on="0"/>
        <pt x="58" y="402" on="1"/>
        <pt x="58" y="488" on="0"/>
        <pt x="114" y="640" on="0"/>
        <pt x="221" y="754" on="0"/>
        <pt x="376" y="820" on="0"/>
        <pt x="475" y="820" on="1"/>
        <pt x="551" y="820" on="0"/>
        <pt x="693" y="759" on="0"/>
        <pt x="745" y="699" on="1"/>
        <pt x="745" y="701" on="0"/>
        <pt x="746" y="734" on="0"/>
        <pt x="748" y="754" on="1"/>
        <pt x="751" y="805" on="1"/>
        <pt x="1037" y="805" on="1"/>
        <pt x="1037" y="694" on="1"/>
        <pt x="895" y="694" on="1"/>
        <pt x="895" y="-245" on="1"/>
        <pt x="1047" y="-245" on="1"/>
        <pt x="1047" y="-368" on="1"/>
        <pt x="583" y="-368" on="1"/>
      </contour>
      <contour>
        <pt x="480" y="107" on="1"/>
        <pt x="523" y="107" on="0"/>
        <pt x="601" y="130" on="0"/>
        <pt x="667" y="166" on="0"/>
        <pt x="723" y="209" on="0"/>
        <pt x="745" y="229" on="1"/>
        <pt x="745" y="564" on="1"/>
        <pt x="725" y="585" on="0"/>
        <pt x="672" y="631" on="0"/>
        <pt x="608" y="669" on="0"/>
        <pt x="533" y="694" on="0"/>
        <pt x="491" y="694" on="1"/>
        <pt x="420" y="694" on="0"/>
        <pt x="315" y="646" on="0"/>
        <pt x="246" y="564" on="0"/>
        <pt x="212" y="456" on="0"/>
        <pt x="212" y="396" on="1"/>
        <pt x="212" y="335" on="0"/>
        <pt x="248" y="230" on="0"/>
        <pt x="316" y="152" on="0"/>
        <pt x="416" y="107" on="0"/>
      </contour>
    </TTGlyph>
    <TTGlyph name="question" xMin="54" yMin="0" xMax="738" yMax="1215">
      <contour>
        <pt x="319" y="323" on="1"/>
        <pt x="319" y="331" on="0"/>
        <pt x="318" y="346" on="0"/>
        <pt x="318" y="354" on="1"/>
        <pt x="318" y="439" on="0"/>
        <pt x="342" y="557" on="0"/>
        <pt x="381" y="639" on="0"/>
        <pt x="431" y="691" on="0"/>
        <pt x="484" y="730" on="0"/>
        <pt x="534" y="763" on="0"/>
        <pt x="573" y="806" on="0"/>
        <pt x="597" y="866" on="0"/>
        <pt x="597" y="912" on="1"/>
        <pt x="597" y="953" on="0"/>
        <pt x="566" y="1020" on="0"/>
        <pt x="513" y="1068" on="0"/>
        <pt x="441" y="1094" on="0"/>
        <pt x="401" y="1094" on="1"/>
        <pt x="301" y="1094" on="0"/>
        <pt x="189" y="977" on="0"/>
        <pt x="189" y="865" on="1"/>
        <pt x="189" y="855" on="1"/>
        <pt x="189" y="850" on="0"/>
        <pt x="190" y="849" on="1"/>
        <pt x="56" y="849" on="1"/>
        <pt x="55" y="855" on="0"/>
        <pt x="54" y="866" on="0"/>
        <pt x="54" y="872" on="1"/>
        <pt x="54" y="965" on="0"/>
        <pt x="115" y="1096" on="0"/>
        <pt x="212" y="1178" on="0"/>
        <pt x="336" y="1215" on="0"/>
        <pt x="399" y="1215" on="1"/>
        <pt x="470" y="1215" on="0"/>
        <pt x="594" y="1172" on="0"/>
        <pt x="685" y="1093" on="0"/>
        <pt x="738" y="981" on="0"/>
        <pt x="738" y="912" on="1"/>
        <pt x="738" y="851" on="0"/>
        <pt x="711" y="769" on="0"/>
        <pt x="667" y="711" on="0"/>
        <pt x="609" y="669" on="0"/>
        <pt x="549" y="626" on="0"/>
        <pt x="489" y="577" on="0"/>
        <pt x="441" y="503" on="0"/>
        <pt x="408" y="399" on="0"/>
        <pt x="404" y="323" on="1"/>
      </contour>
      <contour>
        <pt x="452" y="0" on="1"/>
        <pt x="280" y="0" on="1"/>
        <pt x="280" y="197" on="1"/>
        <pt x="452" y="197" on="1"/>
      </contour>
    </TTGlyph>
    <TTGlyph name="questiondown" xMin="58" yMin="-19" xMax="742" yMax="1196">
      <component glyphName="question" x="796" y="1196" scale="-0.999877929688" flags="0x4"/>
    </TTGlyph>
    <TTGlyph name="quotedbl" xMin="59" yMin="756" xMax="599" yMax="1171">
      <contour>
        <pt x="557" y="756" on="1"/>
        <pt x="427" y="756" on="1"/>
        <pt x="382" y="1171" on="1"/>
        <pt x="599" y="1171" on="1"/>
      </contour>
      <contour>
        <pt x="234" y="756" on="1"/>
        <pt x="104" y="756" on="1"/>
        <pt x="59" y="1171" on="1"/>
        <pt x="276" y="1171" on="1"/>
      </contour>
    </TTGlyph>
    <TTGlyph name="quotedblbase" xMin="82" yMin="-237" xMax="698" yMax="211">
      <contour>
        <pt x="481" y="211" on="1"/>
        <pt x="698" y="211" on="1"/>
        <pt x="698" y="0" on="1"/>
        <pt x="698" y="-57" on="0"/>
        <pt x="676" y="-146" on="0"/>
        <pt x="625" y="-206" on="0"/>
        <pt x="542" y="-237" on="0"/>
        <pt x="481" y="-237" on="1"/>
        <pt x="481" y="-150" on="1"/>
        <pt x="512" y="-143" on="0"/>
        <pt x="555" y="-122" on="0"/>
        <pt x="581" y="-87" on="0"/>
        <pt x="592" y="-36" on="0"/>
        <pt x="592" y="0" on="1"/>
        <pt x="481" y="0" on="1"/>
      </contour>
      <contour>
        <pt x="82" y="211" on="1"/>
        <pt x="299" y="211" on="1"/>
        <pt x="299" y="0" on="1"/>
        <pt x="299" y="-57" on="0"/>
        <pt x="277" y="-146" on="0"/>
        <pt x="226" y="-206" on="0"/>
        <pt x="143" y="-237" on="0"/>
        <pt x="82" y="-237" on="1"/>
        <pt x="82" y="-150" on="1"/>
        <pt x="113" y="-143" on="0"/>
        <pt x="156" y="-122" on="0"/>
        <pt x="182" y="-87" on="0"/>
        <pt x="193" y="-36" on="0"/>
        <pt x="193" y="0" on="1"/>
        <pt x="82" y="0" on="1"/>
      </contour>
    </TTGlyph>
    <TTGlyph name="quotedblleft" xMin="82" yMin="723" xMax="632" yMax="1171">
      <contour>
        <pt x="632" y="723" on="1"/>
        <pt x="415" y="723" on="1"/>
        <pt x="415" y="934" on="1"/>
        <pt x="415" y="991" on="0"/>
        <pt x="437" y="1080" on="0"/>
        <pt x="488" y="1140" on="0"/>
        <pt x="571" y="1171" on="0"/>
        <pt x="632" y="1171" on="1"/>
        <pt x="632" y="1084" on="1"/>
        <pt x="600" y="1077" on="0"/>
        <pt x="558" y="1056" on="0"/>
        <pt x="532" y="1021" on="0"/>
        <pt x="521" y="970" on="0"/>
        <pt x="521" y="934" on="1"/>
        <pt x="632" y="934" on="1"/>
      </contour>
      <contour>
        <pt x="299" y="723" on="1"/>
        <pt x="82" y="723" on="1"/>
        <pt x="82" y="934" on="1"/>
        <pt x="82" y="991" on="0"/>
        <pt x="104" y="1080" on="0"/>
        <pt x="155" y="1140" on="0"/>
        <pt x="238" y="1171" on="0"/>
        <pt x="299" y="1171" on="1"/>
        <pt x="299" y="1084" on="1"/>
        <pt x="267" y="1077" on="0"/>
        <pt x="225" y="1056" on="0"/>
        <pt x="199" y="1021" on="0"/>
        <pt x="188" y="970" on="0"/>
        <pt x="188" y="934" on="1"/>
        <pt x="299" y="934" on="1"/>
      </contour>
    </TTGlyph>
    <TTGlyph name="quotedblright" xMin="82" yMin="705" xMax="632" yMax="1153">
      <contour>
        <pt x="82" y="1153" on="1"/>
        <pt x="299" y="1153" on="1"/>
        <pt x="299" y="942" on="1"/>
        <pt x="299" y="885" on="0"/>
        <pt x="277" y="796" on="0"/>
        <pt x="226" y="736" on="0"/>
        <pt x="143" y="705" on="0"/>
        <pt x="82" y="705" on="1"/>
        <pt x="82" y="792" on="1"/>
        <pt x="113" y="799" on="0"/>
        <pt x="156" y="820" on="0"/>
        <pt x="182" y="855" on="0"/>
        <pt x="193" y="906" on="0"/>
        <pt x="193" y="942" on="1"/>
        <pt x="82" y="942" on="1"/>
      </contour>
      <contour>
        <pt x="415" y="1153" on="1"/>
        <pt x="632" y="1153" on="1"/>
        <pt x="632" y="942" on="1"/>
        <pt x="632" y="885" on="0"/>
        <pt x="610" y="796" on="0"/>
        <pt x="559" y="736" on="0"/>
        <pt x="476" y="705" on="0"/>
        <pt x="415" y="705" on="1"/>
        <pt x="415" y="792" on="1"/>
        <pt x="446" y="799" on="0"/>
        <pt x="489" y="820" on="0"/>
        <pt x="515" y="855" on="0"/>
        <pt x="526" y="906" on="0"/>
        <pt x="526" y="942" on="1"/>
        <pt x="415" y="942" on="1"/>
      </contour>
    </TTGlyph>
    <TTGlyph name="quoteleft" xMin="82" yMin="723" xMax="299" yMax="1171">
      <contour>
        <pt x="299" y="723" on="1"/>
        <pt x="82" y="723" on="1"/>
        <pt x="82" y="934" on="1"/>
        <pt x="82" y="991" on="0"/>
        <pt x="104" y="1080" on="0"/>
        <pt x="155" y="1140" on="0"/>
        <pt x="238" y="1171" on="0"/>
        <pt x="299" y="1171" on="1"/>
        <pt x="299" y="1084" on="1"/>
        <pt x="267" y="1077" on="0"/>
        <pt x="225" y="1056" on="0"/>
        <pt x="199" y="1021" on="0"/>
        <pt x="188" y="970" on="0"/>
        <pt x="188" y="934" on="1"/>
        <pt x="299" y="934" on="1"/>
      </contour>
    </TTGlyph>
    <TTGlyph name="quoteright" xMin="82" yMin="705" xMax="299" yMax="1153">
      <contour>
        <pt x="82" y="1153" on="1"/>
        <pt x="299" y="1153" on="1"/>
        <pt x="299" y="942" on="1"/>
        <pt x="299" y="885" on="0"/>
        <pt x="277" y="796" on="0"/>
        <pt x="226" y="736" on="0"/>
        <pt x="143" y="705" on="0"/>
        <pt x="82" y="705" on="1"/>
        <pt x="82" y="792" on="1"/>
        <pt x="113" y="799" on="0"/>
        <pt x="156" y="820" on="0"/>
        <pt x="182" y="855" on="0"/>
        <pt x="193" y="906" on="0"/>
        <pt x="193" y="942" on="1"/>
        <pt x="82" y="942" on="1"/>
      </contour>
    </TTGlyph>
    <TTGlyph name="quotesinglbase" xMin="82" yMin="-237" xMax="299" yMax="211">
      <contour>
        <pt x="82" y="211" on="1"/>
        <pt x="299" y="211" on="1"/>
        <pt x="299" y="0" on="1"/>
        <pt x="299" y="-57" on="0"/>
        <pt x="277" y="-146" on="0"/>
        <pt x="226" y="-206" on="0"/>
        <pt x="143" y="-237" on="0"/>
        <pt x="82" y="-237" on="1"/>
        <pt x="82" y="-150" on="1"/>
        <pt x="113" y="-143" on="0"/>
        <pt x="156" y="-122" on="0"/>
        <pt x="182" y="-87" on="0"/>
        <pt x="193" y="-36" on="0"/>
        <pt x="193" y="0" on="1"/>
        <pt x="82" y="0" on="1"/>
      </contour>
    </TTGlyph>
    <TTGlyph name="quotesingle" xMin="67" yMin="756" xMax="284" yMax="1171">
      <contour>
        <pt x="242" y="756" on="1"/>
        <pt x="112" y="756" on="1"/>
        <pt x="67" y="1171" on="1"/>
        <pt x="284" y="1171" on="1"/>
      </contour>
    </TTGlyph>
    <TTGlyph name="r" xMin="58" yMin="0" xMax="734" yMax="820">
      <contour>
        <pt x="64" y="107" on="1"/>
        <pt x="225" y="107" on="1"/>
        <pt x="225" y="694" on="1"/>
        <pt x="58" y="694" on="1"/>
        <pt x="58" y="805" on="1"/>
        <pt x="347" y="805" on="1"/>
        <pt x="348" y="630" on="1"/>
        <pt x="375" y="685" on="0"/>
        <pt x="437" y="758" on="0"/>
        <pt x="509" y="802" on="0"/>
        <pt x="593" y="820" on="0"/>
        <pt x="641" y="820" on="1"/>
        <pt x="684" y="820" on="0"/>
        <pt x="734" y="814" on="1"/>
        <pt x="729" y="675" on="1"/>
        <pt x="728" y="676" on="0"/>
        <pt x="699" y="677" on="0"/>
        <pt x="665" y="678" on="0"/>
        <pt x="634" y="678" on="0"/>
        <pt x="631" y="678" on="1"/>
        <pt x="557" y="678" on="0"/>
        <pt x="459" y="636" on="0"/>
        <pt x="400" y="558" on="0"/>
        <pt x="375" y="448" on="0"/>
        <pt x="375" y="380" on="1"/>
        <pt x="375" y="107" on="1"/>
        <pt x="551" y="107" on="1"/>
        <pt x="551" y="0" on="1"/>
        <pt x="64" y="0" on="1"/>
      </contour>
    </TTGlyph>
    <TTGlyph name="rcaron" xMin="58" yMin="0" xMax="734" yMax="1171">
      <component glyphName="r" x="0" y="0" flags="0x204"/>
      <component glyphName="caron" x="84" y="0" flags="0x4"/>
    </TTGlyph>
    <TTGlyph name="rcommaaccent" xMin="58" yMin="0" xMax="734" yMax="820">
      <component glyphName="r" x="0" y="0" flags="0x204"/>
      <component glyphName="commaaccent" x="166" y="0" flags="0x4"/>
    </TTGlyph>
    <TTGlyph name="registered" xMin="68" yMin="-19" xMax="1268" yMax="1170">
      <contour>
        <pt x="668" y="1170" on="1"/>
        <pt x="818" y="1170" on="0"/>
        <pt x="1043" y="1067" on="0"/>
        <pt x="1193" y="900" on="0"/>
        <pt x="1268" y="686" on="0"/>
        <pt x="1268" y="575" on="1"/>
        <pt x="1268" y="464" on="0"/>
        <pt x="1193" y="250" on="0"/>
        <pt x="1043" y="83" on="0"/>
        <pt x="818" y="-19" on="0"/>
        <pt x="668" y="-19" on="1"/>
        <pt x="518" y="-19" on="0"/>
        <pt x="293" y="83" on="0"/>
        <pt x="143" y="250" on="0"/>
        <pt x="68" y="464" on="0"/>
        <pt x="68" y="575" on="1"/>
        <pt x="68" y="686" on="0"/>
        <pt x="143" y="900" on="0"/>
        <pt x="293" y="1067" on="0"/>
        <pt x="518" y="1170" on="0"/>
      </contour>
      <contour>
        <pt x="668" y="1076" on="1"/>
        <pt x="546" y="1076" on="0"/>
        <pt x="365" y="989" on="0"/>
        <pt x="244" y="848" on="0"/>
        <pt x="184" y="668" on="0"/>
        <pt x="184" y="575" on="1"/>
        <pt x="184" y="482" on="0"/>
        <pt x="244" y="301" on="0"/>
        <pt x="365" y="160" on="0"/>
        <pt x="546" y="73" on="0"/>
        <pt x="668" y="73" on="1"/>
        <pt x="789" y="73" on="0"/>
        <pt x="970" y="160" on="0"/>
        <pt x="1091" y="301" on="0"/>
        <pt x="1151" y="482" on="0"/>
        <pt x="1151" y="575" on="1"/>
        <pt x="1151" y="668" on="0"/>
        <pt x="1091" y="848" on="0"/>
        <pt x="970" y="989" on="0"/>
        <pt x="789" y="1076" on="0"/>
      </contour>
      <contour>
        <pt x="393" y="337" on="1"/>
        <pt x="481" y="337" on="1"/>
        <pt x="481" y="826" on="1"/>
        <pt x="393" y="826" on="1"/>
        <pt x="393" y="895" on="1"/>
        <pt x="692" y="895" on="1"/>
        <pt x="799" y="895" on="0"/>
        <pt x="898" y="806" on="0"/>
        <pt x="898" y="733" on="1"/>
        <pt x="898" y="670" on="0"/>
        <pt x="828" y="586" on="0"/>
        <pt x="758" y="572" on="1"/>
        <pt x="885" y="337" on="1"/>
        <pt x="964" y="337" on="1"/>
        <pt x="964" y="269" on="1"/>
        <pt x="827" y="269" on="1"/>
        <pt x="673" y="561" on="1"/>
        <pt x="568" y="561" on="1"/>
        <pt x="568" y="337" on="1"/>
        <pt x="653" y="337" on="1"/>
        <pt x="653" y="269" on="1"/>
        <pt x="393" y="269" on="1"/>
      </contour>
      <contour>
        <pt x="689" y="631" on="1"/>
        <pt x="724" y="631" on="0"/>
        <pt x="771" y="649" on="0"/>
        <pt x="798" y="678" on="0"/>
        <pt x="809" y="714" on="0"/>
        <pt x="809" y="733" on="1"/>
        <pt x="809" y="781" on="0"/>
        <pt x="742" y="826" on="0"/>
        <pt x="685" y="826" on="1"/>
        <pt x="568" y="826" on="1"/>
        <pt x="568" y="631" on="1"/>
      </contour>
    </TTGlyph>
    <TTGlyph name="ring" xMin="114" yMin="881" xMax="451" yMax="1201">
      <contour>
        <pt x="282" y="1201" on="1"/>
        <pt x="317" y="1201" on="0"/>
        <pt x="379" y="1177" on="0"/>
        <pt x="425" y="1134" on="0"/>
        <pt x="451" y="1076" on="0"/>
        <pt x="451" y="1042" on="1"/>
        <pt x="451" y="1008" on="0"/>
        <pt x="425" y="949" on="0"/>
        <pt x="379" y="906" on="0"/>
        <pt x="317" y="881" on="0"/>
        <pt x="282" y="881" on="1"/>
        <pt x="247" y="881" on="0"/>
        <pt x="185" y="906" on="0"/>
        <pt x="140" y="949" on="0"/>
        <pt x="114" y="1008" on="0"/>
        <pt x="114" y="1042" on="1"/>
        <pt x="114" y="1076" on="0"/>
        <pt x="140" y="1134" on="0"/>
        <pt x="185" y="1177" on="0"/>
        <pt x="247" y="1201" on="0"/>
      </contour>
      <contour>
        <pt x="282" y="1140" on="1"/>
        <pt x="260" y="1140" on="0"/>
        <pt x="222" y="1125" on="0"/>
        <pt x="193" y="1099" on="0"/>
        <pt x="177" y="1063" on="0"/>
        <pt x="177" y="1042" on="1"/>
        <pt x="177" y="1021" on="0"/>
        <pt x="193" y="985" on="0"/>
        <pt x="222" y="958" on="0"/>
        <pt x="260" y="943" on="0"/>
        <pt x="282" y="943" on="1"/>
        <pt x="304" y="943" on="0"/>
        <pt x="342" y="958" on="0"/>
        <pt x="370" y="985" on="0"/>
        <pt x="386" y="1021" on="0"/>
        <pt x="386" y="1042" on="1"/>
        <pt x="386" y="1063" on="0"/>
        <pt x="370" y="1099" on="0"/>
        <pt x="342" y="1125" on="0"/>
        <pt x="304" y="1140" on="0"/>
      </contour>
    </TTGlyph>
    <TTGlyph name="ring.cap" xMin="114" yMin="881" xMax="451" yMax="1201">
      <contour>
        <pt x="282" y="1201" on="1"/>
        <pt x="317" y="1201" on="0"/>
        <pt x="379" y="1177" on="0"/>
        <pt x="425" y="1134" on="0"/>
        <pt x="451" y="1076" on="0"/>
        <pt x="451" y="1042" on="1"/>
        <pt x="451" y="1008" on="0"/>
        <pt x="425" y="949" on="0"/>
        <pt x="379" y="906" on="0"/>
        <pt x="317" y="881" on="0"/>
        <pt x="282" y="881" on="1"/>
        <pt x="247" y="881" on="0"/>
        <pt x="185" y="906" on="0"/>
        <pt x="140" y="949" on="0"/>
        <pt x="114" y="1008" on="0"/>
        <pt x="114" y="1042" on="1"/>
        <pt x="114" y="1076" on="0"/>
        <pt x="140" y="1134" on="0"/>
        <pt x="185" y="1177" on="0"/>
        <pt x="247" y="1201" on="0"/>
      </contour>
      <contour>
        <pt x="282" y="1140" on="1"/>
        <pt x="260" y="1140" on="0"/>
        <pt x="222" y="1125" on="0"/>
        <pt x="193" y="1099" on="0"/>
        <pt x="177" y="1063" on="0"/>
        <pt x="177" y="1042" on="1"/>
        <pt x="177" y="1021" on="0"/>
        <pt x="193" y="985" on="0"/>
        <pt x="222" y="958" on="0"/>
        <pt x="260" y="943" on="0"/>
        <pt x="282" y="943" on="1"/>
        <pt x="304" y="943" on="0"/>
        <pt x="342" y="958" on="0"/>
        <pt x="370" y="985" on="0"/>
        <pt x="386" y="1021" on="0"/>
        <pt x="386" y="1042" on="1"/>
        <pt x="386" y="1063" on="0"/>
        <pt x="370" y="1099" on="0"/>
        <pt x="342" y="1125" on="0"/>
        <pt x="304" y="1140" on="0"/>
      </contour>
    </TTGlyph>
    <TTGlyph name="s" xMin="75" yMin="-18" xMax="752" yMax="820">
      <contour>
        <pt x="77" y="263" on="1"/>
        <pt x="210" y="263" on="1"/>
        <pt x="210" y="210" on="1"/>
        <pt x="223" y="185" on="0"/>
        <pt x="257" y="145" on="0"/>
        <pt x="306" y="116" on="0"/>
        <pt x="372" y="100" on="0"/>
        <pt x="416" y="100" on="1"/>
        <pt x="504" y="100" on="0"/>
        <pt x="599" y="160" on="0"/>
        <pt x="599" y="217" on="1"/>
        <pt x="599" y="249" on="0"/>
        <pt x="573" y="288" on="0"/>
        <pt x="526" y="312" on="0"/>
        <pt x="461" y="325" on="0"/>
        <pt x="421" y="331" on="1"/>
        <pt x="359" y="340" on="0"/>
        <pt x="236" y="368" on="0"/>
        <pt x="137" y="423" on="0"/>
        <pt x="75" y="514" on="0"/>
        <pt x="75" y="586" on="1"/>
        <pt x="75" y="635" on="0"/>
        <pt x="117" y="721" on="0"/>
        <pt x="195" y="784" on="0"/>
        <pt x="304" y="820" on="0"/>
        <pt x="372" y="820" on="1"/>
        <pt x="432" y="820" on="0"/>
        <pt x="538" y="777" on="0"/>
        <pt x="577" y="745" on="1"/>
        <pt x="577" y="805" on="1"/>
        <pt x="706" y="805" on="1"/>
        <pt x="706" y="549" on="1"/>
        <pt x="577" y="549" on="1"/>
        <pt x="577" y="616" on="1"/>
        <pt x="506" y="702" on="0"/>
        <pt x="378" y="702" on="1"/>
        <pt x="303" y="702" on="0"/>
        <pt x="216" y="643" on="0"/>
        <pt x="216" y="592" on="1"/>
        <pt x="216" y="559" on="0"/>
        <pt x="262" y="520" on="0"/>
        <pt x="337" y="495" on="0"/>
        <pt x="434" y="478" on="0"/>
        <pt x="534" y="458" on="0"/>
        <pt x="631" y="427" on="0"/>
        <pt x="706" y="373" on="0"/>
        <pt x="752" y="290" on="0"/>
        <pt x="752" y="228" on="1"/>
        <pt x="752" y="173" on="0"/>
        <pt x="707" y="82" on="0"/>
        <pt x="624" y="18" on="0"/>
        <pt x="506" y="-18" on="0"/>
        <pt x="433" y="-18" on="1"/>
        <pt x="364" y="-18" on="0"/>
        <pt x="255" y="14" on="0"/>
        <pt x="210" y="50" on="1"/>
        <pt x="210" y="0" on="1"/>
        <pt x="77" y="0" on="1"/>
      </contour>
    </TTGlyph>
    <TTGlyph name="scaron" xMin="75" yMin="-18" xMax="752" yMax="1171">
      <component glyphName="s" x="0" y="0" flags="0x204"/>
      <component glyphName="caron" x="108" y="0" flags="0x4"/>
    </TTGlyph>
    <TTGlyph name="section" xMin="88" yMin="-326" xMax="809" yMax="1171">
      <contour>
        <pt x="645" y="924" on="1"/>
        <pt x="626" y="990" on="0"/>
        <pt x="531" y="1053" on="0"/>
        <pt x="464" y="1053" on="1"/>
        <pt x="419" y="1053" on="0"/>
        <pt x="344" y="1032" on="0"/>
        <pt x="290" y="995" on="0"/>
        <pt x="259" y="944" on="0"/>
        <pt x="259" y="913" on="1"/>
        <pt x="259" y="869" on="0"/>
        <pt x="306" y="806" on="0"/>
        <pt x="384" y="758" on="0"/>
        <pt x="482" y="719" on="0"/>
        <pt x="586" y="678" on="0"/>
        <pt x="684" y="631" on="0"/>
        <pt x="762" y="567" on="0"/>
        <pt x="809" y="479" on="0"/>
        <pt x="809" y="419" on="1"/>
        <pt x="809" y="273" on="0"/>
        <pt x="650" y="173" on="1"/>
        <pt x="713" y="136" on="0"/>
        <pt x="781" y="23" on="0"/>
        <pt x="781" y="-46" on="1"/>
        <pt x="781" y="-108" on="0"/>
        <pt x="735" y="-211" on="0"/>
        <pt x="651" y="-285" on="0"/>
        <pt x="535" y="-326" on="0"/>
        <pt x="465" y="-326" on="1"/>
        <pt x="359" y="-326" on="0"/>
        <pt x="206" y="-236" on="0"/>
        <pt x="160" y="-160" on="1"/>
        <pt x="262" y="-77" on="1"/>
        <pt x="291" y="-137" on="0"/>
        <pt x="393" y="-203" on="0"/>
        <pt x="468" y="-203" on="1"/>
        <pt x="508" y="-203" on="0"/>
        <pt x="571" y="-181" on="0"/>
        <pt x="616" y="-142" on="0"/>
        <pt x="640" y="-89" on="0"/>
        <pt x="640" y="-58" on="1"/>
        <pt x="640" y="-16" on="0"/>
        <pt x="593" y="44" on="0"/>
        <pt x="515" y="91" on="0"/>
        <pt x="416" y="129" on="0"/>
        <pt x="312" y="169" on="0"/>
        <pt x="213" y="217" on="0"/>
        <pt x="135" y="282" on="0"/>
        <pt x="88" y="370" on="0"/>
        <pt x="88" y="431" on="1"/>
        <pt x="88" y="502" on="0"/>
        <pt x="164" y="618" on="0"/>
        <pt x="248" y="674" on="1"/>
        <pt x="185" y="712" on="0"/>
        <pt x="118" y="827" on="0"/>
        <pt x="118" y="899" on="1"/>
        <pt x="118" y="956" on="0"/>
        <pt x="168" y="1055" on="0"/>
        <pt x="256" y="1128" on="0"/>
        <pt x="378" y="1171" on="0"/>
        <pt x="450" y="1171" on="1"/>
        <pt x="504" y="1171" on="0"/>
        <pt x="605" y="1148" on="0"/>
        <pt x="690" y="1098" on="0"/>
        <pt x="753" y="1022" on="0"/>
        <pt x="770" y="969" on="1"/>
      </contour>
      <contour>
        <pt x="560" y="220" on="1"/>
        <pt x="623" y="253" on="0"/>
        <pt x="685" y="339" on="0"/>
        <pt x="685" y="388" on="1"/>
        <pt x="685" y="439" on="0"/>
        <pt x="622" y="502" on="0"/>
        <pt x="522" y="551" on="0"/>
        <pt x="395" y="595" on="0"/>
        <pt x="331" y="626" on="1"/>
        <pt x="268" y="588" on="0"/>
        <pt x="213" y="512" on="0"/>
        <pt x="213" y="464" on="1"/>
        <pt x="213" y="413" on="0"/>
        <pt x="272" y="349" on="0"/>
        <pt x="370" y="300" on="0"/>
        <pt x="495" y="253" on="0"/>
      </contour>
    </TTGlyph>
</ttFont>
